{
DisplayStrings = (
"/alpha-latin"
);
classes = (
{
code = "W Wacute Wcircumflex Wdieresis Wgrave";
name = public.kern2.W;
},
{
code = "a aacute abreve acircumflex adieresis agrave amacron aogonek aring atilde";
name = public.kern1.a;
},
{
code = "Y Yacute Ycircumflex Ydieresis Ygrave Ymacron";
name = public.kern2.Y;
},
{
code = "b bdotaccent eth";
name = public.kern1.b;
},
{
code = "c cacute ccaron ccedilla ccircumflex cdotaccent";
name = public.kern1.c;
},
{
code = "e eacute ebreve ecaron ecircumflex edieresis edotaccent egrave emacron eogonek";
name = public.kern1.e;
},
{
code = "eng kgreenlandic n nacute ncaron ncommaaccent ntilde";
name = public.kern1.eng;
},
{
code = "";
name = public.kern2._empty_lu.0_st.0_cl.0;
},
{
code = "f fdotaccent";
name = public.kern1.f;
},
{
code = "h hbar hcircumflex";
name = public.kern1.h;
},
{
code = "a aacute abreve acircumflex adieresis agrave amacron aogonek aring atilde";
name = public.kern2.a;
},
{
code = "k kcommaaccent";
name = public.kern1.k;
},
{
code = "comma ellipsis period";
name = public.kern1.comma;
},
{
code = "c cacute ccaron ccedilla ccircumflex cdotaccent";
name = public.kern2.c;
},
{
code = "m mdotaccent";
name = public.kern1.m;
},
{
code = "d dcaron dcroat ddotaccent";
name = public.kern2.d;
},
{
code = "e eacute ebreve ecaron ecircumflex edieresis edotaccent egrave emacron eogonek";
name = public.kern2.e;
},
{
code = "o oacute obreve ocircumflex odieresis ograve ohungarumlaut omacron oslash otilde";
name = public.kern1.o;
},
{
code = "f fdotaccent";
name = public.kern2.f;
},
{
code = "p pdotaccent";
name = public.kern1.p;
},
{
code = "g gbreve gcircumflex gcommaaccent gdotaccent";
name = public.kern2.g;
},
{
code = "r racute rcaron rcommaaccent";
name = public.kern1.r;
},
{
code = "s sacute scaron scedilla scircumflex scommaaccent";
name = public.kern1.s;
},
{
code = "l lacute lcaron lcommaaccent ldot lslash";
name = public.kern2.l;
},
{
code = "quotedblleft quoteleft reversequotedblleft reversequoteleft";

glyphs = (
{
glyphname = A;
lastChange = "2015-06-21 20:23:15 +0000";
layers = (
{
anchors = (
{
name = bottom.cap;
position = "{295, 0}";
},
{
name = top.cap;
position = "{295, 780}";
}
);
layerId = "7E0ECC91-5B8E-4D6E-BF07-DE660E899F7B";
name = Light;
paths = (
{
closed = 1;
nodes = (
"285 790 LINE",
"35 0 LINE",
"56 0 LINE",
"128 230 LINE",
"462 230 LINE",
"534 0 LINE",
"555 0 LINE",
"305 790 LINE"
);
},
{
closed = 1;
nodes = (
"295 760 LINE",
"455 250 LINE",
"135 250 LINE"
);
}
);
width = 590;
},
{
anchors = (
{
name = bottom.cap;
position = "{325, 0}";
},
{
name = top.cap;
position = "{325, 780}";
}
);
layerId = "8A6A1EBA-5B98-4308-8E77-A32B8A512EB8";
name = Bold;
paths = (
{
closed = 1;
nodes = (
"195 780 LINE",
"9 0 LINE",
"213 0 LINE",
"244 158 LINE",
"406 158 LINE",
"438 0 LINE",
"641 0 LINE",
"455 780 LINE"
);
},
{
closed = 1;
nodes = (
"325 560 LINE",
"373 322 LINE",
"277 322 LINE"
);
}
);
width = 650;
}
);
unicode = 0041;
},
{
glyphname = Aogonek;
lastChange = "2015-06-21 20:09:14 +0000";
layers = (
{
anchors = (
{
name = bottom.cap;
position = "{295, -206}";
},
{
name = top.cap;
position = "{295, 780}";
}
);
layerId = "7E0ECC91-5B8E-4D6E-BF07-DE660E899F7B";
name = Light;
paths = (
{
closed = 1;
nodes = (
"594 -172 LINE",
"579 -179 OFFCURVE",
"555 -188 OFFCURVE",
"521 -188 CURVE SMOOTH",
"483 -188 OFFCURVE",
"448 -170 OFFCURVE",
"448 -115 CURVE SMOOTH",
"448 -45 OFFCURVE",
"508 -15 OFFCURVE",
"555 0 CURVE",
"305 790 LINE",
"285 790 LINE",
"35 0 LINE",
"56 0 LINE",
"128 230 LINE",
"462 230 LINE",
"534 0 LINE",
"537 0 LINE",
"536 11 LINE",
"482 -9 OFFCURVE",
"430 -40 OFFCURVE",
"430 -115 CURVE SMOOTH",
"430 -180 OFFCURVE",
"474 -206 OFFCURVE",
"521 -206 CURVE SMOOTH",
"560 -206 OFFCURVE",
"582 -197 OFFCURVE",
"600 -188 CURVE"
);
},
{
closed = 1;
nodes = (
"295 760 LINE",
"455 250 LINE",
"135 250 LINE"
);
}
);
width = 590;
},
{
anchors = (
{
name = bottom.cap;
position = "{325, -216}";
},
{
name = top.cap;
position = "{325, 780}";
}
);
layerId = "8A6A1EBA-5B98-4308-8E77-A32B8A512EB8";
name = Bold;
paths = (
{
closed = 1;
nodes = (
"660 -80 LINE",
"654 -84 OFFCURVE",
"642 -90 OFFCURVE",
"624 -90 CURVE SMOOTH",
"601 -90 OFFCURVE",
"586 -77 OFFCURVE",
"586 -58 CURVE SMOOTH",
"586 -35 OFFCURVE",
"603 -17 OFFCURVE",
"641 0 CURVE",
"455 780 LINE",
"195 780 LINE",
"9 0 LINE",
"213 0 LINE",
"244 158 LINE",
"406 158 LINE",
"438 0 LINE",
"575 0 LINE",
"533 34 LINE",
"486 5 OFFCURVE",
"451 -44 OFFCURVE",
"451 -105 CURVE SMOOTH",
"451 -180 OFFCURVE",
"508 -216 OFFCURVE",
"593 -216 CURVE SMOOTH",
"638 -216 OFFCURVE",
"680 -203 OFFCURVE",
"701 -190 CURVE"
);
},
{
closed = 1;
nodes = (
"325 560 LINE",
"373 322 LINE",
"277 322 LINE"
);
}
);
width = 650;
}
);
unicode = 0104;
},
{
glyphname = B;
lastChange = "2015-06-21 20:09:14 +0000";
layers = (
{
anchors = (
{
name = bottom.cap;
position = "{260, 0}";
},
{
name = top.cap;
position = "{260, 780}";
}
);
layerId = "7E0ECC91-5B8E-4D6E-BF07-DE660E899F7B";
name = Light;
paths = (
{
closed = 1;
nodes = (
"80 780 LINE",
"80 0 LINE",
"279 0 LINE SMOOTH",
"385 0 OFFCURVE",
"494 37 OFFCURVE",
"494 194 CURVE SMOOTH",
"494 214 LINE SMOOTH",
"494 342 OFFCURVE",
"420 387 OFFCURVE",
"339 399 CURVE",
"412 414 OFFCURVE",
"474 458 OFFCURVE",
"474 576 CURVE SMOOTH",
"474 592 LINE SMOOTH",
"474 749 OFFCURVE",
"365 780 OFFCURVE",
"259 780 CURVE SMOOTH"
);
},
{
closed = 1;
nodes = (
"277 388 LINE SMOOTH",
"359 388 OFFCURVE",
"473 368 OFFCURVE",
"473 213 CURVE SMOOTH",
"473 195 LINE SMOOTH",
"473 40 OFFCURVE",
"359 20 OFFCURVE",
"277 20 CURVE SMOOTH",
"100 20 LINE",
"100 388 LINE"
);
},
{
closed = 1;
nodes = (
"257 760 LINE SMOOTH",
"339 760 OFFCURVE",
"453 746 OFFCURVE",
"453 591 CURVE SMOOTH",
"453 577 LINE SMOOTH",
"453 422 OFFCURVE",
"339 408 OFFCURVE",
"257 408 CURVE SMOOTH",
"100 408 LINE",
"100 760 LINE"
);
}
);
width = 552;
},
{
anchors = (
{
name = bottom.cap;
position = "{294, 0}";
},
{
name = top.cap;
position = "{294, 780}";
}
);
layerId = "8A6A1EBA-5B98-4308-8E77-A32B8A512EB8";
name = Bold;
paths = (
{
closed = 1;
nodes = (
"50 780 LINE",
"50 0 LINE",
"330 0 LINE SMOOTH",
"454 0 OFFCURVE",
"600 27 OFFCURVE",
"600 230 CURVE SMOOTH",
"600 250 LINE SMOOTH",
"600 329 OFFCURVE",
"565 376 OFFCURVE",
"515 403 CURVE",
"554 430 OFFCURVE",
"580 472 OFFCURVE",
"580 538 CURVE SMOOTH",
"580 558 LINE SMOOTH",
"580 754 OFFCURVE",
"444 780 OFFCURVE",
"325 780 CURVE SMOOTH"
);
},
{
closed = 1;
nodes = (
"335 316 LINE SMOOTH",
"366 316 OFFCURVE",
"408 305 OFFCURVE",
"408 244 CURVE SMOOTH",
"408 236 LINE SMOOTH",
"408 175 OFFCURVE",
"366 164 OFFCURVE",
"335 164 CURVE SMOOTH",
"240 164 LINE",
"240 316 LINE"
);
},
{
closed = 1;
nodes = (
"322 616 LINE SMOOTH",
"350 616 OFFCURVE",
"388 608 OFFCURVE",
"388 554 CURVE SMOOTH",
"388 542 LINE SMOOTH",
"388 488 OFFCURVE",
"350 480 OFFCURVE",
"322 480 CURVE SMOOTH",
"240 480 LINE",
"240 616 LINE"
);
}
);
width = 645;
}
);
unicode = 0042;
},
{
glyphname = C;
lastChange = "2015-06-21 20:09:14 +0000";
layers = (
{
anchors = (
{
name = bottom.cap;
position = "{315, 0}";
},
{
name = cedilla.cap;
position = "{318, 0}";
},
{
name = top.cap;
position = "{315, 780}";
}
);
layerId = "7E0ECC91-5B8E-4D6E-BF07-DE660E899F7B";
name = Light;
paths = (
{
closed = 1;
nodes = (
"515 250 LINE",
"515 84 OFFCURVE",
"443 14 OFFCURVE",
"318 14 CURVE SMOOTH",
"312 14 LINE SMOOTH",
"164 14 OFFCURVE",
"85 112 OFFCURVE",
"85 370 CURVE SMOOTH",
"85 410 LINE SMOOTH",
"85 668 OFFCURVE",
"164 766 OFFCURVE",
"312 766 CURVE SMOOTH",
"318 766 LINE SMOOTH",
"455 766 OFFCURVE",
"515 698 OFFCURVE",
"515 500 CURVE",
"535 500 LINE",
"535 520 LINE SMOOTH",
"535 708 OFFCURVE",
"466 786 OFFCURVE",
"315 786 CURVE SMOOTH",
"150 786 OFFCURVE",
"65 680 OFFCURVE",
"65 410 CURVE SMOOTH",
"65 370 LINE SMOOTH",
"65 100 OFFCURVE",
"150 -6 OFFCURVE",
"315 -6 CURVE SMOOTH",
"469 -6 OFFCURVE",
"535 91 OFFCURVE",
"535 236 CURVE SMOOTH",
"535 250 LINE"
);
}
);
width = 593;
},
{
anchors = (
{
name = bottom.cap;
position = "{335, 0}";
},
{
name = cedilla.cap;
position = "{342, 0}";
},
{
name = top.cap;
position = "{335, 780}";
}
);
layerId = "8A6A1EBA-5B98-4308-8E77-A32B8A512EB8";
name = Bold;
paths = (
{
closed = 1;
nodes = (
"435 270 LINE",
"435 200 OFFCURVE",
"412 150 OFFCURVE",
"345 150 CURVE SMOOTH",
"335 150 LINE SMOOTH",
"240 150 OFFCURVE",
"226 235 OFFCURVE",
"226 370 CURVE SMOOTH",
"226 410 LINE SMOOTH",
"226 545 OFFCURVE",
"240 630 OFFCURVE",
"335 630 CURVE SMOOTH",
"345 630 LINE SMOOTH",
"420 630 OFFCURVE",
"435 570 OFFCURVE",
"435 480 CURVE",
"625 480 LINE",
"625 519 LINE SMOOTH",
"625 720 OFFCURVE",
"526 794 OFFCURVE",
"335 794 CURVE SMOOTH",
"125 794 OFFCURVE",
"33 680 OFFCURVE",
"33 410 CURVE SMOOTH",
"33 370 LINE SMOOTH",
"33 100 OFFCURVE",
"125 -14 OFFCURVE",
"335 -14 CURVE SMOOTH",
"526 -14 OFFCURVE",
"625 60 OFFCURVE",
"625 261 CURVE SMOOTH",
"625 270 LINE"
);
}
);
width = 660;
}
);
unicode = 0043;
},
{
glyphname = D;
lastChange = "2015-06-21 20:09:14 +0000";
layers = (
{
anchors = (
{
name = bottom.cap;
position = "{270, 0}";
},
{
name = top.cap;
position = "{270, 780}";
}
);
layerId = "7E0ECC91-5B8E-4D6E-BF07-DE660E899F7B";
name = Light;
paths = (
{
closed = 1;
nodes = (
"555 370 CURVE SMOOTH",
"555 410 LINE SMOOTH",
"555 685 OFFCURVE",
"435 780 OFFCURVE",
"270 780 CURVE SMOOTH",
"80 780 LINE",
"80 0 LINE",
"270 0 LINE SMOOTH",
"435 0 OFFCURVE",
"555 95 OFFCURVE"
);
},
{
closed = 1;
nodes = (
"100 20 LINE",
"100 760 LINE",
"265 760 LINE SMOOTH",
"425 760 OFFCURVE",
"535 670 OFFCURVE",
"535 410 CURVE SMOOTH",
"535 370 LINE SMOOTH",
"535 110 OFFCURVE",
"425 20 OFFCURVE",
"265 20 CURVE SMOOTH"
);
}
);
width = 615;
},
{
anchors = (
{
name = bottom.cap;
position = "{320, 0}";
},
{
name = top.cap;
position = "{320, 780}";
}
);
layerId = "8A6A1EBA-5B98-4308-8E77-A32B8A512EB8";
name = Bold;
paths = (
{
closed = 1;
nodes = (
"637 370 CURVE SMOOTH",
"637 410 LINE SMOOTH",
"637 680 OFFCURVE",
"545 780 OFFCURVE",
"300 780 CURVE SMOOTH",
"50 780 LINE",
"50 0 LINE",
"300 0 LINE SMOOTH",
"545 0 OFFCURVE",
"637 100 OFFCURVE"
);
},
{
closed = 1;
nodes = (
"240 164 LINE",
"240 616 LINE",
"290 616 LINE SMOOTH",
"420 616 OFFCURVE",
"444 545 OFFCURVE",
"444 410 CURVE SMOOTH",
"444 370 LINE SMOOTH",
"444 235 OFFCURVE",
"420 164 OFFCURVE",
"290 164 CURVE SMOOTH"
);
}
);
width = 670;
}
);
unicode = 0044;
},
{
glyphname = E;
lastChange = "2015-06-21 20:09:14 +0000";
layers = (
{
anchors = (
{
name = bottom.cap;
position = "{290, 1}";
},
{
name = top.cap;
position = "{290, 780}";
}
);
layerId = "7E0ECC91-5B8E-4D6E-BF07-DE660E899F7B";
name = Light;
paths = (
{
closed = 1;
nodes = (
"80 780 LINE",
"80 0 LINE",
"490 0 LINE",
"490 20 LINE",
"100 20 LINE",
"100 388 LINE",
"440 388 LINE",
"440 408 LINE",
"100 408 LINE",
"100 760 LINE",
"490 760 LINE",
"490 780 LINE"
);
}
);
width = 540;
},
{
anchors = (
{
name = bottom.cap;
position = "{295, 0}";
},
{
name = top.cap;
position = "{295, 780}";
}
);
layerId = "8A6A1EBA-5B98-4308-8E77-A32B8A512EB8";
name = Bold;
paths = (
{
closed = 1;
nodes = (
"50 780 LINE",
"50 0 LINE",
"540 0 LINE",
"540 164 LINE",
"240 164 LINE",
"240 316 LINE",
"490 316 LINE",
"490 480 LINE",
"240 480 LINE",
"240 616 LINE",
"540 616 LINE",
"540 780 LINE"
);
}
);
width = 580;
}
);
unicode = 0045;
},
{
glyphname = Eogonek;
lastChange = "2015-06-21 20:09:14 +0000";
layers = (
{
anchors = (
{
name = bottom.cap;
position = "{290, -206}";
},
{
name = top.cap;
position = "{290, 780}";
}
);
layerId = "7E0ECC91-5B8E-4D6E-BF07-DE660E899F7B";
name = Light;
paths = (
{
closed = 1;
nodes = (
"529 -172 LINE",
"514 -179 OFFCURVE",
"490 -188 OFFCURVE",
"456 -188 CURVE SMOOTH",
"418 -188 OFFCURVE",
"383 -170 OFFCURVE",
"383 -115 CURVE SMOOTH",
"383 -45 OFFCURVE",
"443 -15 OFFCURVE",
"490 0 CURVE",
"490 20 LINE",
"100 20 LINE",
"100 388 LINE",
"440 388 LINE",
"440 408 LINE",
"100 408 LINE",
"100 760 LINE",
"490 760 LINE",
"490 780 LINE",
"80 780 LINE",
"80 0 LINE",
"444 0 LINE",
"401 -21 OFFCURVE",
"365 -53 OFFCURVE",
"365 -115 CURVE SMOOTH",
"365 -180 OFFCURVE",
"409 -206 OFFCURVE",
"456 -206 CURVE SMOOTH",
"495 -206 OFFCURVE",
"517 -197 OFFCURVE",
"535 -188 CURVE"
);
}
);
width = 540;
},
{
anchors = (
{
name = bottom.cap;
position = "{295, -216}";
},
{
name = top.cap;
position = "{295, 780}";
}
);
layerId = "8A6A1EBA-5B98-4308-8E77-A32B8A512EB8";
name = Bold;
paths = (
{
closed = 1;
nodes = (
"559 -80 LINE",
"553 -84 OFFCURVE",
"541 -90 OFFCURVE",
"523 -90 CURVE SMOOTH",
"500 -90 OFFCURVE",
"485 -77 OFFCURVE",
"485 -58 CURVE SMOOTH",
"485 -35 OFFCURVE",
"502 -17 OFFCURVE",
"540 0 CURVE",
"540 164 LINE",
"240 164 LINE",
"240 316 LINE",
"490 316 LINE",
"490 480 LINE",
"240 480 LINE",
"240 616 LINE",
"540 616 LINE",
"540 780 LINE",
"50 780 LINE",
"50 0 LINE",
"391 0 LINE",
"366 -28 OFFCURVE",
"350 -64 OFFCURVE",
"350 -105 CURVE SMOOTH",
"350 -180 OFFCURVE",
"407 -216 OFFCURVE",
"492 -216 CURVE SMOOTH",
"537 -216 OFFCURVE",
"579 -203 OFFCURVE",
"600 -190 CURVE"
);
}
);
width = 580;
}
);
unicode = 0118;
},
{
glyphname = F;
lastChange = "2015-06-21 20:09:14 +0000";
layers = (
{
anchors = (
{
name = bottom.cap;
position = "{90, 0}";
},
{
name = top.cap;
position = "{275, 780}";
}
);
layerId = "7E0ECC91-5B8E-4D6E-BF07-DE660E899F7B";
name = Light;
paths = (
{
closed = 1;
nodes = (
"80 780 LINE",
"80 0 LINE",
"100 0 LINE",
"100 388 LINE",
"420 388 LINE",
"420 408 LINE",
"100 408 LINE",
"100 760 LINE",
"470 760 LINE",
"470 780 LINE"
);
}
);
width = 484;
},
{
anchors = (
{
name = bottom.cap;
position = "{145, 0}";
},
{
name = top.cap;
position = "{295, 780}";
}
);
layerId = "8A6A1EBA-5B98-4308-8E77-A32B8A512EB8";
name = Bold;
paths = (
{
closed = 1;
nodes = (
"50 780 LINE",
"50 0 LINE",
"240 0 LINE",
"240 316 LINE",
"490 316 LINE",
"490 480 LINE",
"240 480 LINE",
"240 616 LINE",
"540 616 LINE",
"540 780 LINE"
);
}
);
width = 560;
}
);
unicode = 0046;
},
{
glyphname = G;
lastChange = "2015-06-21 20:09:14 +0000";
layers = (
{
anchors = (
{
name = bottom.cap;
position = "{325, 1}";
},
{
name = top.cap;
position = "{325, 780}";
}
);
layerId = "7E0ECC91-5B8E-4D6E-BF07-DE660E899F7B";
name = Light;
paths = (
{
closed = 1;
nodes = (
"336 -6 CURVE SMOOTH",
"452 -6 OFFCURVE",
"518 38 OFFCURVE",
"550 79 CURVE",
"550 362 LINE",
"371 362 LINE",
"371 342 LINE",
"530 342 LINE",
"530 88 LINE",
"500 50 OFFCURVE",
"436 14 OFFCURVE",
"339 14 CURVE SMOOTH",
"333 14 LINE SMOOTH",
"175 14 OFFCURVE",
"85 110 OFFCURVE",
"85 370 CURVE SMOOTH",
"85 410 LINE SMOOTH",
"85 670 OFFCURVE",
"176 766 OFFCURVE",
"322 766 CURVE SMOOTH",
"328 766 LINE SMOOTH",
"471 766 OFFCURVE",
"530 686 OFFCURVE",
"530 500 CURVE",
"550 500 LINE",
"550 523 LINE SMOOTH",
"550 683 OFFCURVE",
"490 786 OFFCURVE",
"325 786 CURVE SMOOTH",
"160 786 OFFCURVE",
"65 682 OFFCURVE",
"65 410 CURVE SMOOTH",
"65 370 LINE SMOOTH",
"65 98 OFFCURVE",
"159 -6 OFFCURVE"
);
}
);
width = 625;
},
{
anchors = (
{
name = bottom.cap;
position = "{340, 1}";
},
{
name = top.cap;
position = "{340, 780}";
}
);
layerId = "8A6A1EBA-5B98-4308-8E77-A32B8A512EB8";
name = Bold;
paths = (
{
closed = 1;
nodes = (
"350 -14 CURVE SMOOTH",
"490 -14 OFFCURVE",
"571 28 OFFCURVE",
"634 78 CURVE",
"634 434 LINE",
"350 434 LINE",
"350 270 LINE",
"444 270 LINE",
"444 170 LINE",
"421 157 OFFCURVE",
"390 150 OFFCURVE",
"355 150 CURVE SMOOTH",
"345 150 LINE SMOOTH",
"240 150 OFFCURVE",
"226 235 OFFCURVE",
"226 370 CURVE SMOOTH",
"226 410 LINE SMOOTH",
"226 545 OFFCURVE",
"240 630 OFFCURVE",
"340 630 CURVE SMOOTH",
"350 630 LINE SMOOTH",
"430 630 OFFCURVE",
"445 570 OFFCURVE",
"445 480 CURVE",
"635 480 LINE",
"635 519 LINE SMOOTH",
"635 720 OFFCURVE",
"531 794 OFFCURVE",
"340 794 CURVE SMOOTH",
"130 794 OFFCURVE",
"33 680 OFFCURVE",
"33 410 CURVE SMOOTH",
"33 370 LINE SMOOTH",
"33 100 OFFCURVE",
"130 -14 OFFCURVE"
);
}
);
width = 680;
}
);
unicode = 0047;
},
{
glyphname = Gcommaaccent;
lastChange = "2015-06-21 20:09:14 +0000";
layers = (
{
layerId = "7E0ECC91-5B8E-4D6E-BF07-DE660E899F7B";
name = Light;
paths = (
{
closed = 1;
nodes = (
"336 -6 CURVE SMOOTH",
"452 -6 OFFCURVE",
"518 38 OFFCURVE",
"550 79 CURVE",
"550 362 LINE",
"371 362 LINE",
"371 342 LINE",
"530 342 LINE",
"530 88 LINE",
"500 50 OFFCURVE",
"436 14 OFFCURVE",
"339 14 CURVE SMOOTH",
"333 14 LINE SMOOTH",
"175 14 OFFCURVE",
"85 110 OFFCURVE",
"85 370 CURVE SMOOTH",
"85 410 LINE SMOOTH",
"85 670 OFFCURVE",
"176 766 OFFCURVE",
"322 766 CURVE SMOOTH",
"328 766 LINE SMOOTH",
"471 766 OFFCURVE",
"530 686 OFFCURVE",
"530 500 CURVE",
"550 500 LINE",
"550 523 LINE SMOOTH",
"550 683 OFFCURVE",
"490 786 OFFCURVE",
"325 786 CURVE SMOOTH",
"160 786 OFFCURVE",
"65 682 OFFCURVE",
"65 410 CURVE SMOOTH",
"65 370 LINE SMOOTH",
"65 98 OFFCURVE",
"159 -6 OFFCURVE"
);
},
{
closed = 1;
nodes = (
"356 -70 LINE",
"316 -70 LINE",
"316 -110 LINE",
"336 -110 LINE",
"335 -176 OFFCURVE",
"317 -188 OFFCURVE",
"281 -188 CURVE",
"281 -206 LINE",
"332 -206 OFFCURVE",
"356 -178 OFFCURVE",
"356 -102 CURVE SMOOTH"
);
}
);
width = 625;
},
{
layerId = "8A6A1EBA-5B98-4308-8E77-A32B8A512EB8";
name = Bold;
paths = (
{
closed = 1;
nodes = (
"350 -14 CURVE SMOOTH",
"490 -14 OFFCURVE",
"571 28 OFFCURVE",
"634 78 CURVE",
"634 434 LINE",
"350 434 LINE",
"350 270 LINE",
"444 270 LINE",
"444 170 LINE",
"421 157 OFFCURVE",
"390 150 OFFCURVE",
"355 150 CURVE SMOOTH",
"345 150 LINE SMOOTH",
"240 150 OFFCURVE",
"226 235 OFFCURVE",
"226 370 CURVE SMOOTH",
"226 410 LINE SMOOTH",
"226 545 OFFCURVE",
"240 630 OFFCURVE",
"340 630 CURVE SMOOTH",
"350 630 LINE SMOOTH",
"430 630 OFFCURVE",
"445 570 OFFCURVE",
"445 480 CURVE",
"635 480 LINE",
"635 519 LINE SMOOTH",
"635 720 OFFCURVE",
"531 794 OFFCURVE",
"340 794 CURVE SMOOTH",
"130 794 OFFCURVE",
"33 680 OFFCURVE",
"33 410 CURVE SMOOTH",
"33 370 LINE SMOOTH",
"33 100 OFFCURVE",
"130 -14 OFFCURVE"
);
},
{
closed = 1;
nodes = (
"430 -40 LINE",
"270 -40 LINE",
"270 -140 LINE",
"358 -140 LINE",
"343 -163 OFFCURVE",
"313 -170 OFFCURVE",
"270 -170 CURVE",
"270 -230 LINE",
"380 -230 OFFCURVE",
"430 -195 OFFCURVE",
"430 -100 CURVE SMOOTH"
);
}
);
width = 680;
}
);
unicode = 0122;
},
{
glyphname = H;
lastChange = "2015-06-21 20:09:14 +0000";
layers = (
{
anchors = (
{
name = bottom.cap;
position = "{310, 0}";
},
{
name = top.cap;
position = "{310, 780}";
}
);
layerId = "7E0ECC91-5B8E-4D6E-BF07-DE660E899F7B";
name = Light;
paths = (
{
closed = 1;
nodes = (
"520 780 LINE",
"520 408 LINE",
"100 408 LINE",
"100 780 LINE",
"80 780 LINE",
"80 0 LINE",
"100 0 LINE",
"100 388 LINE",
"520 388 LINE",
"520 0 LINE",
"540 0 LINE",
"540 780 LINE"
);
}
);
width = 620;
},
{
anchors = (
{
name = bottom.cap;
position = "{345, 0}";
},
{
name = top.cap;
position = "{345, 780}";
}
);
layerId = "8A6A1EBA-5B98-4308-8E77-A32B8A512EB8";
name = Bold;
paths = (
{
closed = 1;
nodes = (
"430 780 LINE",
"430 480 LINE",
"240 480 LINE",
"240 780 LINE",
"50 780 LINE",
"50 0 LINE",
"240 0 LINE",
"240 316 LINE",
"430 316 LINE",
"430 0 LINE",
"620 0 LINE",
"620 780 LINE"
);
}
);
width = 670;
}
);
unicode = 0048;
},
{
glyphname = I;
lastChange = "2015-06-21 20:09:14 +0000";
layers = (
{
anchors = (
{
name = bottom.cap;
position = "{95, 0}";
},
{
name = top.cap;
position = "{95, 780}";
}
);
layerId = "7E0ECC91-5B8E-4D6E-BF07-DE660E899F7B";
name = Light;
paths = (
{
closed = 1;
nodes = (
"105 780 LINE",
"85 780 LINE",
"85 0 LINE",
"105 0 LINE"
);
}
);
width = 190;
},
{
anchors = (
{
name = bottom.cap;
position = "{150, 0}";
},
{
name = top.cap;
position = "{150, 780}";
}
);
layerId = "8A6A1EBA-5B98-4308-8E77-A32B8A512EB8";
name = Bold;
paths = (
{
closed = 1;
nodes = (
"245 780 LINE",
"55 780 LINE",
"55 0 LINE",
"245 0 LINE"
);
}
);
width = 300;
}
);
unicode = 0049;
},
{
glyphname = Igrave;
lastChange = "2015-06-21 20:09:14 +0000";
layers = (
{
layerId = "7E0ECC91-5B8E-4D6E-BF07-DE660E899F7B";
name = Light;
paths = (
{
closed = 1;
nodes = (
"105 780 LINE",
"85 780 LINE",
"85 0 LINE",
"105 0 LINE"
);
},
{
closed = 1;
nodes = (
"22 950 LINE",
"84 840 LINE",
"106 840 LINE",
"44 950 LINE"
);
}
);
width = 190;
},
{
layerId = "8A6A1EBA-5B98-4308-8E77-A32B8A512EB8";
name = Bold;
paths = (
{
closed = 1;
nodes = (
"245 780 LINE",
"55 780 LINE",
"55 0 LINE",
"245 0 LINE"
);
},
{
closed = 1;
nodes = (
"-5 950 LINE",
"59 840 LINE",
"241 840 LINE",
"188 950 LINE"
);
}
);
width = 300;
}
);
unicode = 00CC;
},
{
glyphname = Iacute;
lastChange = "2015-06-21 20:09:14 +0000";
layers = (
{
layerId = "7E0ECC91-5B8E-4D6E-BF07-DE660E899F7B";
name = Light;
paths = (
{
closed = 1;
nodes = (
"105 780 LINE",
"85 780 LINE",
"85 0 LINE",
"105 0 LINE"
);
},
{
closed = 1;
nodes = (
"146 950 LINE",
"84 840 LINE",
"106 840 LINE",
"168 950 LINE"
);
}
);
width = 190;
},
{
layerId = "8A6A1EBA-5B98-4308-8E77-A32B8A512EB8";
name = Bold;
paths = (
{
closed = 1;
nodes = (
"245 780 LINE",
"55 780 LINE",
"55 0 LINE",
"245 0 LINE"
);
},
{
closed = 1;
nodes = (
"112 950 LINE",
"59 840 LINE",
"241 840 LINE",
"305 950 LINE"
);
}
);
width = 300;
}
);
unicode = 00CD;
},
{
glyphname = Iogonek;
lastChange = "2015-06-21 20:09:14 +0000";
layers = (
{
anchors = (
{
name = bottom.cap;
position = "{95, -206}";
},
{
name = top.cap;
position = "{95, 780}";
}
);
layerId = "7E0ECC91-5B8E-4D6E-BF07-DE660E899F7B";
name = Light;
paths = (
{
closed = 1;
nodes = (
"144 -172 LINE",
"129 -179 OFFCURVE",
"105 -188 OFFCURVE",
"71 -188 CURVE SMOOTH",
"33 -188 OFFCURVE",
"-2 -170 OFFCURVE",
"-2 -115 CURVE SMOOTH",
"-2 -45 OFFCURVE",
"58 -15 OFFCURVE",
"105 0 CURVE",
"105 780 LINE",
"85 780 LINE",
"85 0 LINE",
"91 13 LINE",
"35 -7 OFFCURVE",
"-20 -38 OFFCURVE",
"-20 -115 CURVE SMOOTH",
"-20 -180 OFFCURVE",
"24 -206 OFFCURVE",
"71 -206 CURVE SMOOTH",
"110 -206 OFFCURVE",
"132 -197 OFFCURVE",
"150 -188 CURVE"
);
}
);
width = 190;
},
{
anchors = (
{
name = bottom.cap;
position = "{150, -216}";
},
{
name = top.cap;
position = "{150, 780}";
}
);
layerId = "8A6A1EBA-5B98-4308-8E77-A32B8A512EB8";
name = Bold;
paths = (
{
closed = 1;
nodes = (
"264 -80 LINE",
"258 -84 OFFCURVE",
"246 -90 OFFCURVE",
"228 -90 CURVE SMOOTH",
"205 -90 OFFCURVE",
"190 -77 OFFCURVE",
"190 -58 CURVE SMOOTH",
"190 -35 OFFCURVE",
"207 -17 OFFCURVE",
"245 0 CURVE",
"245 780 LINE",
"55 780 LINE",
"55 0 LINE",
"96 0 LINE",
"71 -28 OFFCURVE",
"55 -64 OFFCURVE",
"55 -105 CURVE SMOOTH",
"55 -180 OFFCURVE",
"112 -216 OFFCURVE",
"197 -216 CURVE SMOOTH",
"242 -216 OFFCURVE",
"284 -203 OFFCURVE",
"305 -190 CURVE"
);
}
);
width = 300;
}
);
unicode = 012E;
},
{
glyphname = J;
lastChange = "2015-06-21 20:09:14 +0000";
layers = (
{
anchors = (
{
name = bottom.cap;
position = "{213, 0}";
},
{
name = top.cap;
position = "{383, 780}";
}
);
layerId = "7E0ECC91-5B8E-4D6E-BF07-DE660E899F7B";
name = Light;
paths = (
{
closed = 1;
nodes = (
"373 780 LINE",
"373 247 LINE SMOOTH",
"373 100 OFFCURVE",
"335 14 OFFCURVE",
"213 14 CURVE SMOOTH",
"92 14 OFFCURVE",
"53 100 OFFCURVE",
"53 247 CURVE",
"33 247 LINE",
"33 240 LINE SMOOTH",
"33 90 OFFCURVE",
"81 -6 OFFCURVE",
"213 -6 CURVE SMOOTH",
"346 -6 OFFCURVE",
"393 90 OFFCURVE",
"393 240 CURVE SMOOTH",
"393 780 LINE"
);
}
);
width = 470;
},
{
anchors = (
{
name = bottom.cap;
position = "{260, 0}";
},
{
name = top.cap;
position = "{410, 780}";
}
);
layerId = "8A6A1EBA-5B98-4308-8E77-A32B8A512EB8";
name = Bold;
paths = (
{
closed = 1;
nodes = (
"315 780 LINE",
"315 260 LINE SMOOTH",
"315 192 OFFCURVE",
"305 150 OFFCURVE",
"258 150 CURVE SMOOTH",
"211 150 OFFCURVE",
"201 192 OFFCURVE",
"201 270 CURVE",
"21 270 LINE",
"21 240 LINE SMOOTH",
"21 78 OFFCURVE",
"83 -14 OFFCURVE",
"263 -14 CURVE SMOOTH",
"433 -14 OFFCURVE",
"505 78 OFFCURVE",
"505 238 CURVE SMOOTH",
"505 780 LINE"
);
}
);
width = 550;
}
);
unicode = 004A;
},
{
glyphname = K;
lastChange = "2015-06-21 20:09:14 +0000";
layers = (
{
anchors = (
{
name = bottom.cap;
position = "{260, 3}";
},
{
name = top.cap;
position = "{241, 778}";
}
);
layerId = "7E0ECC91-5B8E-4D6E-BF07-DE660E899F7B";
name = Light;
paths = (
{
closed = 1;
nodes = (
"100 780 LINE",
"80 780 LINE",
"80 0 LINE",
"100 0 LINE",
"100 246 LINE",
"227 424 LINE",
"456 0 LINE",
"480 0 LINE",
"239 441 LINE",
"480 780 LINE",
"456 780 LINE",
"100 279 LINE"
);
}
);
width = 518;
},
{
anchors = (
{
name = bottom.cap;
position = "{325, 3}";
},
{
name = top.cap;
position = "{306, 778}";
}
);
layerId = "8A6A1EBA-5B98-4308-8E77-A32B8A512EB8";
name = Bold;
paths = (
{
closed = 1;
nodes = (
"240 780 LINE",
"50 780 LINE",
"50 0 LINE",
"240 0 LINE",
"240 220 LINE",
"293 297 LINE",
"420 0 LINE",
"630 0 LINE",
"416 473 LINE",
"630 780 LINE",
"400 780 LINE",
"240 512 LINE"
);
}
);
width = 645;
}
);
unicode = 004B;
},
{
glyphname = L;
lastChange = "2015-06-21 20:09:14 +0000";
layers = (
{
anchors = (
{
name = bottom.cap;
position = "{265, 0}";
},
{
name = top.cap;
position = "{90, 780}";
},
{
name = topright.cap;
position = "{210, 779}";
}
);
layerId = "7E0ECC91-5B8E-4D6E-BF07-DE660E899F7B";
name = Light;
paths = (
{
closed = 1;
nodes = (
"450 0 LINE",
"450 20 LINE",
"100 20 LINE",
"100 780 LINE",
"80 780 LINE",
"80 0 LINE"
);
}
);
width = 464;
},
{
anchors = (
{
name = bottom.cap;
position = "{282, 0}";
},
{
name = top.cap;
position = "{143, 779}";
},
{
name = topright.cap;
position = "{293, 780}";
}
);
layerId = "8A6A1EBA-5B98-4308-8E77-A32B8A512EB8";
name = Bold;
paths = (
{
closed = 1;
nodes = (
"515 0 LINE",
"515 164 LINE",
"240 164 LINE",
"240 780 LINE",
"50 780 LINE",
"50 0 LINE"
);
}
);
width = 530;
}
);
unicode = 004C;
},
{
glyphname = M;
lastChange = "2015-06-21 20:09:14 +0000";
layers = (
{
anchors = (
{
name = bottom.cap;
position = "{380, 0}";
},
{
name = top.cap;
position = "{380, 780}";
}
);
layerId = "7E0ECC91-5B8E-4D6E-BF07-DE660E899F7B";
name = Light;
paths = (
{
closed = 1;
nodes = (
"663 734 LINE",
"660 561 LINE",
"660 0 LINE",
"680 0 LINE",
"680 780 LINE",
"659 780 LINE",
"380 28 LINE",
"101 780 LINE",
"80 780 LINE",
"80 0 LINE",
"100 0 LINE",
"100 561 LINE",
"97 734 LINE",
"370 0 LINE",
"390 0 LINE"
);
}
);
width = 760;
},
{
anchors = (
{
name = bottom.cap;
position = "{445, 0}";
},
{
name = top.cap;
position = "{445, 780}";
}
);
layerId = "8A6A1EBA-5B98-4308-8E77-A32B8A512EB8";
name = Bold;
paths = (
{
closed = 1;
nodes = (
"655 450 LINE",
"650 300 LINE",
"650 0 LINE",
"840 0 LINE",
"840 780 LINE",
"557 780 LINE",
"445 330 LINE",
"333 780 LINE",
"50 780 LINE",
"50 0 LINE",
"240 0 LINE",
"240 300 LINE",
"235 450 LINE",
"347 0 LINE",
"543 0 LINE"
);
}
);
width = 890;
}
);
unicode = 004D;
},
{
glyphname = N;
lastChange = "2015-06-21 20:09:14 +0000";
layers = (
{
anchors = (
{
name = bottom.cap;
position = "{320, 0}";
},
{
name = top.cap;
position = "{320, 780}";
}
);
layerId = "7E0ECC91-5B8E-4D6E-BF07-DE660E899F7B";
name = Light;
paths = (
{
closed = 1;
nodes = (
"560 780 LINE",
"540 780 LINE",
"540 180 LINE",
"541 29 LINE",
"105 780 LINE",
"80 780 LINE",
"80 0 LINE",
"100 0 LINE",
"100 600 LINE",
"99 751 LINE",
"535 0 LINE",
"560 0 LINE"
);
}
);
width = 640;
},
{
anchors = (
{
name = bottom.cap;
position = "{345, 0}";
},
{
name = top.cap;
position = "{345, 780}";
}
);
layerId = "8A6A1EBA-5B98-4308-8E77-A32B8A512EB8";
name = Bold;
paths = (
{
closed = 1;
nodes = (
"640 780 LINE",
"460 780 LINE",
"460 500 LINE",
"465 350 LINE",
"250 780 LINE",
"50 780 LINE",
"50 0 LINE",
"230 0 LINE",
"230 280 LINE",
"225 430 LINE",
"440 0 LINE",
"640 0 LINE"
);
}
);
width = 690;
}
);
unicode = 004E;
},
{
glyphname = O;
lastChange = "2015-06-24 08:35:00 +0000";
layers = (
{
anchors = (
{
name = bottom.cap;
position = "{315, 0}";
},
{
name = top.cap;
position = "{315, 779}";
}
);
layerId = "7E0ECC91-5B8E-4D6E-BF07-DE660E899F7B";
name = Light;
paths = (
{
closed = 1;
nodes = (
"480 -6 OFFCURVE",
"565 100 OFFCURVE",
"565 370 CURVE SMOOTH",
"565 410 LINE SMOOTH",
"565 680 OFFCURVE",
"480 786 OFFCURVE",
"315 786 CURVE SMOOTH",
"150 786 OFFCURVE",
"65 680 OFFCURVE",
"65 410 CURVE SMOOTH",
"65 370 LINE SMOOTH",
"65 100 OFFCURVE",
"150 -6 OFFCURVE",
"315 -6 CURVE SMOOTH"
);
},
{
closed = 1;
nodes = (
"312 14 LINE SMOOTH",
"164 14 OFFCURVE",
"85 112 OFFCURVE",
"85 370 CURVE SMOOTH",
"85 410 LINE SMOOTH",
"85 668 OFFCURVE",
"164 766 OFFCURVE",
"312 766 CURVE SMOOTH",
"318 766 LINE SMOOTH",
"466 766 OFFCURVE",
"545 668 OFFCURVE",
"545 410 CURVE SMOOTH",
"545 370 LINE SMOOTH",
"545 112 OFFCURVE",
"466 14 OFFCURVE",
"318 14 CURVE SMOOTH"
);
}
);
width = 630;
},
{
anchors = (
{
name = bottom.cap;
position = "{340, 0}";
},
{
name = top.cap;
position = "{340, 780}";
}
);
layerId = "8A6A1EBA-5B98-4308-8E77-A32B8A512EB8";
name = Bold;
paths = (
{
closed = 1;
nodes = (
"550 -14 OFFCURVE",
"647 100 OFFCURVE",
"647 370 CURVE SMOOTH",
"647 410 LINE SMOOTH",
"647 680 OFFCURVE",
"550 794 OFFCURVE",
"340 794 CURVE SMOOTH",
"130 794 OFFCURVE",
"33 680 OFFCURVE",
"33 410 CURVE SMOOTH",
"33 370 LINE SMOOTH",
"33 100 OFFCURVE",
"130 -14 OFFCURVE",
"340 -14 CURVE SMOOTH"
);
},
{
closed = 1;
nodes = (
"335 150 LINE SMOOTH",
"245 150 OFFCURVE",
"226 235 OFFCURVE",
"226 370 CURVE SMOOTH",
"226 410 LINE SMOOTH",
"226 545 OFFCURVE",
"245 630 OFFCURVE",
"335 630 CURVE SMOOTH",
"345 630 LINE SMOOTH",
"435 630 OFFCURVE",
"454 545 OFFCURVE",
"454 410 CURVE SMOOTH",
"454 370 LINE SMOOTH",
"454 235 OFFCURVE",
"435 150 OFFCURVE",
"345 150 CURVE SMOOTH"
);
}
);
width = 680;
}
);
unicode = 004F;
},
{
glyphname = P;
lastChange = "2015-06-21 20:09:14 +0000";
layers = (
{
anchors = (
{
name = bottom.cap;
position = "{90, -0}";
},
{
name = top.cap;
position = "{275, 778}";
}
);
layerId = "7E0ECC91-5B8E-4D6E-BF07-DE660E899F7B";
name = Light;
paths = (
{
closed = 1;
nodes = (
"100 340 LINE",
"273 340 LINE SMOOTH",
"379 340 OFFCURVE",
"494 383 OFFCURVE",
"494 550 CURVE SMOOTH",
"494 570 LINE SMOOTH",
"494 737 OFFCURVE",
"379 780 OFFCURVE",
"273 780 CURVE SMOOTH",
"80 780 LINE",
"80 0 LINE",
"100 0 LINE"
);
},
{
closed = 1;
nodes = (
"100 360 LINE",
"100 760 LINE",
"272 760 LINE SMOOTH",
"354 760 OFFCURVE",
"473 734 OFFCURVE",
"473 569 CURVE SMOOTH",
"473 551 LINE SMOOTH",
"473 386 OFFCURVE",
"354 360 OFFCURVE",
"272 360 CURVE SMOOTH"
);
}
);
width = 544;
},
{
anchors = (
{
name = bottom.cap;
position = "{145, -0}";
},
{
name = top.cap;
position = "{297, 780}";
}
);
layerId = "8A6A1EBA-5B98-4308-8E77-A32B8A512EB8";
name = Bold;
paths = (
{
closed = 1;
nodes = (
"240 268 LINE",
"319 268 LINE SMOOTH",
"451 268 OFFCURVE",
"600 298 OFFCURVE",
"600 514 CURVE SMOOTH",
"600 534 LINE SMOOTH",
"600 750 OFFCURVE",
"440 780 OFFCURVE",
"308 780 CURVE SMOOTH",
"50 780 LINE",
"50 0 LINE",
"240 0 LINE"
);
},
{
closed = 1;
nodes = (
"240 432 LINE",
"240 616 LINE",
"327 616 LINE SMOOTH",
"364 616 OFFCURVE",
"408 602 OFFCURVE",
"408 528 CURVE SMOOTH",
"408 520 LINE SMOOTH",
"408 446 OFFCURVE",
"364 432 OFFCURVE",
"327 432 CURVE SMOOTH"
);
}
);
width = 620;
}
);
unicode = 0050;
},
{
glyphname = Q;
lastChange = "2015-06-21 20:09:14 +0000";
layers = (
{
anchors = (
{
name = bottom.cap;
position = "{315, -100}";
},
{
name = top.cap;
position = "{315, 779}";
}
);
layerId = "7E0ECC91-5B8E-4D6E-BF07-DE660E899F7B";
name = Light;
paths = (
{
closed = 1;
nodes = (
"404 7 LINE",
"510 43 OFFCURVE",
"565 154 OFFCURVE",
"565 370 CURVE SMOOTH",
"565 410 LINE SMOOTH",
"565 680 OFFCURVE",
"480 786 OFFCURVE",
"315 786 CURVE SMOOTH",
"150 786 OFFCURVE",
"65 680 OFFCURVE",
"65 410 CURVE SMOOTH",
"65 370 LINE SMOOTH",
"65 100 OFFCURVE",
"150 -6 OFFCURVE",
"315 -6 CURVE SMOOTH",
"341 -6 OFFCURVE",
"364 -3 OFFCURVE",
"386 2 CURVE",
"425 -100 LINE",
"445 -100 LINE"
);
},
{
closed = 1;
nodes = (
"330 205 LINE",
"310 205 LINE",
"382 13 LINE",
"385 23 LINE",
"364 16 OFFCURVE",
"342 14 OFFCURVE",
"318 14 CURVE SMOOTH",
"312 14 LINE SMOOTH",
"164 14 OFFCURVE",
"85 112 OFFCURVE",
"85 370 CURVE SMOOTH",
"85 410 LINE SMOOTH",
"85 668 OFFCURVE",
"164 766 OFFCURVE",
"312 766 CURVE SMOOTH",
"318 766 LINE SMOOTH",
"466 766 OFFCURVE",
"545 668 OFFCURVE",
"545 410 CURVE SMOOTH",
"545 370 LINE SMOOTH",
"545 163 OFFCURVE",
"494 59 OFFCURVE",
"397 26 CURVE"
);
}
);
width = 630;
},
{
anchors = (
{
name = bottom.cap;
position = "{340, -100}";
},
{
name = top.cap;
position = "{340, 780}";
}
);
layerId = "8A6A1EBA-5B98-4308-8E77-A32B8A512EB8";
name = Bold;
paths = (
{
closed = 1;
nodes = (
"502 19 LINE",
"600 71 OFFCURVE",
"647 183 OFFCURVE",
"647 370 CURVE SMOOTH",
"647 410 LINE SMOOTH",
"647 680 OFFCURVE",
"550 794 OFFCURVE",
"340 794 CURVE SMOOTH",
"130 794 OFFCURVE",
"33 680 OFFCURVE",
"33 410 CURVE SMOOTH",
"33 370 LINE SMOOTH",
"33 100 OFFCURVE",
"130 -14 OFFCURVE",
"340 -14 CURVE SMOOTH",
"350 -14 OFFCURVE",
"361 -13 OFFCURVE",
"371 -13 CURVE",
"405 -100 LINE",
"550 -100 LINE"
);
},
{
closed = 1;
nodes = (
"400 273 LINE",
"260 273 LINE",
"336 76 LINE",
"382 159 LINE",
"371 154 OFFCURVE",
"355 149 OFFCURVE",
"344 149 CURVE SMOOTH",
"334 149 LINE SMOOTH",
"245 149 OFFCURVE",
"226 234 OFFCURVE",
"226 370 CURVE SMOOTH",
"226 410 LINE SMOOTH",
"226 545 OFFCURVE",
"245 630 OFFCURVE",
"335 630 CURVE SMOOTH",
"345 630 LINE SMOOTH",
"435 630 OFFCURVE",
"454 545 OFFCURVE",
"454 410 CURVE SMOOTH",
"454 370 LINE SMOOTH",
"454 297 OFFCURVE",
"448 238 OFFCURVE",
"429 200 CURVE"
);
}
);
width = 680;
}
);
unicode = 0051;
},
{
glyphname = R;
lastChange = "2015-06-21 20:09:14 +0000";
layers = (
{
anchors = (
{
name = bottom.cap;
position = "{270, 0}";
},
{
name = top.cap;
position = "{270, 780}";
}
);
layerId = "7E0ECC91-5B8E-4D6E-BF07-DE660E899F7B";
name = Light;
paths = (
{
closed = 1;
nodes = (
"328 353 LINE SMOOTH",
"472 0 LINE",
"494 0 LINE",
"348 357 LINE"
);
},
{
closed = 1;
nodes = (
"100 340 LINE",
"273 340 LINE SMOOTH",
"414 340 OFFCURVE",
"494 413 OFFCURVE",
"494 550 CURVE SMOOTH",
"494 570 LINE SMOOTH",
"494 737 OFFCURVE",
"379 780 OFFCURVE",
"273 780 CURVE SMOOTH",
"80 780 LINE",
"80 0 LINE",
"100 0 LINE"
);
},
{
closed = 1;
nodes = (
"100 360 LINE",
"100 760 LINE",
"272 760 LINE SMOOTH",
"354 760 OFFCURVE",
"473 734 OFFCURVE",
"473 569 CURVE SMOOTH",
"473 551 LINE SMOOTH",
"473 386 OFFCURVE",
"354 360 OFFCURVE",
"272 360 CURVE SMOOTH"
);
}
);
width = 553;
},
{
anchors = (
{
name = bottom.cap;
position = "{316, 0}";
},
{
name = top.cap;
position = "{302, 780}";
}
);
layerId = "8A6A1EBA-5B98-4308-8E77-A32B8A512EB8";
name = Bold;
paths = (
{
closed = 1;
nodes = (
"264 345 LINE",
"395 0 LINE",
"600 0 LINE",
"449 371 LINE"
);
},
{
closed = 1;
nodes = (
"240 268 LINE",
"319 268 LINE SMOOTH",
"451 268 OFFCURVE",
"600 298 OFFCURVE",
"600 514 CURVE SMOOTH",
"600 534 LINE SMOOTH",
"600 750 OFFCURVE",
"451 780 OFFCURVE",
"319 780 CURVE SMOOTH",
"50 780 LINE",
"50 0 LINE",
"240 0 LINE"
);
},
{
closed = 1;
nodes = (
"240 432 LINE",
"240 616 LINE",
"327 616 LINE SMOOTH",
"364 616 OFFCURVE",
"408 602 OFFCURVE",
"408 528 CURVE SMOOTH",
"408 520 LINE SMOOTH",
"408 446 OFFCURVE",
"364 432 OFFCURVE",
"327 432 CURVE SMOOTH"
);
}
);
width = 635;
}
);
unicode = 0052;
},
{
glyphname = S;
lastChange = "2015-06-21 20:09:14 +0000";
layers = (
{
anchors = (
{
name = bottom.cap;
position = "{290, 0}";
},
{
name = cedilla.cap;
position = "{290, 0}";
},
{
name = top.cap;
position = "{290, 780}";
}
);
layerId = "7E0ECC91-5B8E-4D6E-BF07-DE660E899F7B";
name = Light;
paths = (
{
closed = 1;
nodes = (
"286 395 CURVE SMOOTH",
"445 375 OFFCURVE",
"510 321 OFFCURVE",
"510 207 CURVE SMOOTH",
"510 197 LINE SMOOTH",
"510 81 OFFCURVE",
"417 14 OFFCURVE",
"293 14 CURVE SMOOTH",
"287 14 LINE SMOOTH",
"149 14 OFFCURVE",
"70 94 OFFCURVE",
"70 250 CURVE",
"50 250 LINE",
"50 240 LINE SMOOTH",
"50 94 OFFCURVE",
"129 -6 OFFCURVE",
"290 -6 CURVE SMOOTH",
"425 -6 OFFCURVE",
"530 66 OFFCURVE",
"530 201 CURVE SMOOTH",
"530 211 LINE SMOOTH",
"530 322 OFFCURVE",
"467 394 OFFCURVE",
"296 414 CURVE SMOOTH",
"136 433 OFFCURVE",
"77 485 OFFCURVE",
"77 585 CURVE SMOOTH",
"77 595 LINE SMOOTH",
"77 698 OFFCURVE",
"174 766 OFFCURVE",
"287 766 CURVE SMOOTH",
"293 766 LINE SMOOTH",
"434 766 OFFCURVE",
"505 694 OFFCURVE",
"505 520 CURVE",
"525 520 LINE",
"525 545 LINE SMOOTH",
"525 694 OFFCURVE",
"452 786 OFFCURVE",
"289 786 CURVE SMOOTH",
"159 786 OFFCURVE",
"55 712 OFFCURVE",
"55 590 CURVE SMOOTH",
"55 580 LINE SMOOTH",
"55 481 OFFCURVE",
"116 416 OFFCURVE"
);
}
);
width = 580;
},
{
anchors = (
{
name = bottom.cap;
position = "{320, 0}";
},
{
name = cedilla.cap;
position = "{320, 0}";
},
{
name = top.cap;
position = "{320, 780}";
}
);
layerId = "8A6A1EBA-5B98-4308-8E77-A32B8A512EB8";
name = Bold;
paths = (
{
closed = 1;
nodes = (
"291 313 CURVE SMOOTH",
"396 299 OFFCURVE",
"417 272 OFFCURVE",
"417 227 CURVE SMOOTH",
"417 223 LINE SMOOTH",
"417 185 OFFCURVE",
"390 150 OFFCURVE",
"325 150 CURVE SMOOTH",
"315 150 LINE SMOOTH",
"250 150 OFFCURVE",
"220 184 OFFCURVE",
"220 270 CURVE",
"30 270 LINE",
"30 261 LINE SMOOTH",
"30 65 OFFCURVE",
"130 -14 OFFCURVE",
"320 -14 CURVE SMOOTH",
"511 -14 OFFCURVE",
"610 75 OFFCURVE",
"610 228 CURVE SMOOTH",
"610 239 LINE SMOOTH",
"610 392 OFFCURVE",
"519 446 OFFCURVE",
"349 469 CURVE SMOOTH",
"244 483 OFFCURVE",
"228 507 OFFCURVE",
"228 555 CURVE SMOOTH",
"228 559 LINE SMOOTH",
"228 599 OFFCURVE",
"255 630 OFFCURVE",
"310 630 CURVE SMOOTH",
"320 630 LINE SMOOTH",
"390 630 OFFCURVE",
"415 588 OFFCURVE",
"415 500 CURVE",
"605 500 LINE",
"605 521 LINE SMOOTH",
"605 710 OFFCURVE",
"517 794 OFFCURVE",
"320 794 CURVE SMOOTH",
"132 794 OFFCURVE",
"35 699 OFFCURVE",
"35 554 CURVE SMOOTH",
"35 543 LINE SMOOTH",
"35 390 OFFCURVE",
"121 336 OFFCURVE"
);
}
);
width = 640;
}
);
unicode = 0053;
},
{
glyphname = T;
lastChange = "2015-06-21 20:09:14 +0000";
layers = (
{
anchors = (
{
name = bottom.cap;
position = "{245, 0}";
},
{
name = cedilla.cap;
position = "{245, 0}";
},
{
name = top.cap;
position = "{245, 780}";
}
);
layerId = "7E0ECC91-5B8E-4D6E-BF07-DE660E899F7B";
name = Light;
paths = (
{
closed = 1;
nodes = (
"255 760 LINE",
"465 760 LINE",
"465 780 LINE",
"25 780 LINE",
"25 760 LINE",
"235 760 LINE",
"235 0 LINE",
"255 0 LINE"
);
}
);
width = 490;
},
{
anchors = (
{
name = bottom.cap;
position = "{285, 0}";
},
{
name = cedilla.cap;
position = "{285, 0}";
},
{
name = top.cap;
position = "{285, 780}";
}
);
layerId = "8A6A1EBA-5B98-4308-8E77-A32B8A512EB8";
name = Bold;
paths = (
{
closed = 1;
nodes = (
"380 616 LINE",
"555 616 LINE",
"555 780 LINE",
"15 780 LINE",
"15 616 LINE",
"190 616 LINE",
"190 0 LINE",
"380 0 LINE"
);
}
);
width = 570;
}
);
unicode = 0054;
},
{
glyphname = U;
lastChange = "2015-06-21 20:09:14 +0000";
layers = (
{
anchors = (
{
name = bottom.cap;
position = "{310, 0}";
},
{
name = top.cap;
position = "{310, 780}";
}
);
layerId = "7E0ECC91-5B8E-4D6E-BF07-DE660E899F7B";
name = Light;
paths = (
{
closed = 1;
nodes = (
"310 -6 CURVE SMOOTH",
"450 -6 OFFCURVE",
"543 50 OFFCURVE",
"543 243 CURVE SMOOTH",
"543 780 LINE",
"523 780 LINE",
"523 246 LINE SMOOTH",
"523 65 OFFCURVE",
"445 14 OFFCURVE",
"310 14 CURVE SMOOTH",
"175 14 OFFCURVE",
"97 65 OFFCURVE",
"97 246 CURVE SMOOTH",
"97 780 LINE",
"77 780 LINE",
"77 243 LINE SMOOTH",
"77 50 OFFCURVE",
"170 -6 OFFCURVE"
);
}
);
width = 620;
},
{
anchors = (
{
name = bottom.cap;
position = "{335, 0}";
},
{
name = top.cap;
position = "{335, 780}";
}
);
layerId = "8A6A1EBA-5B98-4308-8E77-A32B8A512EB8";
name = Bold;
paths = (
{
closed = 1;
nodes = (
"335 -14 CURVE SMOOTH",
"561 -14 OFFCURVE",
"625 84 OFFCURVE",
"625 248 CURVE SMOOTH",
"625 780 LINE",
"435 780 LINE",
"435 253 LINE SMOOTH",
"435 191 OFFCURVE",
"418 150 OFFCURVE",
"335 150 CURVE SMOOTH",
"252 150 OFFCURVE",
"235 191 OFFCURVE",
"235 253 CURVE SMOOTH",
"235 780 LINE",
"45 780 LINE",
"45 248 LINE SMOOTH",
"45 84 OFFCURVE",
"109 -14 OFFCURVE"
);
}
);
width = 670;
}
);
unicode = 0055;
},
{
glyphname = Uogonek;
lastChange = "2015-06-21 20:09:14 +0000";
layers = (
{
layerId = "7E0ECC91-5B8E-4D6E-BF07-DE660E899F7B";
name = Light;
paths = (
{
closed = 1;
nodes = (
"420 -172 LINE",
"405 -179 OFFCURVE",
"381 -188 OFFCURVE",
"347 -188 CURVE SMOOTH",
"309 -188 OFFCURVE",
"274 -170 OFFCURVE",
"274 -115 CURVE SMOOTH",
"274 -45 OFFCURVE",
"337 -8 OFFCURVE",
"381 0 CURVE SMOOTH",
"478 18 OFFCURVE",
"543 85 OFFCURVE",
"543 243 CURVE SMOOTH",
"543 780 LINE",
"523 780 LINE",
"523 246 LINE SMOOTH",
"523 65 OFFCURVE",
"445 14 OFFCURVE",
"310 14 CURVE SMOOTH",
"175 14 OFFCURVE",
"97 65 OFFCURVE",
"97 246 CURVE SMOOTH",
"97 780 LINE",
"77 780 LINE",
"77 243 LINE SMOOTH",
"77 50 OFFCURVE",
"170 -6 OFFCURVE",
"310 -6 CURVE SMOOTH",
"332 -6 LINE",
"328 -3 LINE",
"288 -24 OFFCURVE",
"256 -57 OFFCURVE",
"256 -115 CURVE SMOOTH",
"256 -180 OFFCURVE",
"300 -206 OFFCURVE",
"347 -206 CURVE SMOOTH",
"386 -206 OFFCURVE",
"408 -197 OFFCURVE",
"426 -188 CURVE"
);
}
);
width = 620;
},
{
layerId = "8A6A1EBA-5B98-4308-8E77-A32B8A512EB8";
name = Bold;
paths = (
{
closed = 1;
nodes = (
"481 -80 LINE",
"475 -84 OFFCURVE",
"463 -90 OFFCURVE",
"445 -90 CURVE SMOOTH",
"422 -90 OFFCURVE",
"407 -77 OFFCURVE",
"407 -58 CURVE SMOOTH",
"407 -35 OFFCURVE",
"422 -10 OFFCURVE",
"462 0 CURVE SMOOTH",
"583 30 OFFCURVE",
"625 120 OFFCURVE",
"625 248 CURVE SMOOTH",
"625 780 LINE",
"435 780 LINE",
"435 253 LINE SMOOTH",
"435 191 OFFCURVE",
"418 150 OFFCURVE",
"335 150 CURVE SMOOTH",
"252 150 OFFCURVE",
"235 191 OFFCURVE",
"235 253 CURVE SMOOTH",
"235 780 LINE",
"45 780 LINE",
"45 248 LINE SMOOTH",
"45 83 OFFCURVE",
"109 -14 OFFCURVE",
"334 -14 CURVE SMOOTH",
"388 -14 LINE",
"341 26 LINE",
"299 -5 OFFCURVE",
"272 -50 OFFCURVE",
"272 -105 CURVE SMOOTH",
"272 -180 OFFCURVE",
"329 -216 OFFCURVE",
"414 -216 CURVE SMOOTH",
"459 -216 OFFCURVE",
"501 -203 OFFCURVE",
"522 -190 CURVE"
);
}
);
width = 670;
}
);
unicode = 0172;
},
{
glyphname = V;
lastChange = "2015-06-21 20:09:14 +0000";
layers = (
{
anchors = (
{
name = bottom.cap;
position = "{295, 0}";
},
{
name = top.cap;
position = "{295, 770}";
}
);
layerId = "7E0ECC91-5B8E-4D6E-BF07-DE660E899F7B";
name = Light;
paths = (
{
closed = 1;
nodes = (
"305 -10 LINE",
"555 780 LINE",
"534 780 LINE",
"295 20 LINE",
"56 780 LINE",
"35 780 LINE",
"285 -10 LINE"
);
}
);
width = 590;
},
{
anchors = (
{
name = bottom.cap;
position = "{330, 0}";
},
{
name = top.cap;
position = "{325, 782}";
}
);
layerId = "8A6A1EBA-5B98-4308-8E77-A32B8A512EB8";
name = Bold;
paths = (
{
closed = 1;
nodes = (
"455 0 LINE",
"641 780 LINE",
"437 780 LINE",
"325 220 LINE",
"212 780 LINE",
"9 780 LINE",
"195 0 LINE"
);
}
);
width = 650;
}
);
unicode = 0056;
},
{
glyphname = W;
lastChange = "2015-06-21 20:09:14 +0000";
layers = (
{
anchors = (
{
name = bottom.cap;
position = "{430, 0}";
},
{
name = top.cap;
position = "{430, 780}";
}
);
layerId = "7E0ECC91-5B8E-4D6E-BF07-DE660E899F7B";
name = Light;
paths = (
{
closed = 1;
nodes = (
"633 0 LINE",
"655 0 LINE",
"822 780 LINE",
"801 780 LINE",
"643 33 LINE",
"440 780 LINE",
"420 780 LINE",
"217 33 LINE",
"59 780 LINE",
"38 780 LINE",
"205 0 LINE",
"227 0 LINE",
"430 747 LINE"
);
}
);
width = 860;
},
{
anchors = (
{
name = bottom.cap;
position = "{475, 0}";
},
{
name = top.cap;
position = "{475, 780}";
}
);
layerId = "8A6A1EBA-5B98-4308-8E77-A32B8A512EB8";
name = Bold;
paths = (
{
closed = 1;
nodes = (
"572 0 LINE",
"814 0 LINE",
"938 780 LINE",
"740 780 LINE",
"680 262 LINE",
"592 780 LINE",
"358 780 LINE",
"270 262 LINE",
"210 780 LINE",
"12 780 LINE",
"136 0 LINE",
"377 0 LINE",
"475 562 LINE"
);
}
);
width = 950;
}
);
unicode = 0057;
},
{
glyphname = X;
lastChange = "2015-06-21 20:09:14 +0000";
layers = (
{
anchors = (
{
name = bottom.cap;
position = "{290, 0}";
},
{
name = top.cap;
position = "{290, 780}";
}
);
layerId = "7E0ECC91-5B8E-4D6E-BF07-DE660E899F7B";
name = Light;
paths = (
{
closed = 1;
nodes = (
"28 0 LINE",
"52 0 LINE",
"290 378 LINE",
"528 0 LINE",
"552 0 LINE",
"303 395 LINE",
"552 780 LINE",
"528 780 LINE",
"290 411 LINE",
"52 780 LINE",
"28 780 LINE",
"277 395 LINE"
);
}
);
width = 580;
},
{
anchors = (
{
name = bottom.cap;
position = "{330, 0}";
},
{
name = top.cap;
position = "{330, 780}";
}
);
layerId = "8A6A1EBA-5B98-4308-8E77-A32B8A512EB8";
name = Bold;
paths = (
{
closed = 1;
nodes = (
"15 0 LINE",
"225 0 LINE",
"330 265 LINE",
"435 0 LINE",
"645 0 LINE",
"464 413 LINE",
"645 780 LINE",
"425 780 LINE",
"330 542 LINE",
"235 780 LINE",
"15 780 LINE",
"195 413 LINE"
);
}
);
width = 660;
}
);
unicode = 0058;
},
{
glyphname = Y;
lastChange = "2015-06-21 20:09:14 +0000";
layers = (
{
anchors = (
{
name = bottom.cap;
position = "{265, 0}";
},
{
name = top.cap;
position = "{265, 780}";
}
);
layerId = "7E0ECC91-5B8E-4D6E-BF07-DE660E899F7B";
name = Light;
paths = (
{
closed = 1;
nodes = (
"275 235 LINE",
"515 780 LINE",
"493 780 LINE",
"265 259 LINE",
"37 780 LINE",
"15 780 LINE",
"255 235 LINE",
"255 0 LINE",
"275 0 LINE"
);
}
);
width = 530;
},
{
anchors = (
{
name = bottom.cap;
position = "{320, 0}";
},
{
name = top.cap;
position = "{320, 780}";
}
);
layerId = "8A6A1EBA-5B98-4308-8E77-A32B8A512EB8";
name = Bold;
paths = (
{
closed = 1;
nodes = (
"415 240 LINE",
"636 780 LINE",
"428 780 LINE",
"320 474 LINE",
"212 780 LINE",
"4 780 LINE",
"225 240 LINE",
"225 0 LINE",
"415 0 LINE"
);
}
);
width = 640;
}
);
unicode = 0059;
},
{
glyphname = Z;
lastChange = "2015-06-21 20:09:14 +0000";
layers = (
{
anchors = (
{
name = bottom.cap;
position = "{275, 0}";
},
{
name = top.cap;
position = "{275, 780}";
}
);
layerId = "7E0ECC91-5B8E-4D6E-BF07-DE660E899F7B";
name = Light;
paths = (
{
closed = 1;
nodes = (
"40 15 LINE",
"40 0 LINE",
"510 0 LINE",
"510 20 LINE",
"180 20 LINE",
"65 19 LINE",
"500 765 LINE",
"500 780 LINE",
"50 780 LINE",
"50 760 LINE",
"360 760 LINE",
"475 761 LINE"
);
}
);
width = 550;
},
{
anchors = (
{
name = bottom.cap;
position = "{305, 0}";
},
{
name = top.cap;
position = "{305, 780}";
}
);
layerId = "8A6A1EBA-5B98-4308-8E77-A32B8A512EB8";
name = Bold;
paths = (
{
closed = 1;
nodes = (
"40 130 LINE",
"40 0 LINE",
"570 0 LINE",
"570 164 LINE",
"420 164 LINE",
"272 160 LINE",
"560 650 LINE",
"560 780 LINE",
"50 780 LINE",
"50 616 LINE",
"180 616 LINE",
"328 620 LINE"
);
}
);
width = 610;
}
);
unicode = 005A;
},
{
glyphname = AE;
lastChange = "2015-06-21 20:09:14 +0000";
layers = (
{
anchors = (
{
name = bottom.cap;
position = "{400, 0}";
},
{
name = top.cap;
position = "{400, 780}";
}
);
layerId = "7E0ECC91-5B8E-4D6E-BF07-DE660E899F7B";
name = Light;
paths = (
{
closed = 1;
nodes = (
"325 780 LINE",
"30 0 LINE",
"51 0 LINE",
"138 230 LINE",
"420 230 LINE",
"458 0 LINE",
"770 0 LINE",
"770 20 LINE",
"476 20 LINE",
"416 388 LINE",
"720 388 LINE",
"720 408 LINE",
"412 408 LINE",
"355 760 LINE",
"770 760 LINE",
"770 780 LINE"
);
},
{
closed = 1;
nodes = (
"337 757 LINE",
"417 250 LINE",
"146 250 LINE"
);
}
);
width = 820;
},
{
anchors = (
{
name = bottom.cap;
position = "{432, 0}";
},
{
name = top.cap;
position = "{432, 780}";
}
);
layerId = "8A6A1EBA-5B98-4308-8E77-A32B8A512EB8";
name = Bold;
paths = (
{
closed = 1;
nodes = (
"271 780 LINE",
"4 0 LINE",
"208 0 LINE",
"256 158 LINE",
"417 158 LINE",
"433 0 LINE",
"860 0 LINE",
"860 164 LINE",
"614 164 LINE",
"593 316 LINE",
"810 316 LINE",
"810 480 LINE",
"571 480 LINE",
"553 616 LINE",
"860 616 LINE",
"860 780 LINE"
);
},
{
closed = 1;
nodes = (
"378 560 LINE",
"401 322 LINE",
"306 322 LINE"
);
}
);
width = 900;
}
);
unicode = 00C6;
},
{
glyphname = Eth;
lastChange = "2015-06-27 07:16:33 +0000";
layers = (
{
anchors = (
{
name = bottom.cap;
position = "{325, 0}";
},
{
name = top.cap;
position = "{325, 780}";
}
);
components = (
{
name = D;
transform = "{1, 0, 0, 1, 55, 0}";
}
);
layerId = "7E0ECC91-5B8E-4D6E-BF07-DE660E899F7B";
name = Light;
paths = (
{
closed = 1;
nodes = (
"385 408 LINE",
"25 408 LINE",
"25 388 LINE",
"385 388 LINE"
);
}
);
width = 670;
},
{
anchors = (
{
name = bottom.cap;
position = "{380, 0}";
},
{
name = top.cap;
position = "{380, 780}";
}
);
components = (
{
name = D;
transform = "{1, 0, 0, 1, 60, 0}";
}
);
layerId = "8A6A1EBA-5B98-4308-8E77-A32B8A512EB8";
name = Bold;
paths = (
{
closed = 1;
nodes = (
"450 470 LINE",
"10 470 LINE",
"10 330 LINE",
"450 330 LINE"
);
}
);
width = 730;
}
);
unicode = 00D0;
},
{
glyphname = Oslash;
lastChange = "2015-06-21 20:09:14 +0000";
layers = (
{
anchors = (
{
name = bottom.cap;
position = "{315, 0}";
},
{
name = top.cap;
position = "{315, 779}";
}
);
layerId = "7E0ECC91-5B8E-4D6E-BF07-DE660E899F7B";
name = Light;
paths = (
{
closed = 1;
nodes = (
"88 0 LINE",
"565 780 LINE",
"542 780 LINE",
"65 0 LINE"
);
},
{
closed = 1;
nodes = (
"480 -6 OFFCURVE",
"565 100 OFFCURVE",
"565 370 CURVE SMOOTH",
"565 410 LINE SMOOTH",
"565 680 OFFCURVE",
"480 786 OFFCURVE",
"315 786 CURVE SMOOTH",
"150 786 OFFCURVE",
"65 680 OFFCURVE",
"65 410 CURVE SMOOTH",
"65 370 LINE SMOOTH",
"65 100 OFFCURVE",
"150 -6 OFFCURVE",
"315 -6 CURVE SMOOTH"
);
},
{
closed = 1;
nodes = (
"312 14 LINE SMOOTH",
"164 14 OFFCURVE",
"85 112 OFFCURVE",
"85 370 CURVE SMOOTH",
"85 410 LINE SMOOTH",
"85 668 OFFCURVE",
"164 766 OFFCURVE",
"312 766 CURVE SMOOTH",
"318 766 LINE SMOOTH",
"466 766 OFFCURVE",
"545 668 OFFCURVE",
"545 410 CURVE SMOOTH",
"545 370 LINE SMOOTH",
"545 112 OFFCURVE",
"466 14 OFFCURVE",
"318 14 CURVE SMOOTH"
);
}
);
width = 626;
},
{
anchors = (
{
name = bottom.cap;
position = "{340, 0}";
},
{
name = top.cap;
position = "{340, 780}";
}
);
layerId = "8A6A1EBA-5B98-4308-8E77-A32B8A512EB8";
name = Bold;
paths = (
{
closed = 1;
nodes = (
"143 0 LINE",
"647 780 LINE",
"537 780 LINE",
"33 0 LINE"
);
},
{
closed = 1;
nodes = (
"550 -14 OFFCURVE",
"647 100 OFFCURVE",
"647 370 CURVE SMOOTH",
"647 410 LINE SMOOTH",
"647 680 OFFCURVE",
"550 794 OFFCURVE",
"340 794 CURVE SMOOTH",
"130 794 OFFCURVE",
"33 680 OFFCURVE",
"33 410 CURVE SMOOTH",
"33 370 LINE SMOOTH",
"33 100 OFFCURVE",
"130 -14 OFFCURVE",
"340 -14 CURVE SMOOTH"
);
},
{
closed = 1;
nodes = (
"335 150 LINE SMOOTH",
"245 150 OFFCURVE",
"226 235 OFFCURVE",
"226 370 CURVE SMOOTH",
"226 410 LINE SMOOTH",
"226 545 OFFCURVE",
"245 630 OFFCURVE",
"335 630 CURVE SMOOTH",
"345 630 LINE SMOOTH",
"435 630 OFFCURVE",
"454 545 OFFCURVE",
"454 410 CURVE SMOOTH",
"454 370 LINE SMOOTH",
"454 235 OFFCURVE",
"435 150 OFFCURVE",
"345 150 CURVE SMOOTH"
);
}
);
width = 680;
}
);
unicode = 00D8;
},
{
glyphname = Thorn;
lastChange = "2015-06-21 20:09:14 +0000";
layers = (
{
anchors = (
{
name = bottom.cap;
position = "{90, -0}";
},
{
name = top.cap;
position = "{90, 778}";
}
);
layerId = "7E0ECC91-5B8E-4D6E-BF07-DE660E899F7B";
name = Light;
paths = (
{
closed = 1;
nodes = (
"100 780 LINE",
"80 780 LINE",
"80 0 LINE",
"100 0 LINE",
"100 170 LINE",
"273 170 LINE SMOOTH",
"379 170 OFFCURVE",
"494 213 OFFCURVE",
"494 380 CURVE SMOOTH",
"494 400 LINE SMOOTH",
"494 567 OFFCURVE",
"379 610 OFFCURVE",
"273 610 CURVE SMOOTH",
"100 610 LINE"
);
},
{
closed = 1;
nodes = (
"100 190 LINE",
"100 590 LINE",
"272 590 LINE SMOOTH",
"354 590 OFFCURVE",
"473 564 OFFCURVE",
"473 399 CURVE SMOOTH",
"473 381 LINE SMOOTH",
"473 216 OFFCURVE",
"354 190 OFFCURVE",
"272 190 CURVE SMOOTH"
);
}
);
width = 544;
},
{
anchors = (
{
name = bottom.cap;
position = "{145, -0}";
},
{
name = top.cap;
position = "{145, 780}";
}
);
layerId = "8A6A1EBA-5B98-4308-8E77-A32B8A512EB8";
name = Bold;
paths = (
{
closed = 1;
nodes = (
"240 780 LINE",
"50 780 LINE",
"50 0 LINE",
"240 0 LINE",
"240 134 LINE",
"319 134 LINE SMOOTH",
"451 134 OFFCURVE",
"600 164 OFFCURVE",
"600 380 CURVE SMOOTH",
"600 400 LINE SMOOTH",
"600 616 OFFCURVE",
"451 646 OFFCURVE",
"319 646 CURVE SMOOTH",
"240 646 LINE"
);
},
{
closed = 1;
nodes = (
"240 298 LINE",
"240 482 LINE",
"327 482 LINE SMOOTH",
"364 482 OFFCURVE",
"408 468 OFFCURVE",
"408 394 CURVE SMOOTH",
"408 386 LINE SMOOTH",
"408 312 OFFCURVE",
"364 298 OFFCURVE",
"327 298 CURVE SMOOTH"
);
}
);
width = 620;
}
);
unicode = 00DE;
},
{
glyphname = Hbar;
lastChange = "2015-06-21 20:09:14 +0000";
layers = (
{
anchors = (
{
name = bottom.cap;
position = "{310, 0}";
},
{
name = top.cap;
position = "{310, 780}";
}
);
components = (
{
name = H;
}
);
layerId = "7E0ECC91-5B8E-4D6E-BF07-DE660E899F7B";
name = Light;
paths = (
{
closed = 1;
nodes = (
"530 604 LINE",
"90 604 LINE",
"90 584 LINE",
"530 584 LINE"
);
}
);
width = 620;
},
{
anchors = (
{
name = bottom.cap;
position = "{345, 0}";
},
{
name = top.cap;
position = "{345, 780}";
}
);
components = (
{
name = H;
}
);
layerId = "8A6A1EBA-5B98-4308-8E77-A32B8A512EB8";
name = Bold;
paths = (
{
closed = 1;
nodes = (
"568 700 LINE",
"128 700 LINE",
"128 560 LINE",
"568 560 LINE"
);
}
);
width = 670;
}
);
unicode = 0126;
},
{
glyphname = IJ;
lastChange = "2015-06-21 20:09:14 +0000";
layers = (
{
components = (
{
name = I;
}
);
layerId = "7E0ECC91-5B8E-4D6E-BF07-DE660E899F7B";
name = Light;
paths = (
{
closed = 1;
nodes = (
"353 135 LINE SMOOTH",
"353 36 OFFCURVE",
"306 14 OFFCURVE",
"238 14 CURVE SMOOTH",
"213 14 OFFCURVE",
"186 20 OFFCURVE",
"178 24 CURVE",
"178 4 LINE",
"183 2 OFFCURVE",
"205 -6 OFFCURVE",
"242 -6 CURVE SMOOTH",
"312 -6 OFFCURVE",
"373 21 OFFCURVE",
"373 129 CURVE SMOOTH",
"373 780 LINE",
"353 780 LINE"
);
}
);
width = 450;
},
{
components = (
{
name = I;
}
);
layerId = "8A6A1EBA-5B98-4308-8E77-A32B8A512EB8";
name = Bold;
paths = (
{
closed = 1;
nodes = (
"406 223 LINE SMOOTH",
"406 161 OFFCURVE",
"378 150 OFFCURVE",
"335 150 CURVE SMOOTH",
"318 150 OFFCURVE",
"292 155 OFFCURVE",
"285 158 CURVE",
"285 3 LINE",
"296 -4 OFFCURVE",
"330 -14 OFFCURVE",
"385 -14 CURVE SMOOTH",
"508 -14 OFFCURVE",
"596 42 OFFCURVE",
"596 202 CURVE SMOOTH",
"596 780 LINE",
"406 780 LINE"
);
}
);
width = 641;
}
);
unicode = 0132;
},
{
glyphname = Ldot;
lastChange = "2015-06-21 20:09:14 +0000";
layers = (
{
layerId = "7E0ECC91-5B8E-4D6E-BF07-DE660E899F7B";
name = Light;
paths = (
{
closed = 1;
nodes = (
"450 0 LINE",
"450 20 LINE",
"100 20 LINE",
"100 780 LINE",
"80 780 LINE",
"80 0 LINE"
);
},
{
closed = 1;
nodes = (
"302 378 LINE",
"342 378 LINE",
"342 418 LINE",
"302 418 LINE"
);
}
);
width = 464;
},
{
layerId = "8A6A1EBA-5B98-4308-8E77-A32B8A512EB8";
name = Bold;
paths = (
{
closed = 1;
nodes = (
"515 0 LINE",
"515 164 LINE",
"240 164 LINE",
"240 780 LINE",
"50 780 LINE",
"50 0 LINE"
);
},
{
closed = 1;
nodes = (
"505 493 LINE",
"315 493 LINE",
"315 303 LINE",
"505 303 LINE"
);
}
);
width = 530;
}
);
unicode = 013F;
},
{
glyphname = Lslash;
lastChange = "2015-06-21 20:09:14 +0000";
layers = (
{
anchors = (
{
name = bottom.cap;
position = "{320, 0}";
},
{
name = top.cap;
position = "{145, 780}";
}
);
components = (
{
name = L;
transform = "{1, 0, 0, 1, 55, 0}";
}
);
layerId = "7E0ECC91-5B8E-4D6E-BF07-DE660E899F7B";
name = Light;
paths = (
{
closed = 1;
nodes = (
"25 282 LINE",
"385 490 LINE",
"385 514 LINE",
"25 306 LINE"
);
}
);
width = 519;
},
{
anchors = (
{
name = bottom.cap;
position = "{342, 0}";
},
{
name = top.cap;
position = "{205, 779}";
}
);
components = (
{
name = L;
transform = "{1, 0, 0, 1, 60, 0}";
}
);
layerId = "8A6A1EBA-5B98-4308-8E77-A32B8A512EB8";
name = Bold;
paths = (
{
closed = 1;
nodes = (
"10 164 LINE",
"470 388 LINE",
"470 544 LINE",
"10 320 LINE"
);
}
);
width = 590;
}
);
unicode = 0141;
},
{
glyphname = Eng;
lastChange = "2015-06-21 20:09:14 +0000";
layers = (
{
anchors = (
{
name = bottom.cap;
position = "{320, -206}";
},
{
name = top.cap;
position = "{320, 780}";
}
);
layerId = "7E0ECC91-5B8E-4D6E-BF07-DE660E899F7B";
name = Light;
paths = (
{
closed = 1;
nodes = (
"560 780 LINE",
"540 780 LINE",
"540 180 LINE",
"541 29 LINE",
"105 780 LINE",
"80 780 LINE",
"80 0 LINE",
"100 0 LINE",
"100 600 LINE",
"99 751 LINE",
"545 -17 LINE",
"540 0 LINE",
"540 -65 LINE SMOOTH",
"540 -164 OFFCURVE",
"493 -186 OFFCURVE",
"425 -186 CURVE SMOOTH",
"400 -186 OFFCURVE",
"373 -180 OFFCURVE",
"365 -176 CURVE",
"365 -196 LINE",
"370 -198 OFFCURVE",
"392 -206 OFFCURVE",
"429 -206 CURVE SMOOTH",
"499 -206 OFFCURVE",
"560 -179 OFFCURVE",
"560 -71 CURVE SMOOTH"
);
}
);
width = 640;
},
{
anchors = (
{
name = bottom.cap;
position = "{345, -214}";
},
{
name = top.cap;
position = "{345, 780}";
}
);
layerId = "8A6A1EBA-5B98-4308-8E77-A32B8A512EB8";
name = Bold;
paths = (
{
closed = 1;
nodes = (
"640 780 LINE",
"460 780 LINE",
"460 500 LINE",
"465 350 LINE",
"250 780 LINE",
"50 780 LINE",
"50 0 LINE",
"230 0 LINE",
"230 280 LINE",
"225 430 LINE",
"488 -96 LINE",
"456 57 LINE",
"456 10 LINE SMOOTH",
"456 -46 OFFCURVE",
"425 -56 OFFCURVE",
"385 -56 CURVE SMOOTH",
"369 -56 OFFCURVE",
"344 -52 OFFCURVE",
"339 -50 CURVE",
"339 -200 LINE",
"348 -205 OFFCURVE",
"378 -214 OFFCURVE",
"428 -214 CURVE SMOOTH",
"555 -214 OFFCURVE",
"640 -160 OFFCURVE",
"640 -5 CURVE SMOOTH"
);
}
);
width = 690;
}
);
unicode = 014A;
},
{
glyphname = OE;
lastChange = "2015-06-21 20:09:14 +0000";
layers = (
{
anchors = (
{
name = bottom.cap;
position = "{490, 0}";
},
{
name = top.cap;
position = "{490, 780}";
}
);
layerId = "7E0ECC91-5B8E-4D6E-BF07-DE660E899F7B";
name = Light;
paths = (
{
closed = 1;
nodes = (
"60 370 LINE SMOOTH",
"60 95 OFFCURVE",
"180 0 OFFCURVE",
"345 0 CURVE SMOOTH",
"890 0 LINE",
"890 20 LINE",
"500 20 LINE",
"500 388 LINE",
"840 388 LINE",
"840 408 LINE",
"500 408 LINE",
"500 760 LINE",
"890 760 LINE",
"890 780 LINE",
"345 780 LINE SMOOTH",
"180 780 OFFCURVE",
"60 685 OFFCURVE",
"60 410 CURVE SMOOTH"
);
},
{
closed = 1;
nodes = (
"480 760 LINE",
"480 20 LINE",
"350 20 LINE SMOOTH",
"190 20 OFFCURVE",
"80 110 OFFCURVE",
"80 370 CURVE SMOOTH",
"80 410 LINE SMOOTH",
"80 670 OFFCURVE",
"190 760 OFFCURVE",
"350 760 CURVE SMOOTH"
);
}
);
width = 940;
},
{
anchors = (
{
name = bottom.cap;
position = "{505, 0}";
},
{
name = top.cap;
position = "{505, 780}";
}
);
layerId = "8A6A1EBA-5B98-4308-8E77-A32B8A512EB8";
name = Bold;
paths = (
{
closed = 1;
nodes = (
"33 370 LINE SMOOTH",
"33 100 OFFCURVE",
"125 0 OFFCURVE",
"370 0 CURVE SMOOTH",
"900 0 LINE",
"900 164 LINE",
"600 164 LINE",
"600 316 LINE",
"850 316 LINE",
"850 480 LINE",
"600 480 LINE",
"600 616 LINE",
"900 616 LINE",
"900 780 LINE",
"370 780 LINE SMOOTH",
"125 780 OFFCURVE",
"33 680 OFFCURVE",
"33 410 CURVE SMOOTH"
);
},
{
closed = 1;
nodes = (
"410 616 LINE",
"410 164 LINE",
"380 164 LINE SMOOTH",
"250 164 OFFCURVE",
"226 235 OFFCURVE",
"226 370 CURVE SMOOTH",
"226 410 LINE SMOOTH",
"226 545 OFFCURVE",
"250 616 OFFCURVE",
"380 616 CURVE SMOOTH"
);
}
);
width = 940;
}
);
unicode = 0152;
},
{
glyphname = Tbar;
lastChange = "2015-06-21 20:09:14 +0000";
layers = (
{
anchors = (
{
name = bottom.cap;
position = "{245, 0}";
},
{
name = top.cap;
position = "{245, 780}";
}
);
components = (
{
name = T;
}
);
layerId = "7E0ECC91-5B8E-4D6E-BF07-DE660E899F7B";
name = Light;
paths = (
{
closed = 1;
nodes = (
"115 408 LINE",
"115 388 LINE",
"375 388 LINE",
"375 408 LINE"
);
}
);
width = 490;
},
{
anchors = (
{
name = bottom.cap;
position = "{285, 0}";
},
{
name = top.cap;
position = "{285, 780}";
}
);
components = (
{
name = T;
}
);
layerId = "8A6A1EBA-5B98-4308-8E77-A32B8A512EB8";
name = Bold;
paths = (
{
closed = 1;
nodes = (
"80 473 LINE",
"80 323 LINE",
"490 323 LINE",
"490 473 LINE"
);
}
);
width = 570;
}
);
unicode = 0166;
},
{
glyphname = Eszett;
lastChange = "2015-06-21 20:09:14 +0000";
layers = (
{
anchors = (
{
name = bottom.cap;
position = "{340, 0}";
},
{
name = top.cap;
position = "{340, 780}";
}
);
layerId = "7E0ECC91-5B8E-4D6E-BF07-DE660E899F7B";
name = Light;
paths = (
{
closed = 1;
nodes = (
"306 425 LINE",
"306 410 LINE",
"426 395 LINE SMOOTH",
"585 375 OFFCURVE",
"640 321 OFFCURVE",
"640 207 CURVE SMOOTH",
"640 197 LINE SMOOTH",
"640 81 OFFCURVE",
"572 14 OFFCURVE",
"448 14 CURVE SMOOTH",
"442 14 LINE SMOOTH",
"325 14 OFFCURVE",
"250 75 OFFCURVE",
"250 250 CURVE",
"230 250 LINE",
"230 240 LINE SMOOTH",
"230 75 OFFCURVE",
"305 -6 OFFCURVE",
"445 -6 CURVE SMOOTH",
"580 -6 OFFCURVE",
"660 66 OFFCURVE",
"660 201 CURVE SMOOTH",
"660 211 LINE SMOOTH",
"660 322 OFFCURVE",
"605 393 OFFCURVE",
"436 414 CURVE SMOOTH",
"329 427 LINE",
"508 730 LINE",
"508 745 LINE",
"462 775 OFFCURVE",
"403 786 OFFCURVE",
"340 786 CURVE SMOOTH",
"200 786 OFFCURVE",
"77 730 OFFCURVE",
"77 537 CURVE SMOOTH",
"77 0 LINE",
"97 0 LINE",
"97 534 LINE SMOOTH",
"97 715 OFFCURVE",
"205 766 OFFCURVE",
"340 766 CURVE SMOOTH",
"398 766 OFFCURVE",
"451 756 OFFCURVE",
"493 731 CURVE",
"493 742 LINE"
);
}
);
width = 700;
},
{
anchors = (
{
name = bottom.cap;
position = "{395, 0}";
},
{
name = top.cap;
position = "{395, 780}";
}
);
layerId = "8A6A1EBA-5B98-4308-8E77-A32B8A512EB8";
name = Bold;
paths = (
{
closed = 1;
nodes = (
"303 464 LINE",
"303 334 LINE",
"509 310 LINE SMOOTH",
"583 302 OFFCURVE",
"607 272 OFFCURVE",
"607 227 CURVE SMOOTH",
"607 223 LINE SMOOTH",
"607 175 OFFCURVE",
"583 150 OFFCURVE",
"548 150 CURVE SMOOTH",
"538 150 LINE SMOOTH",
"503 150 OFFCURVE",
"470 176 OFFCURVE",
"470 270 CURVE",
"280 270 LINE",
"280 261 LINE SMOOTH",
"280 50 OFFCURVE",
"365 -14 OFFCURVE",
"540 -14 CURVE SMOOTH",
"711 -14 OFFCURVE",
"800 75 OFFCURVE",
"800 228 CURVE SMOOTH",
"800 239 LINE SMOOTH",
"800 392 OFFCURVE",
"709 446 OFFCURVE",
"539 469 CURVE",
"527 470 LINE",
"628 627 LINE",
"628 757 LINE",
"565 780 OFFCURVE",
"484 794 OFFCURVE",
"395 794 CURVE SMOOTH",
"145 794 OFFCURVE",
"45 696 OFFCURVE",
"45 532 CURVE SMOOTH",
"45 0 LINE",
"235 0 LINE",
"235 527 LINE SMOOTH",
"235 589 OFFCURVE",
"285 630 OFFCURVE",
"395 630 CURVE SMOOTH",
"428 630 OFFCURVE",
"470 623 OFFCURVE",
"491 606 CURVE",
"455 700 LINE"
);
}
);
width = 820;
}
);
unicode = 1E9E;
},
{
glyphname = a;
lastChange = "2015-06-23 16:38:00 +0000";
layers = (
{
anchors = (
{
name = bottom;
position = "{245, 0}";
},
{
name = top;
position = "{245, 530}";
}
);
layerId = "7E0ECC91-5B8E-4D6E-BF07-DE660E899F7B";
name = Light;
paths = (
{
closed = 1;
nodes = (
"405 0 LINE",
"420 0 LINE",
"415 120 LINE",
"415 361 LINE SMOOTH",
"415 450 OFFCURVE",
"383 536 OFFCURVE",
"245 536 CURVE SMOOTH",
"107 536 OFFCURVE",
"75 450 OFFCURVE",
"75 361 CURVE SMOOTH",
"75 350 LINE",
"95 350 LINE",
"95 440 OFFCURVE",
"115 516 OFFCURVE",
"245 516 CURVE SMOOTH",
"375 516 OFFCURVE",
"395 440 OFFCURVE",
"395 350 CURVE SMOOTH",
"395 308 LINE",
"404 318 LINE",
"215 288 LINE SMOOTH",
"138 277 OFFCURVE",
"52 255 OFFCURVE",
"52 135 CURVE SMOOTH",
"52 125 LINE SMOOTH",
"52 40 OFFCURVE",
"115 -6 OFFCURVE",
"200 -6 CURVE SMOOTH",
"314 -6 OFFCURVE",
"370 46 OFFCURVE",
"397 84 CURVE"
);
},
{
closed = 1;
nodes = (
"376 83 OFFCURVE",
"327 14 OFFCURVE",
"201 14 CURVE SMOOTH",
"114 14 OFFCURVE",
"72 67 OFFCURVE",
"72 125 CURVE SMOOTH",
"72 136 LINE SMOOTH",
"72 233 OFFCURVE",
"134 255 OFFCURVE",
"208 268 CURVE SMOOTH",
"395 298 LINE",
"395 118 LINE"
);
}
);
width = 485;
},
{
anchors = (
{
name = bottom;
position = "{280, 0}";
},
{
name = top;
position = "{280, 530}";
}
);
layerId = "8A6A1EBA-5B98-4308-8E77-A32B8A512EB8";
name = Bold;
paths = (
{
closed = 1;
nodes = (
"360 0 LINE",
"526 0 LINE",
"516 150 LINE",
"516 340 LINE SMOOTH",
"516 471 OFFCURVE",
"461 544 OFFCURVE",
"280 544 CURVE SMOOTH",
"100 544 OFFCURVE",
"45 460 OFFCURVE",
"45 364 CURVE SMOOTH",
"45 355 LINE",
"218 355 LINE",
"218 380 OFFCURVE",
"230 406 OFFCURVE",
"275 406 CURVE SMOOTH",
"318 406 OFFCURVE",
"332 386 OFFCURVE",
"332 341 CURVE SMOOTH",
"332 316 LINE",
"364 355 LINE",
"220 332 LINE SMOOTH",
"102 314 OFFCURVE",
"25 275 OFFCURVE",
"25 160 CURVE SMOOTH",
"25 150 LINE SMOOTH",
"25 65 OFFCURVE",
"65 -14 OFFCURVE",
"190 -14 CURVE SMOOTH",
"260 -14 OFFCURVE",
"313 11 OFFCURVE",
"350 50 CURVE"
);
},
{
closed = 1;
nodes = (
"317 149 OFFCURVE",
"291 134 OFFCURVE",
"260 134 CURVE SMOOTH",
"222 134 OFFCURVE",
"208 156 OFFCURVE",
"208 177 CURVE SMOOTH",
"208 183 LINE SMOOTH",
"208 207 OFFCURVE",
"217 226 OFFCURVE",
"260 233 CURVE SMOOTH",
"332 244 LINE",
"332 163 LINE"
);
}
);
width = 560;
}
);
unicode = 0061;
},
{
glyphname = aogonek;
lastChange = "2015-06-21 20:09:14 +0000";
layers = (
{
anchors = (
{
name = bottom;
position = "{245, -206}";
},
{
name = top;
position = "{245, 530}";
}
);
layerId = "7E0ECC91-5B8E-4D6E-BF07-DE660E899F7B";
name = Light;
paths = (
{
closed = 1;
nodes = (
"52 40 OFFCURVE",
"115 -6 OFFCURVE",
"200 -6 CURVE SMOOTH",
"314 -6 OFFCURVE",
"370 46 OFFCURVE",
"397 84 CURVE",
"403.862 11.95 LINE",
"349 -8 OFFCURVE",
"295 -39 OFFCURVE",
"295 -115 CURVE SMOOTH",
"295 -180 OFFCURVE",
"339 -206 OFFCURVE",
"386 -206 CURVE SMOOTH",
"425 -206 OFFCURVE",
"447 -197 OFFCURVE",
"465 -188 CURVE",
"459 -172 LINE",
"444 -179 OFFCURVE",
"420 -188 OFFCURVE",
"386 -188 CURVE SMOOTH",
"348 -188 OFFCURVE",
"313 -170 OFFCURVE",
"313 -115 CURVE SMOOTH",
"313 -45 OFFCURVE",
"373 -15 OFFCURVE",
"420 0 CURVE",
"415 120 LINE",
"415 361 LINE SMOOTH",
"415 450 OFFCURVE",
"383 536 OFFCURVE",
"245 536 CURVE SMOOTH",
"107 536 OFFCURVE",
"75 450 OFFCURVE",
"75 361 CURVE SMOOTH",
"75 350 LINE",
"95 350 LINE",
"95 440 OFFCURVE",
"115 516 OFFCURVE",
"245 516 CURVE SMOOTH",
"375 516 OFFCURVE",
"395 440 OFFCURVE",
"395 350 CURVE SMOOTH",
"395 308 LINE",
"404 318 LINE",
"215 288 LINE SMOOTH",
"138 277 OFFCURVE",
"52 255 OFFCURVE",
"52 135 CURVE SMOOTH",
"52 125 LINE SMOOTH"
);
},
{
closed = 1;
nodes = (
"376 83 OFFCURVE",
"327 14 OFFCURVE",
"201 14 CURVE SMOOTH",
"114 14 OFFCURVE",
"72 67 OFFCURVE",
"72 125 CURVE SMOOTH",
"72 136 LINE SMOOTH",
"72 233 OFFCURVE",
"134 255 OFFCURVE",
"208 268 CURVE SMOOTH",
"395 298 LINE",
"395 118 LINE"
);
}
);
width = 485;
},
{
anchors = (
{
name = bottom;
position = "{280, -216}";
},
{
name = top;
position = "{280, 530}";
}
);
layerId = "8A6A1EBA-5B98-4308-8E77-A32B8A512EB8";
name = Bold;
paths = (
{
closed = 1;
nodes = (
"25 65 OFFCURVE",
"65 -14 OFFCURVE",
"190 -14 CURVE SMOOTH",
"260 -14 OFFCURVE",
"313 11 OFFCURVE",
"350 50 CURVE",
"363 -17 LINE",
"346 -42 OFFCURVE",
"336 -72 OFFCURVE",
"336 -105 CURVE SMOOTH",
"336 -180 OFFCURVE",
"393 -216 OFFCURVE",
"478 -216 CURVE SMOOTH",
"523 -216 OFFCURVE",
"565 -203 OFFCURVE",
"586 -190 CURVE",
"545 -80 LINE",
"539 -84 OFFCURVE",
"527 -90 OFFCURVE",
"509 -90 CURVE SMOOTH",
"486 -90 OFFCURVE",
"471 -77 OFFCURVE",
"471 -58 CURVE SMOOTH",
"471 -35 OFFCURVE",
"488 -17 OFFCURVE",
"526 0 CURVE",
"516 150 LINE",
"516 340 LINE SMOOTH",
"516 471 OFFCURVE",
"461 544 OFFCURVE",
"280 544 CURVE SMOOTH",
"100 544 OFFCURVE",
"45 460 OFFCURVE",
"45 364 CURVE SMOOTH",
"45 355 LINE",
"218 355 LINE",
"218 380 OFFCURVE",
"230 406 OFFCURVE",
"275 406 CURVE SMOOTH",
"318 406 OFFCURVE",
"332 386 OFFCURVE",
"332 340 CURVE SMOOTH",
"332 300 LINE",
"370 356 LINE",
"220 332 LINE SMOOTH",
"102 314 OFFCURVE",
"25 275 OFFCURVE",
"25 160 CURVE SMOOTH",
"25 150 LINE SMOOTH"
);
},
{
closed = 1;
nodes = (
"317 149 OFFCURVE",
"291 134 OFFCURVE",
"260 134 CURVE SMOOTH",
"222 134 OFFCURVE",
"208 156 OFFCURVE",
"208 177 CURVE SMOOTH",
"208 183 LINE SMOOTH",
"208 207 OFFCURVE",
"217 226 OFFCURVE",
"260 233 CURVE SMOOTH",
"332 244 LINE",
"332 163 LINE"
);
}
);
width = 560;
}
);
unicode = 0105;
},
{
glyphname = b;
lastChange = "2015-06-21 20:09:14 +0000";
layers = (
{
anchors = (
{
name = bottom;
position = "{252, 0}";
},
{
name = top.cap;
position = "{80, 780}";
}
);
layerId = "7E0ECC91-5B8E-4D6E-BF07-DE660E899F7B";
name = Light;
paths = (
{
closed = 1;
nodes = (
"90 800 LINE",
"70 800 LINE",
"70 120 LINE",
"65 0 LINE",
"80 0 LINE",
"87 79 LINE",
"111 44 OFFCURVE",
"165 -6 OFFCURVE",
"252 -6 CURVE SMOOTH",
"386 -6 OFFCURVE",
"455 93 OFFCURVE",
"455 255 CURVE SMOOTH",
"455 275 LINE SMOOTH",
"455 437 OFFCURVE",
"386 536 OFFCURVE",
"252 536 CURVE SMOOTH",
"168 536 OFFCURVE",
"116 489 OFFCURVE",
"90 455 CURVE"
);
},
{
closed = 1;
nodes = (
"90 423 LINE",
"117 464 OFFCURVE",
"166 516 OFFCURVE",
"252 516 CURVE SMOOTH",
"374 516 OFFCURVE",
"435 423 OFFCURVE",
"435 275 CURVE SMOOTH",
"435 255 LINE SMOOTH",
"435 107 OFFCURVE",
"374 14 OFFCURVE",
"252 14 CURVE SMOOTH",
"166 14 OFFCURVE",
"117 66 OFFCURVE",
"90 107 CURVE"
);
}
);
width = 510;
},
{
anchors = (
{
name = bottom;
position = "{305, 0}";
},
{
name = top.cap;
position = "{145, 780}";
}
);
layerId = "8A6A1EBA-5B98-4308-8E77-A32B8A512EB8";
name = Bold;
paths = (
{
closed = 1;
nodes = (
"233 800 LINE",
"49 800 LINE",
"49 150 LINE",
"39 0 LINE",
"205 0 LINE",
"216 61 LINE",
"246 17 OFFCURVE",
"293 -14 OFFCURVE",
"365 -14 CURVE SMOOTH",
"510 -14 OFFCURVE",
"560 90 OFFCURVE",
"560 245 CURVE SMOOTH",
"560 285 LINE SMOOTH",
"560 440 OFFCURVE",
"510 544 OFFCURVE",
"365 544 CURVE SMOOTH",
"305 544 OFFCURVE",
"263 522 OFFCURVE",
"233 490 CURVE"
);
},
{
closed = 1;
nodes = (
"233 345 LINE",
"243 360 OFFCURVE",
"270 386 OFFCURVE",
"310 386 CURVE SMOOTH",
"360 386 OFFCURVE",
"377 350 OFFCURVE",
"377 285 CURVE SMOOTH",
"377 245 LINE SMOOTH",
"377 180 OFFCURVE",
"360 144 OFFCURVE",
"310 144 CURVE SMOOTH",
"270 144 OFFCURVE",
"243 170 OFFCURVE",
"233 185 CURVE"
);
}
);
width = 585;
}
);
unicode = 0062;
},
{
glyphname = c;
lastChange = "2015-06-23 20:49:45 +0000";
layers = (
{
anchors = (
{
name = bottom;
position = "{268, 0}";
},
{
name = top;
position = "{268, 530}";
}
);
layerId = "7E0ECC91-5B8E-4D6E-BF07-DE660E899F7B";
name = Light;
paths = (
{
closed = 1;
nodes = (
"75 275 LINE SMOOTH",
"75 420 OFFCURVE",
"138 516 OFFCURVE",
"268 516 CURVE SMOOTH",
"384 516 OFFCURVE",
"430 441 OFFCURVE",
"430 345 CURVE",
"450 345 LINE",
"450 355 LINE SMOOTH",
"450 440 OFFCURVE",
"404 536 OFFCURVE",
"268 536 CURVE SMOOTH",
"119 536 OFFCURVE",
"55 425 OFFCURVE",
"55 275 CURVE SMOOTH",
"55 255 LINE SMOOTH",
"55 105 OFFCURVE",
"119 -6 OFFCURVE",
"268 -6 CURVE SMOOTH",
"405 -6 OFFCURVE",
"450 84 OFFCURVE",
"450 165 CURVE SMOOTH",
"450 175 LINE",
"430 175 LINE",
"430 83 OFFCURVE",
"385 14 OFFCURVE",
"268 14 CURVE SMOOTH",
"138 14 OFFCURVE",
"75 110 OFFCURVE",
"75 255 CURVE SMOOTH"
);
}
);
width = 505;
},
{
anchors = (
{
name = bottom;
position = "{270, 0}";
},
{
name = top;
position = "{270, 530}";
}
);
layerId = "8A6A1EBA-5B98-4308-8E77-A32B8A512EB8";
name = Bold;
paths = (
{
closed = 1;
nodes = (
"208 285 LINE SMOOTH",
"208 350 OFFCURVE",
"225 386 OFFCURVE",
"274 386 CURVE SMOOTH",
"310 386 OFFCURVE",
"332 366 OFFCURVE",
"332 320 CURVE",
"505 320 LINE",
"505 344 LINE SMOOTH",
"505 470 OFFCURVE",
"424 544 OFFCURVE",
"270 544 CURVE SMOOTH",
"99 544 OFFCURVE",
"25 440 OFFCURVE",
"25 285 CURVE SMOOTH",
"25 245 LINE SMOOTH",
"25 90 OFFCURVE",
"99 -14 OFFCURVE",
"270 -14 CURVE SMOOTH",
"424 -14 OFFCURVE",
"505 60 OFFCURVE",
"505 176 CURVE SMOOTH",
"505 200 LINE",
"332 200 LINE",
"332 165 OFFCURVE",
"310 144 OFFCURVE",
"274 144 CURVE SMOOTH",
"225 144 OFFCURVE",
"208 180 OFFCURVE",
"208 245 CURVE SMOOTH"
);
}
);
width = 528;
}
);
unicode = 0063;
},
{
glyphname = d;
lastChange = "2015-06-21 20:09:14 +0000";
layers = (
{
anchors = (
{
name = bottom;
position = "{258, 0}";
},
{
name = top.cap;
position = "{430, 780}";
},
{
name = topright.cap;
position = "{440, 780}";
}
);
layerId = "7E0ECC91-5B8E-4D6E-BF07-DE660E899F7B";
name = Light;
paths = (
{
closed = 1;
nodes = (
"258 536 CURVE SMOOTH",
"124 536 OFFCURVE",
"55 437 OFFCURVE",
"55 275 CURVE SMOOTH",
"55 255 LINE SMOOTH",
"55 93 OFFCURVE",
"124 -6 OFFCURVE",
"258 -6 CURVE SMOOTH",
"345 -6 OFFCURVE",
"398 44 OFFCURVE",
"423 79 CURVE",
"430 0 LINE",
"445 0 LINE",
"440 120 LINE",
"440 800 LINE",
"420 800 LINE",
"420 455 LINE",
"394 489 OFFCURVE",
"342 536 OFFCURVE"
);
},
{
closed = 1;
nodes = (
"420 107 LINE",
"393 66 OFFCURVE",
"344 14 OFFCURVE",
"258 14 CURVE SMOOTH",
"136 14 OFFCURVE",
"75 107 OFFCURVE",
"75 255 CURVE SMOOTH",
"75 275 LINE SMOOTH",
"75 423 OFFCURVE",
"136 516 OFFCURVE",
"258 516 CURVE SMOOTH",
"344 516 OFFCURVE",
"393 464 OFFCURVE",
"420 423 CURVE"
);
}
);
width = 510;
},
{
anchors = (
{
name = bottom;
position = "{280, 0}";
},
{
name = top.cap;
position = "{453, 780}";
},
{
name = topright.cap;
position = "{545, 779}";
}
);
layerId = "8A6A1EBA-5B98-4308-8E77-A32B8A512EB8";
name = Bold;
paths = (
{
closed = 1;
nodes = (
"229 544 CURVE SMOOTH",
"84 544 OFFCURVE",
"34 440 OFFCURVE",
"34 285 CURVE SMOOTH",
"34 245 LINE SMOOTH",
"34 90 OFFCURVE",
"84 -14 OFFCURVE",
"229 -14 CURVE SMOOTH",
"301 -14 OFFCURVE",
"347 17 OFFCURVE",
"377 61 CURVE",
"389 0 LINE",
"555 0 LINE",
"545 150 LINE",
"545 800 LINE",
"361 800 LINE",
"361 490 LINE",
"331 522 OFFCURVE",
"288 544 OFFCURVE"
);
},
{
closed = 1;
nodes = (
"361 185 LINE",
"351 170 OFFCURVE",
"324 144 OFFCURVE",
"284 144 CURVE SMOOTH",
"234 144 OFFCURVE",
"217 180 OFFCURVE",
"217 245 CURVE SMOOTH",
"217 285 LINE SMOOTH",
"217 350 OFFCURVE",
"234 386 OFFCURVE",
"284 386 CURVE SMOOTH",
"324 386 OFFCURVE",
"351 360 OFFCURVE",
"361 345 CURVE"
);
}
);
width = 595;
}
);
unicode = 0064;
},
{
glyphname = e;
lastChange = "2015-06-21 20:09:14 +0000";
layers = (
{
anchors = (
{
name = bottom;
position = "{265, 0}";
},
{
name = top;
position = "{265, 530}";
}
);
layerId = "7E0ECC91-5B8E-4D6E-BF07-DE660E899F7B";
name = Light;
paths = (
{
closed = 1;
nodes = (
"475 255 LINE",
"475 275 LINE SMOOTH",
"475 421 OFFCURVE",
"413 536 OFFCURVE",
"265 536 CURVE SMOOTH",
"117 536 OFFCURVE",
"55 421 OFFCURVE",
"55 275 CURVE SMOOTH",
"55 255 LINE SMOOTH",
"55 109 OFFCURVE",
"119 -6 OFFCURVE",
"270 -6 CURVE SMOOTH",
"417 -6 OFFCURVE",
"475 90 OFFCURVE",
"475 165 CURVE SMOOTH",
"475 170 LINE",
"455 170 LINE",
"455 99 OFFCURVE",
"406 14 OFFCURVE",
"270 14 CURVE SMOOTH",
"134 14 OFFCURVE",
"75 115 OFFCURVE",
"75 255 CURVE"
);
},
{
closed = 1;
nodes = (
"75 416 OFFCURVE",
"136 516 OFFCURVE",
"265 516 CURVE SMOOTH",
"394 516 OFFCURVE",
"455 416 OFFCURVE",
"455 275 CURVE",
"75 275 LINE"
);
}
);
width = 530;
},
{
anchors = (
{
name = bottom;
position = "{284, 0}";
},
{
name = top;
position = "{284, 530}";
}
);
layerId = "8A6A1EBA-5B98-4308-8E77-A32B8A512EB8";
name = Bold;
paths = (
{
closed = 1;
nodes = (
"535 200 LINE",
"535 280 LINE SMOOTH",
"535 435 OFFCURVE",
"455 544 OFFCURVE",
"284 544 CURVE SMOOTH",
"113 544 OFFCURVE",
"25 435 OFFCURVE",
"25 280 CURVE SMOOTH",
"25 250 LINE SMOOTH",
"25 95 OFFCURVE",
"109 -14 OFFCURVE",
"290 -14 CURVE SMOOTH",
"444 -14 OFFCURVE",
"535 60 OFFCURVE",
"535 166 CURVE SMOOTH",
"535 170 LINE",
"362 170 LINE",
"362 145 OFFCURVE",
"331 124 OFFCURVE",
"291 124 CURVE SMOOTH",
"245 124 OFFCURVE",
"215 140 OFFCURVE",
"209 200 CURVE"
);
},
{
closed = 1;
nodes = (
"214 386 OFFCURVE",
"237 406 OFFCURVE",
"280 406 CURVE SMOOTH",
"323 406 OFFCURVE",
"346 386 OFFCURVE",
"351 330 CURVE",
"209 330 LINE"
);
}
);
width = 560;
}
);
unicode = 0065;
},
{
glyphname = eogonek;
lastChange = "2015-06-21 20:09:14 +0000";
layers = (
{
anchors = (
{
name = bottom;
position = "{265, -206}";
},
{
name = top;
position = "{265, 529}";
}
);
layerId = "7E0ECC91-5B8E-4D6E-BF07-DE660E899F7B";
name = Light;
paths = (
{
closed = 1;
nodes = (
"369 -172 LINE",
"354 -179 OFFCURVE",
"330 -188 OFFCURVE",
"296 -188 CURVE SMOOTH",
"258 -188 OFFCURVE",
"223 -170 OFFCURVE",
"223 -115 CURVE SMOOTH",
"223 -45 OFFCURVE",
"286 -9 OFFCURVE",
"330 0 CURVE SMOOTH",
"433 22 OFFCURVE",
"475 101 OFFCURVE",
"475 165 CURVE SMOOTH",
"475 170 LINE",
"455 170 LINE",
"455 99 OFFCURVE",
"406 14 OFFCURVE",
"270 14 CURVE SMOOTH",
"134 14 OFFCURVE",
"75 115 OFFCURVE",
"75 255 CURVE",
"475 255 LINE",
"475 275 LINE SMOOTH",
"475 421 OFFCURVE",
"413 536 OFFCURVE",
"265 536 CURVE SMOOTH",
"117 536 OFFCURVE",
"55 421 OFFCURVE",
"55 275 CURVE SMOOTH",
"55 255 LINE SMOOTH",
"55 109 OFFCURVE",
"119 -6 OFFCURVE",
"270 -6 CURVE SMOOTH",
"281 -6 LINE",
"277 -3 LINE",
"237 -24 OFFCURVE",
"205 -57 OFFCURVE",
"205 -115 CURVE SMOOTH",
"205 -180 OFFCURVE",
"249 -206 OFFCURVE",
"296 -206 CURVE SMOOTH",
"335 -206 OFFCURVE",
"357 -197 OFFCURVE",
"375 -188 CURVE"
);
},
{
closed = 1;
nodes = (
"75 416 OFFCURVE",
"136 516 OFFCURVE",
"265 516 CURVE SMOOTH",
"394 516 OFFCURVE",
"455 416 OFFCURVE",
"455 275 CURVE",
"75 275 LINE"
);
}
);
width = 530;
},
{
anchors = (
{
name = bottom;
position = "{284, -216}";
},
{
name = top;
position = "{284, 530}";
}
);
layerId = "8A6A1EBA-5B98-4308-8E77-A32B8A512EB8";
name = Bold;
paths = (
{
closed = 1;
nodes = (
"415 -80 LINE",
"409 -84 OFFCURVE",
"397 -90 OFFCURVE",
"379 -90 CURVE SMOOTH",
"356 -90 OFFCURVE",
"341 -77 OFFCURVE",
"341 -58 CURVE SMOOTH",
"341 -35 OFFCURVE",
"357 -12 OFFCURVE",
"396 0 CURVE SMOOTH",
"486 28 OFFCURVE",
"535 87 OFFCURVE",
"535 166 CURVE SMOOTH",
"535 170 LINE",
"362 170 LINE",
"362 145 OFFCURVE",
"331 124 OFFCURVE",
"291 124 CURVE SMOOTH",
"245 124 OFFCURVE",
"215 140 OFFCURVE",
"209 200 CURVE",
"535 200 LINE",
"535 280 LINE SMOOTH",
"535 435 OFFCURVE",
"455 544 OFFCURVE",
"284 544 CURVE SMOOTH",
"113 544 OFFCURVE",
"25 435 OFFCURVE",
"25 280 CURVE SMOOTH",
"25 250 LINE SMOOTH",
"25 94 OFFCURVE",
"110 -15 OFFCURVE",
"290 -15 CURVE SMOOTH",
"301 -15 LINE",
"277 26 LINE",
"235 -3 OFFCURVE",
"206 -49 OFFCURVE",
"206 -105 CURVE SMOOTH",
"206 -180 OFFCURVE",
"263 -216 OFFCURVE",
"348 -216 CURVE SMOOTH",
"393 -216 OFFCURVE",
"435 -203 OFFCURVE",
"456 -190 CURVE"
);
},
{
closed = 1;
nodes = (
"214 386 OFFCURVE",
"237 406 OFFCURVE",
"280 406 CURVE SMOOTH",
"323 406 OFFCURVE",
"346 386 OFFCURVE",
"351 330 CURVE",
"209 330 LINE"
);
}
);
width = 560;
}
);
unicode = 0119;
},
{
glyphname = f;
lastChange = "2015-06-21 20:09:14 +0000";
layers = (
{
anchors = (
{
name = bottom;
position = "{125, 0}";
},
{
name = top.cap;
position = "{200, 780}";
}
);
layerId = "7E0ECC91-5B8E-4D6E-BF07-DE660E899F7B";
name = Light;
paths = (
{
closed = 1;
nodes = (
"135 665 LINE SMOOTH",
"135 764 OFFCURVE",
"182 786 OFFCURVE",
"250 786 CURVE SMOOTH",
"275 786 OFFCURVE",
"302 780 OFFCURVE",
"310 776 CURVE",
"310 796 LINE",
"305 798 OFFCURVE",
"283 806 OFFCURVE",
"246 806 CURVE SMOOTH",
"176 806 OFFCURVE",
"115 779 OFFCURVE",
"115 671 CURVE SMOOTH",
"115 530 LINE",
"30 530 LINE",
"30 510 LINE",
"115 510 LINE",
"115 0 LINE",
"135 0 LINE",
"135 510 LINE",
"300 510 LINE",
"300 530 LINE",
"135 530 LINE"
);
}
);
width = 340;
},
{
anchors = (
{
name = bottom;
position = "{187, -3}";
},
{
name = top.cap;
position = "{245, 780}";
}
);
layerId = "8A6A1EBA-5B98-4308-8E77-A32B8A512EB8";
name = Bold;
paths = (
{
closed = 1;
nodes = (
"279 585 LINE SMOOTH",
"279 645 OFFCURVE",
"308 656 OFFCURVE",
"350 656 CURVE SMOOTH",
"366 656 OFFCURVE",
"391 652 OFFCURVE",
"396 650 CURVE",
"396 800 LINE",
"387 805 OFFCURVE",
"357 814 OFFCURVE",
"307 814 CURVE SMOOTH",
"180 814 OFFCURVE",
"95 760 OFFCURVE",
"95 605 CURVE SMOOTH",
"95 530 LINE",
"15 530 LINE",
"15 370 LINE",
"95 370 LINE",
"95 0 LINE",
"279 0 LINE",
"279 370 LINE",
"386 370 LINE",
"386 530 LINE",
"279 530 LINE"
);
}
);
width = 420;
}
);
unicode = 0066;
},
{
glyphname = g;
lastChange = "2015-06-24 00:29:09 +0000";
layers = (
{
anchors = (
{
name = bottom.cap;
position = "{257, -206}";
},
{
name = top;
position = "{257, 530}";
}
);
layerId = "7E0ECC91-5B8E-4D6E-BF07-DE660E899F7B";
name = Light;
paths = (
{
closed = 1;
nodes = (
"420 0 LINE SMOOTH",
"420 -115 OFFCURVE",
"373 -186 OFFCURVE",
"250 -186 CURVE SMOOTH",
"120 -186 OFFCURVE",
"75 -115 OFFCURVE",
"75 0 CURVE",
"55 0 LINE",
"55 -11 LINE SMOOTH",
"55 -125 OFFCURVE",
"110 -206 OFFCURVE",
"250 -206 CURVE SMOOTH",
"383 -206 OFFCURVE",
"440 -125 OFFCURVE",
"440 -11 CURVE SMOOTH",
"440 410 LINE",
"445 530 LINE",
"430 530 LINE",
"423 451 LINE",
"398 486 OFFCURVE",
"344 536 OFFCURVE",
"257 536 CURVE SMOOTH",
"123 536 OFFCURVE",
"55 447 OFFCURVE",
"55 295 CURVE SMOOTH",
"55 275 LINE SMOOTH",
"55 123 OFFCURVE",
"123 34 OFFCURVE",
"257 34 CURVE SMOOTH",
"341 34 OFFCURVE",
"394 80 OFFCURVE",
"420 115 CURVE"
);
},
{
closed = 1;
nodes = (
"420 147 LINE",
"393 106 OFFCURVE",
"344 54 OFFCURVE",
"258 54 CURVE SMOOTH",
"136 54 OFFCURVE",
"75 137 OFFCURVE",
"75 275 CURVE SMOOTH",
"75 295 LINE SMOOTH",
"75 433 OFFCURVE",
"136 516 OFFCURVE",
"258 516 CURVE SMOOTH",
"344 516 OFFCURVE",
"393 464 OFFCURVE",
"420 423 CURVE"
);
}
);
width = 510;
},
{
anchors = (
{
name = bottom.cap;
position = "{287, -214}";
},
{
name = top;
position = "{287, 530}";
}
);
layerId = "8A6A1EBA-5B98-4308-8E77-A32B8A512EB8";
name = Bold;
paths = (
{
closed = 1;
nodes = (
"352 15 LINE SMOOTH",
"352 -50 OFFCURVE",
"325 -66 OFFCURVE",
"276 -66 CURVE SMOOTH",
"220 -66 OFFCURVE",
"208 -35 OFFCURVE",
"208 0 CURVE",
"35 0 LINE",
"35 -24 LINE SMOOTH",
"35 -130 OFFCURVE",
"96 -214 OFFCURVE",
"280 -214 CURVE SMOOTH",
"451 -214 OFFCURVE",
"536 -140 OFFCURVE",
"536 15 CURVE SMOOTH",
"536 380 LINE",
"546 530 LINE",
"380 530 LINE",
"369 472 LINE",
"339 514 OFFCURVE",
"292 544 OFFCURVE",
"220 544 CURVE SMOOTH",
"80 544 OFFCURVE",
"25 440 OFFCURVE",
"25 295 CURVE SMOOTH",
"25 265 LINE SMOOTH",
"25 110 OFFCURVE",
"80 16 OFFCURVE",
"220 16 CURVE SMOOTH",
"279 16 OFFCURVE",
"322 35 OFFCURVE",
"352 66 CURVE"
);
},
{
closed = 1;
nodes = (
"352 215 LINE",
"342 200 OFFCURVE",
"315 174 OFFCURVE",
"275 174 CURVE SMOOTH",
"230 174 OFFCURVE",
"208 200 OFFCURVE",
"208 265 CURVE SMOOTH",
"208 295 LINE SMOOTH",
"208 350 OFFCURVE",
"230 386 OFFCURVE",
"275 386 CURVE SMOOTH",
"315 386 OFFCURVE",
"342 360 OFFCURVE",
"352 345 CURVE"
);
}
);
width = 585;
}
);
unicode = 0067;
},
{
glyphname = h;
lastChange = "2015-06-21 20:09:14 +0000";
layers = (
{
anchors = (
{
name = bottom;
position = "{250, 0}";
},
{
name = top.cap;
position = "{80, 780}";
}
);
layerId = "7E0ECC91-5B8E-4D6E-BF07-DE660E899F7B";
name = Light;
paths = (
{
closed = 1;
nodes = (
"90 800 LINE",
"70 800 LINE",
"70 0 LINE",
"90 0 LINE",
"90 423 LINE",
"117 466 OFFCURVE",
"173 516 OFFCURVE",
"269 516 CURVE SMOOTH",
"360 516 OFFCURVE",
"410 480 OFFCURVE",
"410 375 CURVE SMOOTH",
"410 0 LINE",
"430 0 LINE",
"430 380 LINE SMOOTH",
"430 487 OFFCURVE",
"374 536 OFFCURVE",
"271 536 CURVE SMOOTH",
"177 536 OFFCURVE",
"120 493 OFFCURVE",
"90 452 CURVE"
);
}
);
width = 490;
},
{
anchors = (
{
name = bottom;
position = "{302, 0}";
},
{
name = top.cap;
position = "{142, 780}";
}
);
layerId = "8A6A1EBA-5B98-4308-8E77-A32B8A512EB8";
name = Bold;
paths = (
{
closed = 1;
nodes = (
"234 800 LINE",
"50 800 LINE",
"50 0 LINE",
"234 0 LINE",
"234 345 LINE",
"244 360 OFFCURVE",
"271 386 OFFCURVE",
"311 386 CURVE SMOOTH",
"361 386 OFFCURVE",
"367 350 OFFCURVE",
"367 325 CURVE SMOOTH",
"367 0 LINE",
"551 0 LINE",
"551 355 LINE SMOOTH",
"551 450 OFFCURVE",
"511 544 OFFCURVE",
"386 544 CURVE SMOOTH",
"318 544 OFFCURVE",
"268 520 OFFCURVE",
"234 483 CURVE"
);
}
);
width = 595;
}
);
unicode = 0068;
},
{
glyphname = i;
lastChange = "2015-06-21 20:09:14 +0000";
layers = (
{
layerId = "7E0ECC91-5B8E-4D6E-BF07-DE660E899F7B";
name = Light;
paths = (
{
closed = 1;
nodes = (
"80 0 LINE",
"100 0 LINE",
"100 530 LINE",
"80 530 LINE"
);
},
{
closed = 1;
nodes = (
"110 720 LINE",
"70 720 LINE",
"70 680 LINE",
"110 680 LINE"
);
}
);
width = 180;
},
{
layerId = "8A6A1EBA-5B98-4308-8E77-A32B8A512EB8";
name = Bold;
paths = (
{
closed = 1;
nodes = (
"48 0 LINE",
"232 0 LINE",
"232 530 LINE",
"48 530 LINE"
);
},
{
closed = 1;
nodes = (
"235 780 LINE",
"45 780 LINE",
"45 590 LINE",
"235 590 LINE"
);
}
);
width = 280;
}
);
unicode = 0069;
},
{
glyphname = j;
lastChange = "2015-06-21 20:09:14 +0000";
layers = (
{
layerId = "7E0ECC91-5B8E-4D6E-BF07-DE660E899F7B";
name = Light;
paths = (
{
closed = 1;
nodes = (
"80 -65 LINE SMOOTH",
"80 -164 OFFCURVE",
"33 -186 OFFCURVE",
"-35 -186 CURVE SMOOTH",
"-60 -186 OFFCURVE",
"-87 -180 OFFCURVE",
"-95 -176 CURVE",
"-95 -196 LINE",
"-90 -198 OFFCURVE",
"-68 -206 OFFCURVE",
"-31 -206 CURVE SMOOTH",
"39 -206 OFFCURVE",
"100 -179 OFFCURVE",
"100 -71 CURVE SMOOTH",
"100 530 LINE",
"80 530 LINE"
);
},
{
closed = 1;
nodes = (
"110 720 LINE",
"70 720 LINE",
"70 680 LINE",
"110 680 LINE"
);
}
);
width = 180;
},
{
layerId = "8A6A1EBA-5B98-4308-8E77-A32B8A512EB8";
name = Bold;
paths = (
{
closed = 1;
nodes = (
"48 15 LINE SMOOTH",
"48 -45 OFFCURVE",
"19 -56 OFFCURVE",
"-23 -56 CURVE SMOOTH",
"-39 -56 OFFCURVE",
"-64 -52 OFFCURVE",
"-69 -50 CURVE",
"-69 -200 LINE",
"-60 -205 OFFCURVE",
"-30 -214 OFFCURVE",
"20 -214 CURVE SMOOTH",
"147 -214 OFFCURVE",
"232 -160 OFFCURVE",
"232 -5 CURVE SMOOTH",
"232 530 LINE",
"48 530 LINE"
);
},
{
closed = 1;
nodes = (
"235 780 LINE",
"45 780 LINE",
"45 590 LINE",
"235 590 LINE"
);
}
);
width = 280;
}
);
unicode = 006A;
},
{
glyphname = k;
lastChange = "2015-06-21 20:09:14 +0000";
layers = (
{
anchors = (
{
name = bottom;
position = "{240, 0}";
},
{
name = top.cap;
position = "{85, 780}";
}
);
layerId = "7E0ECC91-5B8E-4D6E-BF07-DE660E899F7B";
name = Light;
paths = (
{
closed = 1;
nodes = (
"75 0 LINE",
"95 0 LINE",
"95 172 LINE",
"226 314 LINE",
"402 0 LINE",
"425 0 LINE",
"239 329 LINE",
"425 530 LINE",
"398 530 LINE",
"95 200 LINE",
"95 800 LINE",
"75 800 LINE"
);
}
);
width = 458;
},
{
anchors = (
{
name = bottom;
position = "{286, 0}";
},
{
name = top.cap;
position = "{137, 780}";
}
);
layerId = "8A6A1EBA-5B98-4308-8E77-A32B8A512EB8";
name = Bold;
paths = (
{
closed = 1;
nodes = (
"45 0 LINE",
"229 0 LINE",
"229 141 LINE",
"264 182 LINE",
"350 0 LINE",
"565 0 LINE",
"391 329 LINE",
"565 530 LINE",
"345 530 LINE",
"229 382 LINE",
"229 800 LINE",
"45 800 LINE"
);
}
);
width = 580;
}
);
unicode = 006B;
},
{
glyphname = l;
lastChange = "2015-06-21 20:09:14 +0000";
layers = (
{
anchors = (
{
name = bottom;
position = "{90, 0}";
},
{
name = top.cap;
position = "{90, 780}";
},
{
name = topright.cap;
position = "{100, 780}";
}
);
layerId = "7E0ECC91-5B8E-4D6E-BF07-DE660E899F7B";
name = Light;
paths = (
{
closed = 1;
nodes = (
"80 0 LINE",
"100 0 LINE",
"100 800 LINE",
"80 800 LINE"
);
}
);
width = 180;
},
{
anchors = (
{
name = bottom;
position = "{140, 0}";
},
{
name = top.cap;
position = "{140, 780}";
},
{
name = topright.cap;
position = "{232, 780}";
}
);
layerId = "8A6A1EBA-5B98-4308-8E77-A32B8A512EB8";
name = Bold;
paths = (
{
closed = 1;
nodes = (
"48 0 LINE",
"232 0 LINE",
"232 800 LINE",
"48 800 LINE"
);
}
);
width = 280;
}
);
unicode = 006C;
},
{
glyphname = m;
lastChange = "2015-06-21 20:09:14 +0000";
layers = (
{
anchors = (
{
name = bottom;
position = "{380, 0}";
},
{
name = top;
position = "{380, 530}";
}
);
layerId = "7E0ECC91-5B8E-4D6E-BF07-DE660E899F7B";
name = Light;
paths = (
{
closed = 1;
nodes = (
"690 0 LINE",
"690 390 LINE SMOOTH",
"690 487 OFFCURVE",
"644 536 OFFCURVE",
"551 536 CURVE SMOOTH",
"463 536 OFFCURVE",
"411 487 OFFCURVE",
"384 444 CURVE",
"369 505 OFFCURVE",
"325 536 OFFCURVE",
"251 536 CURVE SMOOTH",
"167 536 OFFCURVE",
"115 491 OFFCURVE",
"87 449 CURVE",
"80 530 LINE",
"65 530 LINE",
"70 410 LINE",
"70 0 LINE",
"90 0 LINE",
"90 423 LINE",
"117 466 OFFCURVE",
"168 516 OFFCURVE",
"249 516 CURVE SMOOTH",
"330 516 OFFCURVE",
"370 480 OFFCURVE",
"370 385 CURVE SMOOTH",
"370 0 LINE",
"390 0 LINE",
"390 423 LINE",
"417 466 OFFCURVE",
"468 516 OFFCURVE",
"549 516 CURVE SMOOTH",
"630 516 OFFCURVE",
"670 480 OFFCURVE",
"670 385 CURVE SMOOTH",
"670 0 LINE"
);
}
);
width = 750;
},
{
anchors = (
{
name = bottom;
position = "{443, 0}";
},
{
name = top;
position = "{443, 530}";
}
);
layerId = "8A6A1EBA-5B98-4308-8E77-A32B8A512EB8";
name = Bold;
paths = (
{
closed = 1;
nodes = (
"836 0 LINE",
"836 360 LINE SMOOTH",
"836 460 OFFCURVE",
"791 544 OFFCURVE",
"676 544 CURVE SMOOTH",
"599 544 OFFCURVE",
"546 511 OFFCURVE",
"514 463 CURVE",
"490 511 OFFCURVE",
"446 544 OFFCURVE",
"375 544 CURVE SMOOTH",
"301 544 OFFCURVE",
"250 514 OFFCURVE",
"217 469 CURVE",
"206 530 LINE",
"40 530 LINE",
"50 380 LINE",
"50 0 LINE",
"234 0 LINE",
"234 350 LINE",
"244 365 OFFCURVE",
"265 386 OFFCURVE",
"300 386 CURVE SMOOTH",
"340 386 OFFCURVE",
"351 360 OFFCURVE",
"351 330 CURVE SMOOTH",
"351 0 LINE",
"535 0 LINE",
"535 350 LINE",
"545 365 OFFCURVE",
"566 386 OFFCURVE",
"601 386 CURVE SMOOTH",
"641 386 OFFCURVE",
"652 360 OFFCURVE",
"652 330 CURVE SMOOTH",
"652 0 LINE"
);
}
);
width = 880;
}
);
unicode = 006D;
},
{
glyphname = n;
lastChange = "2015-06-21 20:09:14 +0000";
layers = (
{
anchors = (
{
name = bottom;
position = "{250, 0}";
},
{
name = top;
position = "{250, 530}";
}
);
layerId = "7E0ECC91-5B8E-4D6E-BF07-DE660E899F7B";
name = Light;
paths = (
{
closed = 1;
nodes = (
"430 0 LINE",
"430 380 LINE SMOOTH",
"430 487 OFFCURVE",
"374 536 OFFCURVE",
"271 536 CURVE SMOOTH",
"174 536 OFFCURVE",
"117 490 OFFCURVE",
"87 448 CURVE",
"80 530 LINE",
"65 530 LINE",
"70 410 LINE",
"70 0 LINE",
"90 0 LINE",
"90 423 LINE",
"117 466 OFFCURVE",
"173 516 OFFCURVE",
"269 516 CURVE SMOOTH",
"360 516 OFFCURVE",
"410 480 OFFCURVE",
"410 375 CURVE SMOOTH",
"410 0 LINE"
);
}
);
width = 490;
},
{
anchors = (
{
name = bottom;
position = "{302, 0}";
},
{
name = top;
position = "{302, 530}";
}
);
layerId = "8A6A1EBA-5B98-4308-8E77-A32B8A512EB8";
name = Bold;
paths = (
{
closed = 1;
nodes = (
"551 0 LINE",
"551 355 LINE SMOOTH",
"551 450 OFFCURVE",
"511 544 OFFCURVE",
"386 544 CURVE SMOOTH",
"307 544 OFFCURVE",
"253 511 OFFCURVE",
"218 464 CURVE",
"206 530 LINE",
"40 530 LINE",
"50 380 LINE",
"50 0 LINE",
"234 0 LINE",
"234 345 LINE",
"244 360 OFFCURVE",
"271 386 OFFCURVE",
"311 386 CURVE SMOOTH",
"361 386 OFFCURVE",
"367 350 OFFCURVE",
"367 325 CURVE SMOOTH",
"367 0 LINE"
);
}
);
width = 595;
}
);
unicode = 006E;
},
{
glyphname = o;
lastChange = "2015-06-26 23:10:14 +0000";
layers = (
{
anchors = (
{
name = bottom;
position = "{263, 0}";
},
{
name = top;
position = "{263, 530}";
}
);
layerId = "7E0ECC91-5B8E-4D6E-BF07-DE660E899F7B";
name = Light;
paths = (
{
closed = 1;
nodes = (
"263 -6 CURVE SMOOTH",
"397 -6 OFFCURVE",
"471 93 OFFCURVE",
"471 255 CURVE SMOOTH",
"471 275 LINE SMOOTH",
"471 437 OFFCURVE",
"397 536 OFFCURVE",
"263 536 CURVE SMOOTH",
"129 536 OFFCURVE",
"55 437 OFFCURVE",
"55 275 CURVE SMOOTH",
"55 255 LINE SMOOTH",
"55 93 OFFCURVE",
"129 -6 OFFCURVE"
);
},
{
closed = 1;
nodes = (
"263 14 CURVE SMOOTH",
"141 14 OFFCURVE",
"75 107 OFFCURVE",
"75 255 CURVE SMOOTH",
"75 275 LINE SMOOTH",
"75 423 OFFCURVE",
"141 516 OFFCURVE",
"263 516 CURVE SMOOTH",
"385 516 OFFCURVE",
"451 423 OFFCURVE",
"451 275 CURVE SMOOTH",
"451 255 LINE SMOOTH",
"451 107 OFFCURVE",
"385 14 OFFCURVE"
);
}
);
width = 526;
},
{
anchors = (
{
name = bottom;
position = "{280, 0}";
},
{
name = top;
position = "{280, 530}";
}
);
layerId = "8A6A1EBA-5B98-4308-8E77-A32B8A512EB8";
name = Bold;
paths = (
{
closed = 1;
nodes = (
"280 -14 CURVE SMOOTH",
"455 -14 OFFCURVE",
"535 90 OFFCURVE",
"535 245 CURVE SMOOTH",
"535 285 LINE SMOOTH",
"535 440 OFFCURVE",
"455 544 OFFCURVE",
"280 544 CURVE SMOOTH",
"105 544 OFFCURVE",
"25 440 OFFCURVE",
"25 285 CURVE SMOOTH",
"25 245 LINE SMOOTH",
"25 90 OFFCURVE",
"105 -14 OFFCURVE"
);
},
{
closed = 1;
nodes = (
"280 144 CURVE SMOOTH",
"230 144 OFFCURVE",
"208 180 OFFCURVE",
"208 245 CURVE SMOOTH",
"208 285 LINE SMOOTH",
"208 350 OFFCURVE",
"230 386 OFFCURVE",
"280 386 CURVE SMOOTH",
"330 386 OFFCURVE",
"352 350 OFFCURVE",
"352 285 CURVE SMOOTH",
"352 245 LINE SMOOTH",
"352 180 OFFCURVE",
"330 144 OFFCURVE"
);
}
);
width = 560;
}
);
unicode = 006F;
},
{
glyphname = p;
lastChange = "2015-06-21 20:09:14 +0000";
layers = (
{
anchors = (
{
name = bottom.cap;
position = "{80, -200}";
},
{
name = top;
position = "{252, 530}";
}
);
layerId = "7E0ECC91-5B8E-4D6E-BF07-DE660E899F7B";
name = Light;
paths = (
{
closed = 1;
nodes = (
"252 -6 CURVE SMOOTH",
"386 -6 OFFCURVE",
"455 93 OFFCURVE",
"455 255 CURVE SMOOTH",
"455 275 LINE SMOOTH",
"455 437 OFFCURVE",
"386 536 OFFCURVE",
"252 536 CURVE SMOOTH",
"165 536 OFFCURVE",
"111 486 OFFCURVE",
"87 451 CURVE",
"80 530 LINE",
"65 530 LINE",
"70 410 LINE",
"70 -200 LINE",
"90 -200 LINE",
"90 75 LINE",
"116 40 OFFCURVE",
"168 -6 OFFCURVE"
);
},
{
closed = 1;
nodes = (
"90 423 LINE",
"117 464 OFFCURVE",
"166 516 OFFCURVE",
"252 516 CURVE SMOOTH",
"374 516 OFFCURVE",
"435 423 OFFCURVE",
"435 275 CURVE SMOOTH",
"435 255 LINE SMOOTH",
"435 107 OFFCURVE",
"374 14 OFFCURVE",
"252 14 CURVE SMOOTH",
"166 14 OFFCURVE",
"117 66 OFFCURVE",
"90 107 CURVE"
);
}
);
width = 510;
},
{
anchors = (
{
name = bottom.cap;
position = "{141, -200}";
},
{
name = top;
position = "{305, 530}";
}
);
layerId = "8A6A1EBA-5B98-4308-8E77-A32B8A512EB8";
name = Bold;
paths = (
{
closed = 1;
nodes = (
"365 -14 CURVE SMOOTH",
"510 -14 OFFCURVE",
"560 90 OFFCURVE",
"560 245 CURVE SMOOTH",
"560 285 LINE SMOOTH",
"560 440 OFFCURVE",
"510 544 OFFCURVE",
"365 544 CURVE SMOOTH",
"293 544 OFFCURVE",
"246 513 OFFCURVE",
"216 468 CURVE",
"205 530 LINE",
"39 530 LINE",
"49 380 LINE",
"49 -200 LINE",
"233 -200 LINE",
"233 40 LINE",
"263 7 OFFCURVE",
"305 -14 OFFCURVE"
);
},
{
closed = 1;
nodes = (
"233 345 LINE",
"243 360 OFFCURVE",
"270 386 OFFCURVE",
"310 386 CURVE SMOOTH",
"360 386 OFFCURVE",
"377 350 OFFCURVE",
"377 285 CURVE SMOOTH",
"377 245 LINE SMOOTH",
"377 180 OFFCURVE",
"360 144 OFFCURVE",
"310 144 CURVE SMOOTH",
"270 144 OFFCURVE",
"243 170 OFFCURVE",
"233 185 CURVE"
);
}
);
width = 585;
}
);
unicode = 0070;
},
{
glyphname = q;
lastChange = "2015-06-21 20:09:14 +0000";
layers = (
{
anchors = (
{
name = bottom.cap;
position = "{430, -200}";
},
{
name = top;
position = "{258, 530}";
}
);
layerId = "7E0ECC91-5B8E-4D6E-BF07-DE660E899F7B";
name = Light;
paths = (
{
closed = 1;
nodes = (
"420 -200 LINE",
"440 -200 LINE",
"440 410 LINE",
"445 530 LINE",
"430 530 LINE",
"423 451 LINE",
"398 486 OFFCURVE",
"345 536 OFFCURVE",
"258 536 CURVE SMOOTH",
"124 536 OFFCURVE",
"55 437 OFFCURVE",
"55 275 CURVE SMOOTH",
"55 255 LINE SMOOTH",
"55 93 OFFCURVE",
"124 -6 OFFCURVE",
"258 -6 CURVE SMOOTH",
"342 -6 OFFCURVE",
"394 40 OFFCURVE",
"420 75 CURVE"
);
},
{
closed = 1;
nodes = (
"420 107 LINE",
"393 66 OFFCURVE",
"344 14 OFFCURVE",
"258 14 CURVE SMOOTH",
"136 14 OFFCURVE",
"75 107 OFFCURVE",
"75 255 CURVE SMOOTH",
"75 275 LINE SMOOTH",
"75 423 OFFCURVE",
"136 516 OFFCURVE",
"258 516 CURVE SMOOTH",
"344 516 OFFCURVE",
"393 464 OFFCURVE",
"420 423 CURVE"
);
}
);
width = 510;
},
{
anchors = (
{
name = bottom.cap;
position = "{447, -200}";
},
{
name = top;
position = "{280, 530}";
}
);
layerId = "8A6A1EBA-5B98-4308-8E77-A32B8A512EB8";
name = Bold;
paths = (
{
closed = 1;
nodes = (
"355 -200 LINE",
"539 -200 LINE",
"539 380 LINE",
"549 530 LINE",
"383 530 LINE",
"371 468 LINE",
"341 513 OFFCURVE",
"295 544 OFFCURVE",
"223 544 CURVE SMOOTH",
"78 544 OFFCURVE",
"28 440 OFFCURVE",
"28 285 CURVE SMOOTH",
"28 245 LINE SMOOTH",
"28 90 OFFCURVE",
"78 -14 OFFCURVE",
"223 -14 CURVE SMOOTH",
"282 -14 OFFCURVE",
"325 7 OFFCURVE",
"355 40 CURVE"
);
},
{
closed = 1;
nodes = (
"355 185 LINE",
"345 170 OFFCURVE",
"318 144 OFFCURVE",
"278 144 CURVE SMOOTH",
"228 144 OFFCURVE",
"211 180 OFFCURVE",
"211 245 CURVE SMOOTH",
"211 285 LINE SMOOTH",
"211 350 OFFCURVE",
"228 386 OFFCURVE",
"278 386 CURVE SMOOTH",
"318 386 OFFCURVE",
"345 360 OFFCURVE",
"355 345 CURVE"
);
}
);
width = 593;
}
);
unicode = 0071;
},
{
glyphname = r;
lastChange = "2015-06-21 20:09:14 +0000";
layers = (
{
anchors = (
{
name = bottom;
position = "{80, -0}";
},
{
name = top;
position = "{161, 530}";
}
);
layerId = "7E0ECC91-5B8E-4D6E-BF07-DE660E899F7B";
name = Light;
paths = (
{
closed = 1;
nodes = (
"240 536 CURVE SMOOTH",
"160 536 OFFCURVE",
"111 489 OFFCURVE",
"87 449 CURVE",
"80 530 LINE",
"65 530 LINE",
"70 410 LINE",
"70 0 LINE",
"90 0 LINE",
"90 421 LINE",
"110 465 OFFCURVE",
"158 516 OFFCURVE",
"246 516 CURVE SMOOTH",
"255 516 LINE",
"255 535 LINE",
"255 535 OFFCURVE",
"249 536 OFFCURVE"
);
}
);
width = 297;
},
{
anchors = (
{
name = bottom;
position = "{142, 0}";
},
{
name = top;
position = "{210, 530}";
}
);
layerId = "8A6A1EBA-5B98-4308-8E77-A32B8A512EB8";
name = Bold;
paths = (
{
closed = 1;
nodes = (
"356 544 CURVE SMOOTH",
"296 544 OFFCURVE",
"249 515 OFFCURVE",
"217 471 CURVE",
"206 530 LINE",
"40 530 LINE",
"50 380 LINE",
"50 0 LINE",
"234 0 LINE",
"234 320 LINE",
"246 335 OFFCURVE",
"281 355 OFFCURVE",
"341 355 CURVE SMOOTH",
"371 355 LINE",
"371 543 LINE",
"366 544 OFFCURVE",
"361 544 OFFCURVE"
);
}
);
width = 400;
}
);
unicode = 0072;
},
{
glyphname = s;
lastChange = "2015-06-21 20:09:14 +0000";
layers = (
{
anchors = (
{
name = bottom;
position = "{240, 0}";
},
{
name = top;
position = "{240, 529}";
}
);
layerId = "7E0ECC91-5B8E-4D6E-BF07-DE660E899F7B";
name = Light;
paths = (
{
closed = 1;
nodes = (
"240 14 CURVE SMOOTH",
"104 14 OFFCURVE",
"70 85 OFFCURVE",
"70 160 CURVE",
"50 160 LINE",
"50 156 LINE SMOOTH",
"50 78 OFFCURVE",
"90 -6 OFFCURVE",
"240 -6 CURVE SMOOTH",
"359 -6 OFFCURVE",
"430 52 OFFCURVE",
"430 137 CURVE SMOOTH",
"430 143 LINE SMOOTH",
"430 232 OFFCURVE",
"384 266 OFFCURVE",
"250 278 CURVE SMOOTH",
"108 291 OFFCURVE",
"75 324 OFFCURVE",
"75 395 CURVE SMOOTH",
"75 472 OFFCURVE",
"139 516 OFFCURVE",
"240 516 CURVE SMOOTH",
"367 516 OFFCURVE",
"405 455 OFFCURVE",
"405 360 CURVE",
"425 360 LINE",
"425 364 LINE SMOOTH",
"425 461 OFFCURVE",
"378 536 OFFCURVE",
"240 536 CURVE SMOOTH",
"124 536 OFFCURVE",
"55 480 OFFCURVE",
"55 398 CURVE SMOOTH",
"55 392 LINE SMOOTH",
"55 321 OFFCURVE",
"90 276 OFFCURVE",
"230 262 CURVE SMOOTH",
"352 252 OFFCURVE",
"410 232 OFFCURVE",
"410 140 CURVE SMOOTH",
"410 62 OFFCURVE",
"345 14 OFFCURVE"
);
}
);
width = 480;
},
{
anchors = (
{
name = bottom;
position = "{265, 3}";
},
{
name = top;
position = "{265, 529}";
}
);
layerId = "8A6A1EBA-5B98-4308-8E77-A32B8A512EB8";
name = Bold;
paths = (
{
closed = 1;
nodes = (
"265 124 CURVE SMOOTH",
"227 124 OFFCURVE",
"211 141 OFFCURVE",
"211 170 CURVE",
"28 170 LINE",
"28 165 LINE SMOOTH",
"28 55 OFFCURVE",
"109 -14 OFFCURVE",
"265 -14 CURVE SMOOTH",
"424 -14 OFFCURVE",
"502 55 OFFCURVE",
"502 171 CURVE SMOOTH",
"502 181 LINE SMOOTH",
"502 297 OFFCURVE",
"406 321 OFFCURVE",
"273 332 CURVE SMOOTH",
"228 336 OFFCURVE",
"215 345 OFFCURVE",
"215 370 CURVE SMOOTH",
"215 391 OFFCURVE",
"232 406 OFFCURVE",
"265 406 CURVE SMOOTH",
"298 406 OFFCURVE",
"315 387 OFFCURVE",
"315 355 CURVE",
"495 355 LINE",
"495 360 LINE SMOOTH",
"495 477 OFFCURVE",
"424 544 OFFCURVE",
"265 544 CURVE SMOOTH",
"139 544 OFFCURVE",
"35 495 OFFCURVE",
"35 364 CURVE SMOOTH",
"35 354 LINE SMOOTH",
"35 248 OFFCURVE",
"106 215 OFFCURVE",
"258 203 CURVE SMOOTH",
"308 199 OFFCURVE",
"318 185 OFFCURVE",
"318 163 CURVE SMOOTH",
"318 142 OFFCURVE",
"305 124 OFFCURVE"
);
}
);
width = 530;
}
);
unicode = 0073;
},
{
glyphname = t;
lastChange = "2015-06-21 20:09:14 +0000";
layers = (
{
anchors = (
{
name = bottom;
position = "{207, 0}";
},
{
name = top.cap;
position = "{126, 660}";
},
{
name = topright.cap;
position = "{135, 780}";
}
);
layerId = "7E0ECC91-5B8E-4D6E-BF07-DE660E899F7B";
name = Light;
paths = (
{
closed = 1;
nodes = (
"135 530 LINE",
"135 680 LINE",
"115 680 LINE",
"115 530 LINE",
"30 530 LINE",
"30 510 LINE",
"115 510 LINE",
"115 129 LINE SMOOTH",
"115 21 OFFCURVE",
"176 -6 OFFCURVE",
"246 -6 CURVE SMOOTH",
"283 -6 OFFCURVE",
"305 2 OFFCURVE",
"310 4 CURVE",
"310 24 LINE",
"302 20 OFFCURVE",
"275 14 OFFCURVE",
"250 14 CURVE SMOOTH",
"182 14 OFFCURVE",
"135 36 OFFCURVE",
"135 135 CURVE SMOOTH",
"135 510 LINE",
"320 510 LINE",
"320 530 LINE"
);
}
);
width = 360;
},
{
anchors = (
{
name = bottom;
position = "{239, 0}";
},
{
name = top.cap;
position = "{187, 660}";
},
{
name = topright.cap;
position = "{279, 779}";
}
);
layerId = "8A6A1EBA-5B98-4308-8E77-A32B8A512EB8";
name = Bold;
paths = (
{
closed = 1;
nodes = (
"279 530 LINE",
"279 680 LINE",
"95 680 LINE",
"95 530 LINE",
"15 530 LINE",
"15 370 LINE",
"95 370 LINE",
"95 195 LINE SMOOTH",
"95 40 OFFCURVE",
"180 -14 OFFCURVE",
"307 -14 CURVE SMOOTH",
"357 -14 OFFCURVE",
"387 -5 OFFCURVE",
"396 0 CURVE",
"396 150 LINE",
"391 148 OFFCURVE",
"366 144 OFFCURVE",
"350 144 CURVE SMOOTH",
"308 144 OFFCURVE",
"279 155 OFFCURVE",
"279 215 CURVE SMOOTH",
"279 370 LINE",
"406 370 LINE",
"406 530 LINE"
);
}
);
width = 440;
}
);
unicode = 0074;
},
{
glyphname = u;
lastChange = "2015-06-21 20:09:14 +0000";
layers = (
{
anchors = (
{
name = bottom;
position = "{240, 0}";
},
{
name = top;
position = "{240, 530}";
}
);
layerId = "7E0ECC91-5B8E-4D6E-BF07-DE660E899F7B";
name = Light;
paths = (
{
closed = 1;
nodes = (
"60 530 LINE",
"60 150 LINE SMOOTH",
"60 43 OFFCURVE",
"116 -6 OFFCURVE",
"219 -6 CURVE SMOOTH",
"316 -6 OFFCURVE",
"373 39 OFFCURVE",
"402 81 CURVE",
"410 0 LINE",
"425 0 LINE",
"420 120 LINE",
"420 530 LINE",
"400 530 LINE",
"400 107 LINE",
"373 64 OFFCURVE",
"317 14 OFFCURVE",
"221 14 CURVE SMOOTH",
"130 14 OFFCURVE",
"80 50 OFFCURVE",
"80 155 CURVE SMOOTH",
"80 530 LINE"
);
}
);
width = 490;
},
{
anchors = (
{
name = bottom;
position = "{293, 0}";
},
{
name = top;
position = "{293, 530}";
}
);
layerId = "8A6A1EBA-5B98-4308-8E77-A32B8A512EB8";
name = Bold;
paths = (
{
closed = 1;
nodes = (
"44 530 LINE",
"44 175 LINE SMOOTH",
"44 80 OFFCURVE",
"84 -14 OFFCURVE",
"209 -14 CURVE SMOOTH",
"288 -14 OFFCURVE",
"342 18 OFFCURVE",
"376 65 CURVE",
"389 0 LINE",
"555 0 LINE",
"545 150 LINE",
"545 530 LINE",
"361 530 LINE",
"361 185 LINE",
"351 170 OFFCURVE",
"324 144 OFFCURVE",
"284 144 CURVE SMOOTH",
"234 144 OFFCURVE",
"228 180 OFFCURVE",
"228 205 CURVE SMOOTH",
"228 530 LINE"
);
}
);
width = 595;
}
);
unicode = 0075;
},
{
glyphname = uogonek;
lastChange = "2015-06-21 20:09:14 +0000";
layers = (
{
anchors = (
{
name = bottom;
position = "{240, -206}";
},
{
name = top;
position = "{240, 530}";
}
);
layerId = "7E0ECC91-5B8E-4D6E-BF07-DE660E899F7B";
name = Light;
paths = (
{
closed = 1;
nodes = (
"464 -172 LINE",
"449 -179 OFFCURVE",
"425 -188 OFFCURVE",
"391 -188 CURVE SMOOTH",
"353 -188 OFFCURVE",
"318 -170 OFFCURVE",
"318 -115 CURVE SMOOTH",
"318 -45 OFFCURVE",
"378 -15 OFFCURVE",
"425 0 CURVE",
"420 120 LINE",
"420 530 LINE",
"400 530 LINE",
"400 107 LINE",
"373 64 OFFCURVE",
"317 14 OFFCURVE",
"221 14 CURVE SMOOTH",
"130 14 OFFCURVE",
"80 50 OFFCURVE",
"80 155 CURVE SMOOTH",
"80 530 LINE",
"60 530 LINE",
"60 150 LINE SMOOTH",
"60 43 OFFCURVE",
"116 -6 OFFCURVE",
"219 -6 CURVE SMOOTH",
"316 -6 OFFCURVE",
"373 39 OFFCURVE",
"402 81 CURVE",
"408 12 LINE",
"353 -8 OFFCURVE",
"300 -39 OFFCURVE",
"300 -115 CURVE SMOOTH",
"300 -180 OFFCURVE",
"344 -206 OFFCURVE",
"391 -206 CURVE SMOOTH",
"430 -206 OFFCURVE",
"452 -197 OFFCURVE",
"470 -188 CURVE"
);
}
);
width = 490;
},
{
anchors = (
{
name = bottom;
position = "{293, -216}";
},
{
name = top;
position = "{293, 530}";
}
);
layerId = "8A6A1EBA-5B98-4308-8E77-A32B8A512EB8";
name = Bold;
paths = (
{
closed = 1;
nodes = (
"574 -80 LINE",
"568 -84 OFFCURVE",
"556 -90 OFFCURVE",
"538 -90 CURVE SMOOTH",
"515 -90 OFFCURVE",
"500 -77 OFFCURVE",
"500 -58 CURVE SMOOTH",
"500 -35 OFFCURVE",
"517 -17 OFFCURVE",
"555 0 CURVE",
"545 150 LINE",
"545 530 LINE",
"361 530 LINE",
"361 185 LINE",
"351 170 OFFCURVE",
"324 144 OFFCURVE",
"284 144 CURVE SMOOTH",
"234 144 OFFCURVE",
"228 180 OFFCURVE",
"228 205 CURVE SMOOTH",
"228 530 LINE",
"44 530 LINE",
"44 175 LINE SMOOTH",
"44 80 OFFCURVE",
"84 -14 OFFCURVE",
"209 -14 CURVE SMOOTH",
"288 -14 OFFCURVE",
"342 18 OFFCURVE",
"376 65 CURVE",
"392 -17 LINE",
"375 -42 OFFCURVE",
"365 -72 OFFCURVE",
"365 -105 CURVE SMOOTH",
"365 -180 OFFCURVE",
"422 -216 OFFCURVE",
"507 -216 CURVE SMOOTH",
"552 -216 OFFCURVE",
"594 -203 OFFCURVE",
"615 -190 CURVE"
);
}
);
width = 595;
}
);
unicode = 0173;
},
{
glyphname = v;
lastChange = "2015-06-21 20:09:14 +0000";
layers = (
{
anchors = (
{
name = bottom;
position = "{240, 0}";
},
{
name = top;
position = "{240, 530}";
}
);
layerId = "7E0ECC91-5B8E-4D6E-BF07-DE660E899F7B";
name = Light;
paths = (
{
closed = 1;
nodes = (
"230 0 LINE",
"250 0 LINE",
"450 530 LINE",
"428 530 LINE",
"240 25 LINE",
"52 530 LINE",
"30 530 LINE"
);
}
);
width = 480;
},
{
anchors = (
{
name = bottom;
position = "{280, 0}";
},
{
name = top;
position = "{280, 530}";
}
);
layerId = "8A6A1EBA-5B98-4308-8E77-A32B8A512EB8";
name = Bold;
paths = (
{
closed = 1;
nodes = (
"150 0 LINE",
"410 0 LINE",
"555 530 LINE",
"365 530 LINE",
"280 145 LINE",
"195 530 LINE",
"5 530 LINE"
);
}
);
width = 560;
}
);
unicode = 0076;
},
{
glyphname = w;
lastChange = "2015-06-21 20:09:14 +0000";
layers = (
{
anchors = (
{
name = bottom;
position = "{335, 0}";
},
{
name = top;
position = "{335, 530}";
}
);
layerId = "7E0ECC91-5B8E-4D6E-BF07-DE660E899F7B";
name = Light;
paths = (
{
closed = 1;
nodes = (
"335 498 LINE",
"487 0 LINE",
"511 0 LINE",
"637 530 LINE",
"616 530 LINE",
"498 26 LINE",
"345 530 LINE",
"325 530 LINE",
"172 26 LINE",
"54 530 LINE",
"33 530 LINE",
"159 0 LINE",
"183 0 LINE"
);
}
);
width = 670;
},
{
anchors = (
{
name = bottom;
position = "{390, 0}";
},
{
name = top;
position = "{390, 530}";
}
);
layerId = "8A6A1EBA-5B98-4308-8E77-A32B8A512EB8";
name = Bold;
paths = (
{
closed = 1;
nodes = (
"390 340 LINE",
"450 0 LINE",
"680 0 LINE",
"765 530 LINE",
"585 530 LINE",
"560 200 LINE",
"500 530 LINE",
"280 530 LINE",
"220 200 LINE",
"195 530 LINE",
"15 530 LINE",
"100 0 LINE",
"330 0 LINE"
);
}
);
width = 780;
}
);
unicode = 0077;
},
{
glyphname = x;
lastChange = "2015-06-21 20:09:14 +0000";
layers = (
{
anchors = (
{
name = bottom;
position = "{220, 0}";
},
{
name = top;
position = "{220, 530}";
}
);
layerId = "7E0ECC91-5B8E-4D6E-BF07-DE660E899F7B";
name = Light;
paths = (
{
closed = 1;
nodes = (
"21 530 LINE",
"208 268 LINE",
"21 0 LINE",
"45 0 LINE",
"220 253 LINE",
"395 0 LINE",
"419 0 LINE",
"232 268 LINE",
"419 530 LINE",
"395 530 LINE",
"220 284 LINE",
"45 530 LINE"
);
}
);
width = 440;
},
{
anchors = (
{
name = bottom;
position = "{290, 0}";
},
{
name = top;
position = "{290, 530}";
}
);
layerId = "8A6A1EBA-5B98-4308-8E77-A32B8A512EB8";
name = Bold;
paths = (
{
closed = 1;
nodes = (
"15 530 LINE",
"143 275 LINE",
"15 0 LINE",
"221 0 LINE",
"290 172 LINE",
"359 0 LINE",
"565 0 LINE",
"436 275 LINE",
"565 530 LINE",
"353 530 LINE",
"290 362 LINE",
"227 530 LINE"
);
}
);
width = 580;
}
);
unicode = 0078;
},
{
glyphname = y;
lastChange = "2015-06-21 20:09:14 +0000";
layers = (
{
anchors = (
{
name = bottom.cap;
position = "{149, -200}";
},
{
name = top;
position = "{230, 530}";
}
);
layerId = "7E0ECC91-5B8E-4D6E-BF07-DE660E899F7B";
name = Light;
paths = (
{
closed = 1;
nodes = (
"230 44 LINE",
"49 530 LINE",
"27 530 LINE",
"221 18 LINE",
"139 -200 LINE",
"158 -200 LINE",
"239 18 LINE",
"433 530 LINE",
"411 530 LINE"
);
}
);
width = 460;
},
{
anchors = (
{
name = bottom.cap;
position = "{209, -200}";
},
{
name = top;
position = "{285, 530}";
}
);
layerId = "8A6A1EBA-5B98-4308-8E77-A32B8A512EB8";
name = Bold;
paths = (
{
closed = 1;
nodes = (
"285 220 LINE",
"200 530 LINE",
"0 530 LINE",
"185 30 LINE",
"99 -200 LINE",
"319 -200 LINE",
"385 30 LINE",
"570 530 LINE",
"370 530 LINE"
);
}
);
width = 570;
}
);
unicode = 0079;
},
{
glyphname = z;
lastChange = "2015-06-21 20:09:14 +0000";
layers = (
{
anchors = (
{
name = bottom;
position = "{215, 0}";
},
{
name = top;
position = "{215, 530}";
}
);
layerId = "7E0ECC91-5B8E-4D6E-BF07-DE660E899F7B";
name = Light;
paths = (
{
closed = 1;
nodes = (
"35 15 LINE",
"35 0 LINE",
"395 0 LINE",
"395 20 LINE",
"175 20 LINE",
"61 19 LINE",
"385 515 LINE",
"385 530 LINE",
"45 530 LINE",
"45 510 LINE",
"245 510 LINE",
"359 511 LINE"
);
}
);
width = 430;
},
{
anchors = (
{
name = bottom;
position = "{255, 0}";
},
{
name = top;
position = "{255, 530}";
}
);
layerId = "8A6A1EBA-5B98-4308-8E77-A32B8A512EB8";
name = Bold;
paths = (
{
closed = 1;
nodes = (
"20 126 LINE",
"20 0 LINE",
"490 0 LINE",
"490 160 LINE",
"370 160 LINE",
"262 156 LINE",
"480 404 LINE",
"480 530 LINE",
"30 530 LINE",
"30 370 LINE",
"130 370 LINE",
"238 374 LINE"
);
}
);
width = 510;
}
);
unicode = 007A;
},
{
glyphname = ordfeminine;
lastChange = "2015-06-21 20:09:14 +0000";
layers = (
{
layerId = "7E0ECC91-5B8E-4D6E-BF07-DE660E899F7B";
name = Light;
paths = (
{
closed = 1;
nodes = (
"307 388 LINE",
"322 388 LINE",
"319 485 LINE",
"319 649 LINE SMOOTH",
"319 722 OFFCURVE",
"292 786 OFFCURVE",
"189 786 CURVE SMOOTH",
"82 786 OFFCURVE",
"59 718 OFFCURVE",
"59 654 CURVE SMOOTH",
"59 646 LINE",
"79 646 LINE",
"79 711 OFFCURVE",
"95 766 OFFCURVE",
"189 766 CURVE SMOOTH",
"280 766 OFFCURVE",
"299 715 OFFCURVE",
"299 644 CURVE SMOOTH",
"299 617 LINE",
"308 627 LINE",
"166 604 LINE SMOOTH",
"108 594 OFFCURVE",
"42 579 OFFCURVE",
"42 490 CURVE SMOOTH",
"42 481 LINE SMOOTH",
"42 417 OFFCURVE",
"89 380 OFFCURVE",
"154 380 CURVE SMOOTH",
"236 380 OFFCURVE",
"279 419 OFFCURVE",
"301 450 CURVE"
);
},
{
closed = 1;
nodes = (
"284 453 OFFCURVE",
"248 400 OFFCURVE",
"155 400 CURVE SMOOTH",
"92 400 OFFCURVE",
"62 438 OFFCURVE",
"62 481 CURVE SMOOTH",
"62 491 LINE SMOOTH",
"62 556 OFFCURVE",
"106 575 OFFCURVE",
"161 584 CURVE SMOOTH",
"299 607 LINE",
"299 479 LINE"
);
},
{
closed = 1;
nodes = (
"50 230 LINE",
"322 230 LINE",
"322 250 LINE",
"50 250 LINE"
);
}
);
width = 377;
},
{
layerId = "8A6A1EBA-5B98-4308-8E77-A32B8A512EB8";
name = Bold;
paths = (
{
closed = 1;
nodes = (
"273 387 LINE",
"418 387 LINE",
"410 499 LINE",
"410 640 LINE SMOOTH",
"410 741 OFFCURVE",
"366 794 OFFCURVE",
"224 794 CURVE SMOOTH",
"85 794 OFFCURVE",
"40 734 OFFCURVE",
"40 659 CURVE SMOOTH",
"40 652 LINE",
"190 652 LINE",
"190 663 OFFCURVE",
"197 676 OFFCURVE",
"220 676 CURVE SMOOTH",
"242 676 OFFCURVE",
"250 665 OFFCURVE",
"250 643 CURVE SMOOTH",
"250 621 LINE",
"269 655 LINE",
"175 640 LINE SMOOTH",
"80 626 OFFCURVE",
"25 595 OFFCURVE",
"25 509 CURVE SMOOTH",
"25 502 LINE SMOOTH",
"25 438 OFFCURVE",
"52 376 OFFCURVE",
"151 376 CURVE SMOOTH",
"201 376 OFFCURVE",
"239 393 OFFCURVE",
"266 421 CURVE"
);
},
{
closed = 1;
nodes = (
"240 509 OFFCURVE",
"225 503 OFFCURVE",
"212 503 CURVE SMOOTH",
"190 503 OFFCURVE",
"184 515 OFFCURVE",
"184 527 CURVE SMOOTH",
"184 530 LINE SMOOTH",
"184 542 OFFCURVE",
"190 554 OFFCURVE",
"211 557 CURVE SMOOTH",
"250 563 LINE",
"250 516 LINE"
);
},
{
closed = 1;
nodes = (
"37 172 LINE",
"415 172 LINE",
"415 309 LINE",
"37 309 LINE"
);
}
);
width = 440;
}
);
unicode = 00AA;
},
{
glyphname = ordmasculine;
lastChange = "2015-06-21 20:09:14 +0000";
layers = (
{
layerId = "7E0ECC91-5B8E-4D6E-BF07-DE660E899F7B";
name = Light;
paths = (
{
closed = 1;
nodes = (
"46 459 OFFCURVE",
"100 380 OFFCURVE",
"205 380 CURVE SMOOTH",
"310 380 OFFCURVE",
"364 459 OFFCURVE",
"364 576 CURVE SMOOTH",
"364 590 LINE SMOOTH",
"364 707 OFFCURVE",
"310 786 OFFCURVE",
"205 786 CURVE SMOOTH",
"100 786 OFFCURVE",
"46 707 OFFCURVE",
"46 590 CURVE SMOOTH",
"46 576 LINE SMOOTH"
);
},
{
closed = 1;
nodes = (
"344 468 OFFCURVE",
"296 400 OFFCURVE",
"205 400 CURVE SMOOTH",
"114 400 OFFCURVE",
"66 468 OFFCURVE",
"66 576 CURVE SMOOTH",
"66 590 LINE SMOOTH",
"66 698 OFFCURVE",
"114 766 OFFCURVE",
"205 766 CURVE SMOOTH",
"296 766 OFFCURVE",
"344 698 OFFCURVE",
"344 590 CURVE SMOOTH",
"344 576 LINE SMOOTH"
);
},
{
closed = 1;
nodes = (
"56 230 LINE",
"354 230 LINE",
"354 250 LINE",
"56 250 LINE"
);
}
);
width = 410;
},
{
layerId = "8A6A1EBA-5B98-4308-8E77-A32B8A512EB8";
name = Bold;
paths = (
{
closed = 1;
nodes = (
"28 452 OFFCURVE",
"90 376 OFFCURVE",
"225 376 CURVE SMOOTH",
"359 376 OFFCURVE",
"422 452 OFFCURVE",
"422 569 CURVE SMOOTH",
"422 602 LINE SMOOTH",
"422 719 OFFCURVE",
"359 795 OFFCURVE",
"225 795 CURVE SMOOTH",
"90 795 OFFCURVE",
"28 719 OFFCURVE",
"28 602 CURVE SMOOTH",
"28 569 LINE SMOOTH"
);
},
{
closed = 1;
nodes = (
"263 531 OFFCURVE",
"252 513 OFFCURVE",
"225 513 CURVE SMOOTH",
"198 513 OFFCURVE",
"187 531 OFFCURVE",
"187 569 CURVE SMOOTH",
"187 602 LINE SMOOTH",
"187 640 OFFCURVE",
"198 658 OFFCURVE",
"225 658 CURVE SMOOTH",
"252 658 OFFCURVE",
"263 640 OFFCURVE",
"263 602 CURVE SMOOTH",
"263 569 LINE SMOOTH"
);
},
{
closed = 1;
nodes = (
"38 172 LINE",
"412 172 LINE",
"412 309 LINE",
"38 309 LINE"
);
}
);
width = 450;
}
);
unicode = 00BA;
},
{
glyphname = germandbls;
lastChange = "2015-06-21 20:09:14 +0000";
layers = (
{
anchors = (
{
name = bottom;
position = "{260, 0}";
},
{
name = top.cap;
position = "{260, 780}";
}
);
layerId = "7E0ECC91-5B8E-4D6E-BF07-DE660E899F7B";
name = Light;
paths = (
{
closed = 1;
nodes = (
"259 393 LINE",
"315 356 LINE SMOOTH",
"417 289 OFFCURVE",
"490 250 OFFCURVE",
"490 160 CURVE SMOOTH",
"490 85 OFFCURVE",
"456 14 OFFCURVE",
"350 14 CURVE SMOOTH",
"244 14 OFFCURVE",
"210 85 OFFCURVE",
"210 160 CURVE",
"190 160 LINE",
"190 156 LINE SMOOTH",
"190 78 OFFCURVE",
"230 -6 OFFCURVE",
"350 -6 CURVE SMOOTH",
"470 -6 OFFCURVE",
"510 78 OFFCURVE",
"510 157 CURVE SMOOTH",
"510 163 LINE SMOOTH",
"510 252 OFFCURVE",
"449 291 OFFCURVE",
"335 366 CURVE SMOOTH",
"283 400 LINE",
"400 468 OFFCURVE",
"440 520 OFFCURVE",
"440 608 CURVE SMOOTH",
"440 614 LINE SMOOTH",
"440 722 OFFCURVE",
"390 806 OFFCURVE",
"260 806 CURVE SMOOTH",
"130 806 OFFCURVE",
"80 722 OFFCURVE",
"80 614 CURVE SMOOTH",
"80 0 LINE",
"100 0 LINE",
"100 610 LINE SMOOTH",
"100 715 OFFCURVE",
"145 786 OFFCURVE",
"260 786 CURVE SMOOTH",
"375 786 OFFCURVE",
"420 715 OFFCURVE",
"420 610 CURVE SMOOTH",
"420 518 OFFCURVE",
"371 470 OFFCURVE",
"259 408 CURVE"
);
}
);
width = 550;
},
{
anchors = (
{
name = bottom;
position = "{307, 0}";
},
{
name = top.cap;
position = "{307, 780}";
}
);
layerId = "8A6A1EBA-5B98-4308-8E77-A32B8A512EB8";
name = Bold;
paths = (
{
closed = 1;
nodes = (
"291 324 LINE",
"389 256 LINE SMOOTH",
"436 224 OFFCURVE",
"448 185 OFFCURVE",
"448 163 CURVE SMOOTH",
"448 142 OFFCURVE",
"445 124 OFFCURVE",
"425 124 CURVE SMOOTH",
"407 124 OFFCURVE",
"401 141 OFFCURVE",
"401 170 CURVE",
"258 170 LINE",
"258 161 LINE SMOOTH",
"258 65 OFFCURVE",
"291 -14 OFFCURVE",
"440 -14 CURVE SMOOTH",
"589 -14 OFFCURVE",
"632 70 OFFCURVE",
"632 166 CURVE SMOOTH",
"632 176 LINE SMOOTH",
"632 257 OFFCURVE",
"583 327 OFFCURVE",
"494 387 CURVE SMOOTH",
"478 398 LINE",
"534 441 OFFCURVE",
"569 494 OFFCURVE",
"569 579 CURVE SMOOTH",
"569 590 LINE SMOOTH",
"569 705 OFFCURVE",
"488 814 OFFCURVE",
"307 814 CURVE SMOOTH",
"113 814 OFFCURVE",
"44 713 OFFCURVE",
"44 589 CURVE SMOOTH",
"44 0 LINE",
"228 0 LINE",
"228 580 LINE SMOOTH",
"228 615 OFFCURVE",
"250 656 OFFCURVE",
"307 656 CURVE SMOOTH",
"363 656 OFFCURVE",
"385 621 OFFCURVE",
"385 570 CURVE SMOOTH",
"385 514 OFFCURVE",
"343 467 OFFCURVE",
"291 439 CURVE"
);
}
);
width = 650;
}
);
unicode = 00DF;
},
{
glyphname = ae;
lastChange = "2015-06-21 20:09:14 +0000";
layers = (
{
anchors = (
{
name = bottom;
position = "{400, 0}";
},
{
name = top;
position = "{400, 530}";
}
);
layerId = "7E0ECC91-5B8E-4D6E-BF07-DE660E899F7B";
name = Light;
paths = (
{
closed = 1;
nodes = (
"810 255 LINE",
"810 275 LINE SMOOTH",
"810 421 OFFCURVE",
"748 536 OFFCURVE",
"600 536 CURVE SMOOTH",
"493 536 OFFCURVE",
"432 476 OFFCURVE",
"407 387 CURVE",
"401 466 OFFCURVE",
"364 536 OFFCURVE",
"240 536 CURVE SMOOTH",
"102 536 OFFCURVE",
"70 450 OFFCURVE",
"70 361 CURVE SMOOTH",
"70 350 LINE",
"90 350 LINE",
"90 440 OFFCURVE",
"110 516 OFFCURVE",
"240 516 CURVE SMOOTH",
"370 516 OFFCURVE",
"390 440 OFFCURVE",
"390 350 CURVE SMOOTH",
"390 308 LINE",
"399 318 LINE",
"210 288 LINE SMOOTH",
"133 277 OFFCURVE",
"47 255 OFFCURVE",
"47 135 CURVE SMOOTH",
"47 125 LINE SMOOTH",
"47 40 OFFCURVE",
"110 -6 OFFCURVE",
"195 -6 CURVE SMOOTH",
"327 -6 OFFCURVE",
"388 67 OFFCURVE",
"414 118 CURVE",
"445 43 OFFCURVE",
"506 -6 OFFCURVE",
"605 -6 CURVE SMOOTH",
"752 -6 OFFCURVE",
"810 90 OFFCURVE",
"810 165 CURVE SMOOTH",
"810 170 LINE",
"790 170 LINE",
"790 99 OFFCURVE",
"741 14 OFFCURVE",
"605 14 CURVE SMOOTH",
"469 14 OFFCURVE",
"410 115 OFFCURVE",
"410 255 CURVE"
);
},
{
closed = 1;
nodes = (
"410 416 OFFCURVE",
"471 516 OFFCURVE",
"600 516 CURVE SMOOTH",
"729 516 OFFCURVE",
"790 416 OFFCURVE",
"790 275 CURVE",
"410 275 LINE"
);
},
{
closed = 1;
nodes = (
"390 255 LINE SMOOTH",
"390 214 OFFCURVE",
"395 177 OFFCURVE",
"405 143 CURVE",
"376 80 OFFCURVE",
"319 14 OFFCURVE",
"196 14 CURVE SMOOTH",
"109 14 OFFCURVE",
"67 67 OFFCURVE",
"67 125 CURVE SMOOTH",
"67 136 LINE SMOOTH",
"67 232 OFFCURVE",
"129 256 OFFCURVE",
"203 268 CURVE SMOOTH",
"399 299 LINE",
"390 307 LINE"
);
}
);
width = 865;
},
{
anchors = (
{
name = bottom;
position = "{424, 0}";
},
{
name = top;
position = "{424, 530}";
}
);
layerId = "8A6A1EBA-5B98-4308-8E77-A32B8A512EB8";
name = Bold;
paths = (
{
closed = 1;
nodes = (
"842 200 LINE",
"842 280 LINE SMOOTH",
"842 435 OFFCURVE",
"762 544 OFFCURVE",
"591 544 CURVE SMOOTH",
"525 544 OFFCURVE",
"476 525 OFFCURVE",
"441 493 CURVE",
"410 525 OFFCURVE",
"361 544 OFFCURVE",
"280 544 CURVE SMOOTH",
"100 544 OFFCURVE",
"45 460 OFFCURVE",
"45 364 CURVE SMOOTH",
"45 355 LINE",
"218 355 LINE",
"218 380 OFFCURVE",
"230 406 OFFCURVE",
"275 406 CURVE SMOOTH",
"318 406 OFFCURVE",
"332 385 OFFCURVE",
"332 340 CURVE",
"332 317 LINE",
"356 353 LINE",
"222 332 LINE SMOOTH",
"104 314 OFFCURVE",
"25 275 OFFCURVE",
"25 160 CURVE SMOOTH",
"25 150 LINE SMOOTH",
"25 65 OFFCURVE",
"70 -14 OFFCURVE",
"205 -14 CURVE SMOOTH",
"279 -14 OFFCURVE",
"349 14 OFFCURVE",
"401 55 CURVE",
"445 11 OFFCURVE",
"509 -14 OFFCURVE",
"597 -14 CURVE SMOOTH",
"751 -14 OFFCURVE",
"842 60 OFFCURVE",
"842 166 CURVE SMOOTH",
"842 170 LINE",
"669 170 LINE",
"669 145 OFFCURVE",
"638 124 OFFCURVE",
"598 124 CURVE SMOOTH",
"552 124 OFFCURVE",
"522 140 OFFCURVE",
"516 200 CURVE"
);
},
{
closed = 1;
nodes = (
"521 386 OFFCURVE",
"544 406 OFFCURVE",
"587 406 CURVE SMOOTH",
"630 406 OFFCURVE",
"653 386 OFFCURVE",
"658 330 CURVE",
"516 330 LINE"
);
},
{
closed = 1;
nodes = (
"332 239 LINE",
"332 214 OFFCURVE",
"335 190 OFFCURVE",
"341 168 CURVE",
"330 153 OFFCURVE",
"298 129 OFFCURVE",
"260 129 CURVE SMOOTH",
"222 129 OFFCURVE",
"208 151 OFFCURVE",
"208 172 CURVE SMOOTH",
"208 178 LINE SMOOTH",
"208 202 OFFCURVE",
"218 221 OFFCURVE",
"261 228 CURVE SMOOTH",
"350 242 LINE",
"332 257 LINE"
);
}
);
width = 856;
}
);
unicode = 00E6;
},
{
glyphname = eth;
lastChange = "2015-06-21 20:09:14 +0000";
layers = (
{
anchors = (
{
name = bottom;
position = "{263, 0}";
},
{
name = top.cap;
position = "{263, 780}";
}
);
layerId = "7E0ECC91-5B8E-4D6E-BF07-DE660E899F7B";
name = Light;
paths = (
{
closed = 1;
nodes = (
"56 786 LINE",
"103 779 OFFCURVE",
"166 761 OFFCURVE",
"227 724 CURVE",
"95 646 LINE",
"95 622 LINE",
"247 711 LINE",
"281 688 OFFCURVE",
"315 659 OFFCURVE",
"346 623 CURVE SMOOTH",
"395 564 OFFCURVE",
"424 493 OFFCURVE",
"438 423 CURVE",
"440 423 LINE",
"408 495 OFFCURVE",
"348 536 OFFCURVE",
"263 536 CURVE SMOOTH",
"129 536 OFFCURVE",
"55 437 OFFCURVE",
"55 275 CURVE SMOOTH",
"55 255 LINE SMOOTH",
"55 93 OFFCURVE",
"129 -6 OFFCURVE",
"263 -6 CURVE SMOOTH",
"397 -6 OFFCURVE",
"471 93 OFFCURVE",
"471 255 CURVE SMOOTH",
"471 275 LINE SMOOTH",
"471 392 OFFCURVE",
"449 532 OFFCURVE",
"359 637 CURVE SMOOTH",
"329 671 OFFCURVE",
"298 699 OFFCURVE",
"266 722 CURVE",
"366 782 LINE",
"366 806 LINE",
"247 736 LINE",
"183 777 OFFCURVE",
"118 798 OFFCURVE",
"56 806 CURVE"
);
},
{
closed = 1;
nodes = (
"263 14 CURVE SMOOTH",
"141 14 OFFCURVE",
"75 107 OFFCURVE",
"75 255 CURVE SMOOTH",
"75 275 LINE SMOOTH",
"75 423 OFFCURVE",
"141 516 OFFCURVE",
"263 516 CURVE SMOOTH",
"385 516 OFFCURVE",
"451 423 OFFCURVE",
"451 275 CURVE SMOOTH",
"451 255 LINE SMOOTH",
"451 107 OFFCURVE",
"385 14 OFFCURVE"
);
}
);
width = 526;
},
{
anchors = (
{
name = bottom;
position = "{280, 0}";
},
{
name = top.cap;
position = "{280, 780}";
}
);
layerId = "8A6A1EBA-5B98-4308-8E77-A32B8A512EB8";
name = Bold;
paths = (
{
closed = 1;
nodes = (
"25 650 LINE",
"57 647 OFFCURVE",
"88 642 OFFCURVE",
"116 636 CURVE",
"50 600 LINE",
"50 500 LINE",
"228 598 LINE",
"252 584 OFFCURVE",
"273 568 OFFCURVE",
"289 550 CURVE SMOOTH",
"310 526 OFFCURVE",
"330 498 OFFCURVE",
"346 472 CURVE",
"377 512 LINE",
"358 522 OFFCURVE",
"305 544 OFFCURVE",
"250 544 CURVE SMOOTH",
"105 544 OFFCURVE",
"25 440 OFFCURVE",
"25 285 CURVE SMOOTH",
"25 245 LINE SMOOTH",
"25 90 OFFCURVE",
"105 -14 OFFCURVE",
"280 -14 CURVE SMOOTH",
"455 -14 OFFCURVE",
"535 90 OFFCURVE",
"535 245 CURVE SMOOTH",
"535 285 LINE SMOOTH",
"535 409 OFFCURVE",
"515 542 OFFCURVE",
"432 653 CURVE SMOOTH",
"421 667 OFFCURVE",
"410 679 OFFCURVE",
"398 691 CURVE",
"440 714 LINE",
"440 814 LINE",
"318 747 LINE",
"236 790 OFFCURVE",
"133 807 OFFCURVE",
"25 814 CURVE"
);
},
{
closed = 1;
nodes = (
"280 144 CURVE SMOOTH",
"230 144 OFFCURVE",
"208 180 OFFCURVE",
"208 245 CURVE SMOOTH",
"208 285 LINE SMOOTH",
"208 350 OFFCURVE",
"230 386 OFFCURVE",
"280 386 CURVE SMOOTH",
"330 386 OFFCURVE",
"352 350 OFFCURVE",
"352 285 CURVE SMOOTH",
"352 245 LINE SMOOTH",
"352 180 OFFCURVE",
"330 144 OFFCURVE"
);
}
);
width = 560;
}
);
unicode = 00F0;
},
{
glyphname = oslash;
lastChange = "2015-06-21 20:09:14 +0000";
layers = (
{
anchors = (
{
name = bottom;
position = "{263, 0}";
},
{
name = top;
position = "{263, 530}";
}
);
components = (
{
name = o;
}
);
layerId = "7E0ECC91-5B8E-4D6E-BF07-DE660E899F7B";
name = Light;
paths = (
{
closed = 1;
nodes = (
"471 530 LINE",
"447 530 LINE",
"55 0 LINE",
"79 0 LINE"
);
}
);
width = 526;
},
{
anchors = (
{
name = bottom;
position = "{280, 0}";
},
{
name = top;
position = "{280, 530}";
}
);
components = (
{
name = o;
}
);
layerId = "8A6A1EBA-5B98-4308-8E77-A32B8A512EB8";
name = Bold;
paths = (
{
closed = 1;
nodes = (
"535 530 LINE",
"445 530 LINE",
"24 0 LINE",
"114 0 LINE"
);
}
);
width = 560;
}
);
unicode = 00F8;
},
{
glyphname = thorn;
lastChange = "2015-06-21 20:09:14 +0000";
layers = (
{
anchors = (
{
name = bottom.cap;
position = "{80, -200}";
},
{
name = top.cap;
position = "{80, 780}";
}
);
layerId = "7E0ECC91-5B8E-4D6E-BF07-DE660E899F7B";
name = Light;
paths = (
{
closed = 1;
nodes = (
"70 800 LINE",
"70 -200 LINE",
"90 -200 LINE",
"90 75 LINE",
"116 40 OFFCURVE",
"168 -6 OFFCURVE",
"252 -6 CURVE SMOOTH",
"386 -6 OFFCURVE",
"455 93 OFFCURVE",
"455 255 CURVE SMOOTH",
"455 275 LINE SMOOTH",
"455 437 OFFCURVE",
"386 536 OFFCURVE",
"252 536 CURVE SMOOTH",
"168 536 OFFCURVE",
"116 490 OFFCURVE",
"90 455 CURVE",
"90 800 LINE"
);
},
{
closed = 1;
nodes = (
"90 423 LINE",
"117 464 OFFCURVE",
"166 516 OFFCURVE",
"252 516 CURVE SMOOTH",
"374 516 OFFCURVE",
"435 423 OFFCURVE",
"435 275 CURVE SMOOTH",
"435 255 LINE SMOOTH",
"435 107 OFFCURVE",
"374 14 OFFCURVE",
"252 14 CURVE SMOOTH",
"166 14 OFFCURVE",
"117 66 OFFCURVE",
"90 107 CURVE"
);
}
);
width = 510;
},
{
anchors = (
{
name = bottom.cap;
position = "{140, -200}";
},
{
name = top.cap;
position = "{140, 780}";
}
);
layerId = "8A6A1EBA-5B98-4308-8E77-A32B8A512EB8";
name = Bold;
paths = (
{
closed = 1;
nodes = (
"48 800 LINE",
"48 -200 LINE",
"232 -200 LINE",
"232 41 LINE",
"262 7 OFFCURVE",
"305 -14 OFFCURVE",
"365 -14 CURVE SMOOTH",
"510 -14 OFFCURVE",
"560 90 OFFCURVE",
"560 245 CURVE SMOOTH",
"560 285 LINE SMOOTH",
"560 440 OFFCURVE",
"510 544 OFFCURVE",
"365 544 CURVE SMOOTH",
"305 544 OFFCURVE",
"262 522 OFFCURVE",
"232 489 CURVE",
"232 800 LINE"
);
},
{
closed = 1;
nodes = (
"233 345 LINE",
"243 360 OFFCURVE",
"270 386 OFFCURVE",
"310 386 CURVE SMOOTH",
"360 386 OFFCURVE",
"377 350 OFFCURVE",
"377 285 CURVE SMOOTH",
"377 245 LINE SMOOTH",
"377 180 OFFCURVE",
"360 144 OFFCURVE",
"310 144 CURVE SMOOTH",
"270 144 OFFCURVE",
"243 170 OFFCURVE",
"233 185 CURVE"
);
}
);
width = 585;
}
);
unicode = 00FE;
},
{
glyphname = dcroat;
lastChange = "2015-06-21 20:09:14 +0000";
layers = (
{
anchors = (
{
name = bottom;
position = "{258, 0}";
},
{
name = top.cap;
position = "{430, 780}";
}
);
layerId = "7E0ECC91-5B8E-4D6E-BF07-DE660E899F7B";
name = Light;
paths = (
{
closed = 1;
nodes = (
"545 655 LINE",
"545 675 LINE",
"440 675 LINE",
"440 800 LINE",
"420 800 LINE",
"420 675 LINE",
"255 675 LINE",
"255 655 LINE",
"420 655 LINE",
"420 455 LINE",
"394 489 OFFCURVE",
"342 536 OFFCURVE",
"258 536 CURVE SMOOTH",
"124 536 OFFCURVE",
"55 437 OFFCURVE",
"55 275 CURVE SMOOTH",
"55 255 LINE SMOOTH",
"55 93 OFFCURVE",
"124 -6 OFFCURVE",
"258 -6 CURVE SMOOTH",
"345 -6 OFFCURVE",
"398 44 OFFCURVE",
"423 79 CURVE",
"430 0 LINE",
"445 0 LINE",
"440 120 LINE",
"440 655 LINE"
);
},
{
closed = 1;
nodes = (
"420 107 LINE",
"393 66 OFFCURVE",
"344 14 OFFCURVE",
"258 14 CURVE SMOOTH",
"136 14 OFFCURVE",
"75 107 OFFCURVE",
"75 255 CURVE SMOOTH",
"75 275 LINE SMOOTH",
"75 423 OFFCURVE",
"136 516 OFFCURVE",
"258 516 CURVE SMOOTH",
"344 516 OFFCURVE",
"393 464 OFFCURVE",
"420 423 CURVE"
);
}
);
width = 510;
},
{
anchors = (
{
name = bottom;
position = "{280, 0}";
},
{
name = top.cap;
position = "{453, 780}";
}
);
layerId = "8A6A1EBA-5B98-4308-8E77-A32B8A512EB8";
name = Bold;
paths = (
{
closed = 1;
nodes = (
"605 600 LINE",
"605 730 LINE",
"545 730 LINE",
"545 800 LINE",
"361 800 LINE",
"361 730 LINE",
"254 730 LINE",
"254 600 LINE",
"361 600 LINE",
"361 490 LINE",
"331 522 OFFCURVE",
"288 544 OFFCURVE",
"229 544 CURVE SMOOTH",
"84 544 OFFCURVE",
"34 440 OFFCURVE",
"34 285 CURVE SMOOTH",
"34 245 LINE SMOOTH",
"34 90 OFFCURVE",
"84 -14 OFFCURVE",
"229 -14 CURVE SMOOTH",
"301 -14 OFFCURVE",
"347 17 OFFCURVE",
"377 61 CURVE",
"389 0 LINE",
"555 0 LINE",
"545 150 LINE",
"545 600 LINE"
);
},
{
closed = 1;
nodes = (
"361 185 LINE",
"351 170 OFFCURVE",
"324 144 OFFCURVE",
"284 144 CURVE SMOOTH",
"234 144 OFFCURVE",
"217 180 OFFCURVE",
"217 245 CURVE SMOOTH",
"217 285 LINE SMOOTH",
"217 350 OFFCURVE",
"234 386 OFFCURVE",
"284 386 CURVE SMOOTH",
"324 386 OFFCURVE",
"351 360 OFFCURVE",
"361 345 CURVE"
);
}
);
width = 595;
}
);
unicode = 0111;
},
{
glyphname = hbar;
lastChange = "2015-06-21 20:09:14 +0000";
layers = (
{
anchors = (
{
name = bottom;
position = "{250, 0}";
},
{
name = top.cap;
position = "{80, 780}";
}
);
layerId = "7E0ECC91-5B8E-4D6E-BF07-DE660E899F7B";
name = Light;
paths = (
{
closed = 1;
nodes = (
"90 800 LINE",
"70 800 LINE",
"70 675 LINE",
"-35 675 LINE",
"-35 655 LINE",
"70 655 LINE",
"70 0 LINE",
"90 0 LINE",
"90 423 LINE",
"117 466 OFFCURVE",
"173 516 OFFCURVE",
"269 516 CURVE SMOOTH",
"360 516 OFFCURVE",
"410 480 OFFCURVE",
"410 375 CURVE SMOOTH",
"410 0 LINE",
"430 0 LINE",
"430 380 LINE SMOOTH",
"430 487 OFFCURVE",
"374 536 OFFCURVE",
"271 536 CURVE SMOOTH",
"177 536 OFFCURVE",
"120 493 OFFCURVE",
"90 452 CURVE",
"90 655 LINE",
"255 655 LINE",
"255 675 LINE",
"90 675 LINE"
);
}
);
width = 490;
},
{
anchors = (
{
name = bottom;
position = "{302, 0}";
},
{
name = top.cap;
position = "{142, 780}";
}
);
layerId = "8A6A1EBA-5B98-4308-8E77-A32B8A512EB8";
name = Bold;
paths = (
{
closed = 1;
nodes = (
"234 800 LINE",
"50 800 LINE",
"50 730 LINE",
"-10 730 LINE",
"-10 600 LINE",
"50 600 LINE",
"50 0 LINE",
"234 0 LINE",
"234 345 LINE",
"244 360 OFFCURVE",
"271 386 OFFCURVE",
"311 386 CURVE SMOOTH",
"361 386 OFFCURVE",
"368 350 OFFCURVE",
"368 325 CURVE SMOOTH",
"368 0 LINE",
"551 0 LINE",
"551 355 LINE SMOOTH",
"551 450 OFFCURVE",
"511 544 OFFCURVE",
"386 544 CURVE SMOOTH",
"318 544 OFFCURVE",
"268 520 OFFCURVE",
"234 483 CURVE",
"234 600 LINE",
"341 600 LINE",
"341 730 LINE",
"234 730 LINE"
);
}
);
width = 595;
}
);
unicode = 0127;
},
{
glyphname = dotlessi;
lastChange = "2015-06-21 20:09:14 +0000";
layers = (
{
anchors = (
{
name = bottom;
position = "{90, 0}";
},
{
name = top;
position = "{90, 530}";
}
);
layerId = "7E0ECC91-5B8E-4D6E-BF07-DE660E899F7B";
name = Light;
paths = (
{
closed = 1;
nodes = (
"80 0 LINE",
"100 0 LINE",
"100 530 LINE",
"80 530 LINE"
);
}
);
width = 180;
},
{
anchors = (
{
name = bottom;
position = "{140, 0}";
},
{
name = top;
position = "{140, 529}";
}
);
layerId = "8A6A1EBA-5B98-4308-8E77-A32B8A512EB8";
name = Bold;
paths = (
{
closed = 1;
nodes = (
"48 0 LINE",
"232 0 LINE",
"232 530 LINE",
"48 530 LINE"
);
}
);
width = 280;
}
);
unicode = 0131;
},
{
glyphname = ij;
lastChange = "2015-06-21 20:09:14 +0000";
layers = (
{
layerId = "7E0ECC91-5B8E-4D6E-BF07-DE660E899F7B";
name = Light;
paths = (
{
closed = 1;
nodes = (
"220 -65 LINE SMOOTH",
"220 -164 OFFCURVE",
"173 -186 OFFCURVE",
"105 -186 CURVE SMOOTH",
"80 -186 OFFCURVE",
"53 -180 OFFCURVE",
"45 -176 CURVE",
"45 -196 LINE",
"50 -198 OFFCURVE",
"72 -206 OFFCURVE",
"109 -206 CURVE SMOOTH",
"179 -206 OFFCURVE",
"240 -179 OFFCURVE",
"240 -71 CURVE SMOOTH",
"240 530 LINE",
"220 530 LINE"
);
},
{
closed = 1;
nodes = (
"80 0 LINE",
"100 0 LINE",
"100 530 LINE",
"80 530 LINE"
);
},
{
closed = 1;
nodes = (
"110 720 LINE",
"70 720 LINE",
"70 680 LINE",
"110 680 LINE"
);
},
{
closed = 1;
nodes = (
"250 720 LINE",
"210 720 LINE",
"210 680 LINE",
"250 680 LINE"
);
}
);
width = 320;
},
{
layerId = "8A6A1EBA-5B98-4308-8E77-A32B8A512EB8";
name = Bold;
paths = (
{
closed = 1;
nodes = (
"278 15 LINE SMOOTH",
"278 -45 OFFCURVE",
"249 -56 OFFCURVE",
"207 -56 CURVE SMOOTH",
"191 -56 OFFCURVE",
"166 -52 OFFCURVE",
"161 -50 CURVE",
"161 -200 LINE",
"170 -205 OFFCURVE",
"200 -214 OFFCURVE",
"250 -214 CURVE SMOOTH",
"377 -214 OFFCURVE",
"462 -160 OFFCURVE",
"462 -5 CURVE SMOOTH",
"462 530 LINE",
"278 530 LINE"
);
},
{
closed = 1;
nodes = (
"48 0 LINE",
"232 0 LINE",
"232 530 LINE",
"48 530 LINE"
);
},
{
closed = 1;
nodes = (
"235 780 LINE",
"45 780 LINE",
"45 590 LINE",
"235 590 LINE"
);
},
{
closed = 1;
nodes = (
"465 780 LINE",
"275 780 LINE",
"275 590 LINE",
"465 590 LINE"
);
}
);
width = 510;
}
);
unicode = 0133;
},
{
glyphname = kgreenlandic;
lastChange = "2015-06-21 20:09:14 +0000";
layers = (
{
anchors = (
{
name = bottom;
position = "{240, 0}";
},
{
name = top;
position = "{240, 530}";
}
);
layerId = "7E0ECC91-5B8E-4D6E-BF07-DE660E899F7B";
name = Light;
paths = (
{
closed = 1;
nodes = (
"75 0 LINE",
"95 0 LINE",
"95 172 LINE",
"226 314 LINE",
"402 0 LINE",
"425 0 LINE",
"239 329 LINE",
"425 530 LINE",
"398 530 LINE",
"95 200 LINE",
"95 530 LINE",
"75 530 LINE"
);
}
);
width = 458;
},
{
anchors = (
{
name = bottom;
position = "{286, 0}";
},
{
name = top;
position = "{286, 530}";
}
);
layerId = "8A6A1EBA-5B98-4308-8E77-A32B8A512EB8";
name = Bold;
paths = (
{
closed = 1;
nodes = (
"45 0 LINE",
"229 0 LINE",
"229 141 LINE",
"264 182 LINE",
"350 0 LINE",
"565 0 LINE",
"391 329 LINE",
"565 530 LINE",
"345 530 LINE",
"229 382 LINE",
"229 530 LINE",
"45 530 LINE"
);
}
);
width = 580;
}
);
unicode = 0138;
},
{
glyphname = ldot;
lastChange = "2015-06-21 20:09:14 +0000";
layers = (
{
layerId = "7E0ECC91-5B8E-4D6E-BF07-DE660E899F7B";
name = Light;
paths = (
{
closed = 1;
nodes = (
"80 0 LINE",
"100 0 LINE",
"100 800 LINE",
"80 800 LINE"
);
},
{
closed = 1;
nodes = (
"250 360 LINE",
"210 360 LINE",
"210 320 LINE",
"250 320 LINE"
);
}
);
width = 280;
},
{
layerId = "8A6A1EBA-5B98-4308-8E77-A32B8A512EB8";
name = Bold;
paths = (
{
closed = 1;
nodes = (
"48 0 LINE",
"232 0 LINE",
"232 800 LINE",
"48 800 LINE"
);
},
{
closed = 1;
nodes = (
"470 445 LINE",
"280 445 LINE",
"280 255 LINE",
"470 255 LINE"
);
}
);
width = 470;
}
);
unicode = 0140;
},
{
glyphname = lslash;
lastChange = "2015-06-21 20:09:14 +0000";
layers = (
{
anchors = (
{
name = bottom;
position = "{130, 0}";
},
{
name = top.cap;
position = "{130, 780}";
}
);
layerId = "7E0ECC91-5B8E-4D6E-BF07-DE660E899F7B";
name = Light;
paths = (
{
closed = 1;
nodes = (
"30 351 LINE",
"120 417 LINE",
"120 0 LINE",
"140 0 LINE",
"140 431 LINE",
"240 505 LINE",
"240 530 LINE",
"140 456 LINE",
"140 800 LINE",
"120 800 LINE",
"120 442 LINE",
"30 376 LINE"
);
}
);
width = 260;
},
{
anchors = (
{
name = bottom;
position = "{200, 0}";
},
{
name = top.cap;
position = "{200, 780}";
}
);
layerId = "8A6A1EBA-5B98-4308-8E77-A32B8A512EB8";
name = Bold;
paths = (
{
closed = 1;
nodes = (
"20 169 LINE",
"108 222 LINE",
"108 0 LINE",
"292 0 LINE",
"292 333 LINE",
"390 393 LINE",
"390 544 LINE",
"292 484 LINE",
"292 800 LINE",
"108 800 LINE",
"108 373 LINE",
"20 320 LINE"
);
}
);
width = 400;
}
);
unicode = 0142;
},
{
glyphname = eng;
lastChange = "2015-06-21 20:09:14 +0000";
layers = (
{
anchors = (
{
name = bottom;
position = "{250, -206}";
},
{
name = top;
position = "{250, 530}";
}
);
layerId = "7E0ECC91-5B8E-4D6E-BF07-DE660E899F7B";
name = Light;
paths = (
{
closed = 1;
nodes = (
"410 -65 LINE SMOOTH",
"410 -164 OFFCURVE",
"363 -186 OFFCURVE",
"295 -186 CURVE SMOOTH",
"270 -186 OFFCURVE",
"243 -180 OFFCURVE",
"235 -176 CURVE",
"235 -196 LINE",
"240 -198 OFFCURVE",
"262 -206 OFFCURVE",
"299 -206 CURVE SMOOTH",
"369 -206 OFFCURVE",
"430 -179 OFFCURVE",
"430 -71 CURVE SMOOTH",
"430 380 LINE SMOOTH",
"430 487 OFFCURVE",
"374 536 OFFCURVE",
"271 536 CURVE SMOOTH",
"174 536 OFFCURVE",
"117 490 OFFCURVE",
"87 448 CURVE",
"80 530 LINE",
"65 530 LINE",
"70 410 LINE",
"70 0 LINE",
"90 0 LINE",
"90 423 LINE",
"117 466 OFFCURVE",
"173 516 OFFCURVE",
"269 516 CURVE SMOOTH",
"360 516 OFFCURVE",
"410 480 OFFCURVE",
"410 375 CURVE SMOOTH"
);
}
);
width = 490;
},
{
anchors = (
{
name = bottom;
position = "{302, -214}";
},
{
name = top;
position = "{302, 530}";
}
);
layerId = "8A6A1EBA-5B98-4308-8E77-A32B8A512EB8";
name = Bold;
paths = (
{
closed = 1;
nodes = (
"367 15 LINE SMOOTH",
"367 -45 OFFCURVE",
"338 -56 OFFCURVE",
"296 -56 CURVE SMOOTH",
"280 -56 OFFCURVE",
"255 -52 OFFCURVE",
"250 -50 CURVE",
"250 -200 LINE",
"259 -205 OFFCURVE",
"289 -214 OFFCURVE",
"339 -214 CURVE SMOOTH",
"466 -214 OFFCURVE",
"551 -160 OFFCURVE",
"551 -5 CURVE SMOOTH",
"551 355 LINE SMOOTH",
"551 450 OFFCURVE",
"511 544 OFFCURVE",
"386 544 CURVE SMOOTH",
"307 544 OFFCURVE",
"253 511 OFFCURVE",
"218 464 CURVE",
"206 530 LINE",
"40 530 LINE",
"50 380 LINE",
"50 0 LINE",
"234 0 LINE",
"234 345 LINE",
"244 360 OFFCURVE",
"271 386 OFFCURVE",
"311 386 CURVE SMOOTH",
"361 386 OFFCURVE",
"367 350 OFFCURVE",
"367 325 CURVE SMOOTH"
);
}
);
width = 595;
}
);
unicode = 014B;
},
{
glyphname = oe;
lastChange = "2015-06-21 20:09:14 +0000";
layers = (
{
anchors = (
{
name = bottom;
position = "{461, 0}";
},
{
name = top;
position = "{461, 530}";
}
);
layerId = "7E0ECC91-5B8E-4D6E-BF07-DE660E899F7B";
name = Light;
paths = (
{
closed = 1;
nodes = (
"871 255 LINE",
"871 275 LINE SMOOTH",
"871 421 OFFCURVE",
"809 536 OFFCURVE",
"661 536 CURVE SMOOTH",
"544 536 OFFCURVE",
"481 464 OFFCURVE",
"461 361 CURVE",
"439 471 OFFCURVE",
"371 536 OFFCURVE",
"263 536 CURVE SMOOTH",
"129 536 OFFCURVE",
"55 437 OFFCURVE",
"55 275 CURVE SMOOTH",
"55 255 LINE SMOOTH",
"55 93 OFFCURVE",
"129 -6 OFFCURVE",
"263 -6 CURVE SMOOTH",
"371 -6 OFFCURVE",
"439 58 OFFCURVE",
"461 169 CURVE",
"482 66 OFFCURVE",
"546 -6 OFFCURVE",
"666 -6 CURVE SMOOTH",
"813 -6 OFFCURVE",
"871 90 OFFCURVE",
"871 165 CURVE SMOOTH",
"871 170 LINE",
"851 170 LINE",
"851 99 OFFCURVE",
"802 14 OFFCURVE",
"666 14 CURVE SMOOTH",
"530 14 OFFCURVE",
"471 115 OFFCURVE",
"471 255 CURVE"
);
},
{
closed = 1;
nodes = (
"141 14 OFFCURVE",
"75 107 OFFCURVE",
"75 255 CURVE SMOOTH",
"75 275 LINE SMOOTH",
"75 423 OFFCURVE",
"141 516 OFFCURVE",
"263 516 CURVE SMOOTH",
"385 516 OFFCURVE",
"451 423 OFFCURVE",
"451 275 CURVE SMOOTH",
"451 255 LINE SMOOTH",
"451 107 OFFCURVE",
"385 14 OFFCURVE",
"263 14 CURVE SMOOTH"
);
},
{
closed = 1;
nodes = (
"661 516 CURVE SMOOTH",
"790 516 OFFCURVE",
"851 416 OFFCURVE",
"851 275 CURVE",
"471 275 LINE",
"471 416 OFFCURVE",
"532 516 OFFCURVE"
);
}
);
width = 926;
},
{
anchors = (
{
name = bottom;
position = "{444, 0}";
},
{
name = top;
position = "{444, 530}";
}
);
layerId = "8A6A1EBA-5B98-4308-8E77-A32B8A512EB8";
name = Bold;
paths = (
{
closed = 1;
nodes = (
"862 200 LINE",
"862 280 LINE SMOOTH",
"862 435 OFFCURVE",
"782 544 OFFCURVE",
"611 544 CURVE SMOOTH",
"538 544 OFFCURVE",
"484 519 OFFCURVE",
"446 481 CURVE",
"409 519 OFFCURVE",
"355 544 OFFCURVE",
"280 544 CURVE SMOOTH",
"105 544 OFFCURVE",
"25 440 OFFCURVE",
"25 285 CURVE SMOOTH",
"25 245 LINE SMOOTH",
"25 90 OFFCURVE",
"105 -14 OFFCURVE",
"280 -14 CURVE SMOOTH",
"355 -14 OFFCURVE",
"409 11 OFFCURVE",
"446 49 CURVE",
"484 11 OFFCURVE",
"540 -14 OFFCURVE",
"617 -14 CURVE SMOOTH",
"771 -14 OFFCURVE",
"862 60 OFFCURVE",
"862 166 CURVE SMOOTH",
"862 170 LINE",
"689 170 LINE",
"689 145 OFFCURVE",
"658 124 OFFCURVE",
"618 124 CURVE SMOOTH",
"572 124 OFFCURVE",
"542 140 OFFCURVE",
"536 200 CURVE"
);
},
{
closed = 1;
nodes = (
"230 144 OFFCURVE",
"208 180 OFFCURVE",
"208 245 CURVE SMOOTH",
"208 285 LINE SMOOTH",
"208 350 OFFCURVE",
"230 386 OFFCURVE",
"280 386 CURVE SMOOTH",
"330 386 OFFCURVE",
"352 350 OFFCURVE",
"352 285 CURVE SMOOTH",
"352 245 LINE SMOOTH",
"352 180 OFFCURVE",
"330 144 OFFCURVE",
"280 144 CURVE SMOOTH"
);
},
{
closed = 1;
nodes = (
"607 406 CURVE SMOOTH",
"650 406 OFFCURVE",
"673 386 OFFCURVE",
"678 330 CURVE",
"536 330 LINE",
"541 386 OFFCURVE",
"564 406 OFFCURVE"
);
}
);
width = 887;
}
);
unicode = 0153;
},
{
glyphname = tbar;
lastChange = "2015-06-21 20:09:14 +0000";
layers = (
{
anchors = (
{
name = bottom;
position = "{207, 0}";
},
{
name = top.cap;
position = "{126, 660}";
}
);
layerId = "7E0ECC91-5B8E-4D6E-BF07-DE660E899F7B";
name = Light;
paths = (
{
closed = 1;
nodes = (
"115 255 LINE",
"115 129 LINE SMOOTH",
"115 21 OFFCURVE",
"176 -6 OFFCURVE",
"246 -6 CURVE SMOOTH",
"283 -6 OFFCURVE",
"305 2 OFFCURVE",
"310 4 CURVE",
"310 24 LINE",
"302 20 OFFCURVE",
"275 14 OFFCURVE",
"250 14 CURVE SMOOTH",
"182 14 OFFCURVE",
"135 36 OFFCURVE",
"135 135 CURVE SMOOTH",
"135 264 LINE",
"126 255 LINE",
"280 255 LINE",
"280 275 LINE",
"135 275 LINE",
"135 510 LINE",
"320 510 LINE",
"320 530 LINE",
"135 530 LINE",
"135 680 LINE",
"115 680 LINE",
"115 530 LINE",
"30 530 LINE",
"30 510 LINE",
"115 510 LINE",
"115 275 LINE",
"30 275 LINE",
"30 255 LINE"
);
}
);
width = 360;
},
{
anchors = (
{
name = bottom;
position = "{239, 0}";
},
{
name = top.cap;
position = "{187, 660}";
}
);
layerId = "8A6A1EBA-5B98-4308-8E77-A32B8A512EB8";
name = Bold;
paths = (
{
closed = 1;
nodes = (
"95 200 LINE",
"95 195 LINE SMOOTH",
"95 40 OFFCURVE",
"180 -14 OFFCURVE",
"307 -14 CURVE SMOOTH",
"357 -14 OFFCURVE",
"387 -5 OFFCURVE",
"396 0 CURVE",
"396 150 LINE",
"391 148 OFFCURVE",
"366 144 OFFCURVE",
"350 144 CURVE SMOOTH",
"309 144 OFFCURVE",
"280 154 OFFCURVE",
"280 212 CURVE",
"280 231 LINE",
"255 200 LINE",
"366 200 LINE",
"366 330 LINE",
"279 330 LINE",
"279 370 LINE",
"406 370 LINE",
"406 530 LINE",
"279 530 LINE",
"279 680 LINE",
"95 680 LINE",
"95 530 LINE",
"15 530 LINE",
"15 370 LINE",
"95 370 LINE",
"95 330 LINE",
"35 330 LINE",
"35 200 LINE"
);
}
);
width = 440;
}
);
unicode = 0167;
},
{
glyphname = dotlessj;
lastChange = "2015-06-21 20:09:14 +0000";
layers = (
{
anchors = (
{
name = bottom.cap;
position = "{36, -206}";
},
{
name = top;
position = "{90, 530}";
}
);
layerId = "7E0ECC91-5B8E-4D6E-BF07-DE660E899F7B";
name = Light;
paths = (
{
closed = 1;
nodes = (
"80 -65 LINE SMOOTH",
"80 -164 OFFCURVE",
"33 -186 OFFCURVE",
"-35 -186 CURVE SMOOTH",
"-60 -186 OFFCURVE",
"-87 -180 OFFCURVE",
"-95 -176 CURVE",
"-95 -196 LINE",
"-90 -198 OFFCURVE",
"-68 -206 OFFCURVE",
"-31 -206 CURVE SMOOTH",
"39 -206 OFFCURVE",
"100 -179 OFFCURVE",
"100 -71 CURVE SMOOTH",
"100 530 LINE",
"80 530 LINE"
);
}
);
width = 180;
},
{
anchors = (
{
name = bottom.cap;
position = "{82, -214}";
},
{
name = top;
position = "{130, 530}";
}
);
layerId = "8A6A1EBA-5B98-4308-8E77-A32B8A512EB8";
name = Bold;
paths = (
{
closed = 1;
nodes = (
"48 15 LINE SMOOTH",
"48 -45 OFFCURVE",
"19 -56 OFFCURVE",
"-23 -56 CURVE SMOOTH",
"-39 -56 OFFCURVE",
"-64 -52 OFFCURVE",
"-69 -50 CURVE",
"-69 -200 LINE",
"-60 -205 OFFCURVE",
"-30 -214 OFFCURVE",
"20 -214 CURVE SMOOTH",
"147 -214 OFFCURVE",
"232 -160 OFFCURVE",
"232 -5 CURVE SMOOTH",
"232 530 LINE",
"48 530 LINE"
);
}
);
width = 280;
}
);
unicode = 0237;
},
{
glyphname = caron;
lastChange = "2015-06-21 20:09:14 +0000";
layers = (
{
layerId = "7E0ECC91-5B8E-4D6E-BF07-DE660E899F7B";
name = Light;
paths = (
{
closed = 1;
nodes = (
"115 780 LINE",
"240 620 LINE",
"260 620 LINE",
"385 780 LINE",
"360 780 LINE",
"250 638 LINE",
"140 780 LINE"
);
}
);
width = 500;
},
{
layerId = "8A6A1EBA-5B98-4308-8E77-A32B8A512EB8";
name = Bold;
paths = (
{
closed = 1;
nodes = (
"25 780 LINE",
"160 590 LINE",
"340 590 LINE",
"475 780 LINE",
"315 780 LINE",
"250 706 LINE",
"185 780 LINE"
);
}
);
width = 500;
}
);
unicode = 02C7;
},
{
glyphname = zero;
lastChange = "2015-06-21 20:09:14 +0000";
layers = (
{
layerId = "7E0ECC91-5B8E-4D6E-BF07-DE660E899F7B";
name = Light;
paths = (
{
closed = 1;
nodes = (
"70 544 CURVE SMOOTH",
"70 236 LINE SMOOTH",
"70 91 OFFCURVE",
"146 -6 OFFCURVE",
"300 -6 CURVE SMOOTH",
"454 -6 OFFCURVE",
"530 91 OFFCURVE",
"530 236 CURVE SMOOTH",
"530 544 LINE SMOOTH",
"530 689 OFFCURVE",
"454 786 OFFCURVE",
"300 786 CURVE SMOOTH",
"146 786 OFFCURVE",
"70 689 OFFCURVE"
);
},
{
closed = 1;
nodes = (
"90 250 CURVE SMOOTH",
"90 530 LINE SMOOTH",
"90 696 OFFCURVE",
"172 766 OFFCURVE",
"297 766 CURVE SMOOTH",
"303 766 LINE SMOOTH",
"428 766 OFFCURVE",
"510 696 OFFCURVE",
"510 530 CURVE SMOOTH",
"510 250 LINE SMOOTH",
"510 84 OFFCURVE",
"428 14 OFFCURVE",
"303 14 CURVE SMOOTH",
"297 14 LINE SMOOTH",
"172 14 OFFCURVE",
"90 84 OFFCURVE"
);
}
);
width = 600;
},
{
layerId = "8A6A1EBA-5B98-4308-8E77-A32B8A512EB8";
name = Bold;
paths = (
{
closed = 1;
nodes = (
"560 220 CURVE SMOOTH",
"560 560 LINE SMOOTH",
"560 695 OFFCURVE",
"470 794 OFFCURVE",
"300 794 CURVE SMOOTH",
"130 794 OFFCURVE",
"40 695 OFFCURVE",
"40 560 CURVE SMOOTH",
"40 220 LINE SMOOTH",
"40 85 OFFCURVE",
"130 -14 OFFCURVE",
"300 -14 CURVE SMOOTH",
"470 -14 OFFCURVE",
"560 85 OFFCURVE"
);
},
{
closed = 1;
nodes = (
"374 560 CURVE SMOOTH",
"374 220 LINE SMOOTH",
"374 178 OFFCURVE",
"349 148 OFFCURVE",
"302 148 CURVE SMOOTH",
"298 148 LINE SMOOTH",
"251 148 OFFCURVE",
"226 178 OFFCURVE",
"226 220 CURVE SMOOTH",
"226 560 LINE SMOOTH",
"226 602 OFFCURVE",
"251 632 OFFCURVE",
"298 632 CURVE SMOOTH",
"302 632 LINE SMOOTH",
"349 632 OFFCURVE",
"374 602 OFFCURVE"
);
}
);
width = 600;
}
);
unicode = 0030;
},
{
glyphname = one;
lastChange = "2015-06-21 20:09:14 +0000";
layers = (
{
layerId = "7E0ECC91-5B8E-4D6E-BF07-DE660E899F7B";
name = Light;
paths = (
{
closed = 1;
nodes = (
"540 0 LINE",
"540 20 LINE",
"320 20 LINE",
"320 785 LINE",
"305 785 LINE",
"70 627 LINE",
"81 610 LINE",
"300 757 LINE",
"300 20 LINE",
"80 20 LINE",
"80 0 LINE"
);
}
);
width = 600;
},
{
layerId = "8A6A1EBA-5B98-4308-8E77-A32B8A512EB8";
name = Bold;
paths = (
{
closed = 1;
nodes = (
"565 0 LINE",
"565 162 LINE",
"403 162 LINE",
"403 780 LINE",
"263 780 LINE",
"20 615 LINE",
"111 481 LINE",
"217 552 LINE",
"217 162 LINE",
"55 162 LINE",
"55 0 LINE"
);
}
);
width = 600;
}
);
unicode = 0031;
},
{
glyphname = two;
lastChange = "2015-06-21 20:09:14 +0000";
layers = (
{
layerId = "7E0ECC91-5B8E-4D6E-BF07-DE660E899F7B";
name = Light;
paths = (
{
closed = 1;
nodes = (
"205 20 LINE",
"95 19 LINE",
"427 367 LINE SMOOTH",
"509 453 OFFCURVE",
"535 495 OFFCURVE",
"535 580 CURVE SMOOTH",
"535 590 LINE SMOOTH",
"535 712 OFFCURVE",
"430 786 OFFCURVE",
"300 786 CURVE SMOOTH",
"134 786 OFFCURVE",
"65 700 OFFCURVE",
"65 545 CURVE SMOOTH",
"65 520 LINE",
"85 520 LINE",
"85 679 OFFCURVE",
"134 766 OFFCURVE",
"296 766 CURVE SMOOTH",
"304 766 LINE SMOOTH",
"417 766 OFFCURVE",
"515 700 OFFCURVE",
"515 590 CURVE SMOOTH",
"515 580 LINE SMOOTH",
"515 498 OFFCURVE",
"486 457 OFFCURVE",
"414 381 CURVE SMOOTH",
"65 15 LINE",
"65 0 LINE",
"535 0 LINE",
"535 20 LINE"
);
}
);
width = 600;
},
{
layerId = "8A6A1EBA-5B98-4308-8E77-A32B8A512EB8";
name = Bold;
paths = (
{
closed = 1;
nodes = (
"370 162 LINE",
"300 161 LINE",
"473 353 LINE SMOOTH",
"528 414 OFFCURVE",
"560 460 OFFCURVE",
"560 555 CURVE SMOOTH",
"560 575 LINE SMOOTH",
"560 671 OFFCURVE",
"499 794 OFFCURVE",
"300 794 CURVE SMOOTH",
"124 794 OFFCURVE",
"40 710 OFFCURVE",
"40 539 CURVE SMOOTH",
"40 520 LINE",
"226 520 LINE",
"226 605 OFFCURVE",
"256 632 OFFCURVE",
"295 632 CURVE SMOOTH",
"305 632 LINE SMOOTH",
"344 632 OFFCURVE",
"374 604 OFFCURVE",
"374 540 CURVE SMOOTH",
"374 530 LINE SMOOTH",
"374 491 OFFCURVE",
"358 470 OFFCURVE",
"330 440 CURVE SMOOTH",
"40 117 LINE",
"40 0 LINE",
"560 0 LINE",
"560 162 LINE"
);
}
);
width = 600;
}
);
unicode = 0032;
},
{
glyphname = three;
lastChange = "2015-06-23 22:04:51 +0000";
layers = (
{
layerId = "7E0ECC91-5B8E-4D6E-BF07-DE660E899F7B";
name = Light;
paths = (
{
closed = 1;
nodes = (
"60 240 LINE SMOOTH",
"60 94 OFFCURVE",
"139 -6 OFFCURVE",
"300 -6 CURVE SMOOTH",
"435 -6 OFFCURVE",
"540 60 OFFCURVE",
"540 195 CURVE SMOOTH",
"540 205 LINE SMOOTH",
"540 315 OFFCURVE",
"483 378 OFFCURVE",
"389 398 CURVE",
"479 418 OFFCURVE",
"535 483 OFFCURVE",
"535 582 CURVE SMOOTH",
"535 592 LINE SMOOTH",
"535 714 OFFCURVE",
"430 786 OFFCURVE",
"300 786 CURVE SMOOTH",
"137 786 OFFCURVE",
"65 694 OFFCURVE",
"65 545 CURVE SMOOTH",
"65 520 LINE",
"85 520 LINE",
"85 694 OFFCURVE",
"155 766 OFFCURVE",
"296 766 CURVE SMOOTH",
"302 766 LINE SMOOTH",
"415 766 OFFCURVE",
"513 700 OFFCURVE",
"513 597 CURVE SMOOTH",
"513 577 LINE SMOOTH",
"513 474 OFFCURVE",
"436 408 OFFCURVE",
"323 408 CURVE SMOOTH",
"200 408 LINE",
"200 388 LINE",
"323 388 LINE SMOOTH",
"447 388 OFFCURVE",
"520 323 OFFCURVE",
"520 207 CURVE SMOOTH",
"520 192 LINE SMOOTH",
"520 76 OFFCURVE",
"427 14 OFFCURVE",
"303 14 CURVE SMOOTH",
"297 14 LINE SMOOTH",
"159 14 OFFCURVE",
"80 94 OFFCURVE",
"80 250 CURVE",
"60 250 LINE"
);
}
);
width = 600;
},
{
layerId = "8A6A1EBA-5B98-4308-8E77-A32B8A512EB8";
name = Bold;
paths = (
{
closed = 1;
nodes = (
"35 236 LINE SMOOTH",
"35 75 OFFCURVE",
"124 -14 OFFCURVE",
"300 -14 CURVE SMOOTH",
"499 -14 OFFCURVE",
"565 120 OFFCURVE",
"565 211 CURVE SMOOTH",
"565 231 LINE SMOOTH",
"565 314 OFFCURVE",
"525 368 OFFCURVE",
"476 399 CURVE",
"523 431 OFFCURVE",
"560 484 OFFCURVE",
"560 565 CURVE SMOOTH",
"560 585 LINE SMOOTH",
"560 671 OFFCURVE",
"499 794 OFFCURVE",
"300 794 CURVE SMOOTH",
"124 794 OFFCURVE",
"40 710 OFFCURVE",
"40 539 CURVE SMOOTH",
"40 520 LINE",
"226 520 LINE",
"226 605 OFFCURVE",
"256 632 OFFCURVE",
"295 632 CURVE SMOOTH",
"305 632 LINE SMOOTH",
"344 632 OFFCURVE",
"374 604 OFFCURVE",
"374 563 CURVE SMOOTH",
"374 553 LINE SMOOTH",
"374 504 OFFCURVE",
"350 479 OFFCURVE",
"302 479 CURVE SMOOTH",
"200 479 LINE",
"200 317 LINE",
"305 317 LINE SMOOTH",
"353 317 OFFCURVE",
"379 292 OFFCURVE",
"379 243 CURVE SMOOTH",
"379 233 LINE SMOOTH",
"379 173 OFFCURVE",
"344 148 OFFCURVE",
"305 148 CURVE SMOOTH",
"295 148 LINE SMOOTH",
"256 148 OFFCURVE",
"221 170 OFFCURVE",
"221 250 CURVE",
"35 250 LINE"
);
}
);
width = 600;
}
);
unicode = 0033;
},
{
glyphname = four;
lastChange = "2015-06-21 20:09:14 +0000";
layers = (
{
layerId = "7E0ECC91-5B8E-4D6E-BF07-DE660E899F7B";
name = Light;
paths = (
{
closed = 1;
nodes = (
"410 0 LINE",
"410 230 LINE",
"560 230 LINE",
"560 250 LINE",
"410 250 LINE",
"410 780 LINE",
"385 780 LINE",
"40 245 LINE",
"40 230 LINE",
"390 230 LINE",
"390 0 LINE"
);
},
{
closed = 1;
nodes = (
"391 753 LINE",
"390 600 LINE",
"390 250 LINE",
"180 250 LINE",
"66 249 LINE"
);
}
);
width = 600;
},
{
layerId = "8A6A1EBA-5B98-4308-8E77-A32B8A512EB8";
name = Bold;
paths = (
{
closed = 1;
nodes = (
"503 0 LINE",
"503 159 LINE",
"575 159 LINE",
"575 321 LINE",
"503 321 LINE",
"503 780 LINE",
"328 780 LINE",
"25 290 LINE",
"25 159 LINE",
"317 159 LINE",
"317 0 LINE"
);
},
{
closed = 1;
nodes = (
"319 486 LINE",
"317 442 LINE",
"317 321 LINE",
"256 321 LINE",
"215 319 LINE"
);
}
);
width = 600;
}
);
unicode = 0034;
},
{
glyphname = five;
lastChange = "2015-06-21 20:09:14 +0000";
layers = (
{
layerId = "7E0ECC91-5B8E-4D6E-BF07-DE660E899F7B";
name = Light;
paths = (
{
closed = 1;
nodes = (
"60 240 LINE SMOOTH",
"60 94 OFFCURVE",
"139 -6 OFFCURVE",
"300 -6 CURVE SMOOTH",
"435 -6 OFFCURVE",
"540 85 OFFCURVE",
"540 235 CURVE SMOOTH",
"540 245 LINE SMOOTH",
"540 395 OFFCURVE",
"435 486 OFFCURVE",
"300 486 CURVE SMOOTH",
"199 486 OFFCURVE",
"128 446 OFFCURVE",
"88 380 CURVE",
"104 760 LINE",
"530 760 LINE",
"530 780 LINE",
"85 780 LINE",
"66 339 LINE",
"86 333 LINE",
"118 421 OFFCURVE",
"194 466 OFFCURVE",
"297 466 CURVE SMOOTH",
"303 466 LINE SMOOTH",
"427 466 OFFCURVE",
"520 380 OFFCURVE",
"520 248 CURVE SMOOTH",
"520 232 LINE SMOOTH",
"520 100 OFFCURVE",
"427 14 OFFCURVE",
"303 14 CURVE SMOOTH",
"297 14 LINE SMOOTH",
"159 14 OFFCURVE",
"80 94 OFFCURVE",
"80 250 CURVE",
"60 250 LINE"
);
}
);
width = 600;
},
{
layerId = "8A6A1EBA-5B98-4308-8E77-A32B8A512EB8";
name = Bold;
paths = (
{
closed = 1;
nodes = (
"35 236 LINE SMOOTH",
"35 75 OFFCURVE",
"124 -14 OFFCURVE",
"300 -14 CURVE SMOOTH",
"479 -14 OFFCURVE",
"565 87 OFFCURVE",
"565 238 CURVE SMOOTH",
"565 258 LINE SMOOTH",
"565 409 OFFCURVE",
"479 510 OFFCURVE",
"310 510 CURVE SMOOTH",
"274 510 OFFCURVE",
"239 503 OFFCURVE",
"209 492 CURVE",
"214 618 LINE",
"555 618 LINE",
"555 780 LINE",
"59 780 LINE",
"41 355 LINE",
"201 300 LINE",
"219 333 OFFCURVE",
"258 348 OFFCURVE",
"290 348 CURVE SMOOTH",
"295 348 LINE SMOOTH",
"344 348 OFFCURVE",
"379 323 OFFCURVE",
"379 253 CURVE SMOOTH",
"379 243 LINE SMOOTH",
"379 173 OFFCURVE",
"344 148 OFFCURVE",
"305 148 CURVE SMOOTH",
"295 148 LINE SMOOTH",
"256 148 OFFCURVE",
"221 170 OFFCURVE",
"221 250 CURVE",
"35 250 LINE"
);
}
);
width = 600;
}
);
unicode = 0035;
},
{
glyphname = six;
lastChange = "2015-06-21 20:09:14 +0000";
layers = (
{
layerId = "7E0ECC91-5B8E-4D6E-BF07-DE660E899F7B";
name = Light;
paths = (
{
closed = 1;
nodes = (
"510 786 LINE",
"387 786 OFFCURVE",
"263 727 OFFCURVE",
"177 612 CURVE SMOOTH",
"94 501 OFFCURVE",
"65 382 OFFCURVE",
"65 265 CURVE SMOOTH",
"65 255 LINE SMOOTH",
"65 90 OFFCURVE",
"170 -6 OFFCURVE",
"305 -6 CURVE SMOOTH",
"440 -6 OFFCURVE",
"545 85 OFFCURVE",
"545 235 CURVE SMOOTH",
"545 245 LINE SMOOTH",
"545 395 OFFCURVE",
"445 486 OFFCURVE",
"310 486 CURVE SMOOTH",
"207 486 OFFCURVE",
"132 430 OFFCURVE",
"92 358 CURVE",
"104 438 OFFCURVE",
"135 521 OFFCURVE",
"191 599 CURVE SMOOTH",
"273 713 OFFCURVE",
"398 767 OFFCURVE",
"510 767 CURVE"
);
},
{
closed = 1;
nodes = (
"85 285 OFFCURVE",
"86 301 OFFCURVE",
"87 320 CURVE",
"85 308 LINE",
"115 395 OFFCURVE",
"203 466 OFFCURVE",
"307 466 CURVE SMOOTH",
"313 466 LINE SMOOTH",
"437 466 OFFCURVE",
"525 380 OFFCURVE",
"525 248 CURVE SMOOTH",
"525 232 LINE SMOOTH",
"525 100 OFFCURVE",
"432 14 OFFCURVE",
"308 14 CURVE SMOOTH",
"302 14 LINE SMOOTH",
"178 14 OFFCURVE",
"85 105 OFFCURVE",
"85 252 CURVE SMOOTH",
"85 268 LINE SMOOTH"
);
}
);
width = 600;
},
{
layerId = "8A6A1EBA-5B98-4308-8E77-A32B8A512EB8";
name = Bold;
paths = (
{
closed = 1;
nodes = (
"525 794 LINE",
"358 794 OFFCURVE",
"231 765 OFFCURVE",
"145 650 CURVE SMOOTH",
"62 539 OFFCURVE",
"35 414 OFFCURVE",
"35 290 CURVE SMOOTH",
"35 276 LINE SMOOTH",
"35 105 OFFCURVE",
"124 -14 OFFCURVE",
"300 -14 CURVE SMOOTH",
"479 -14 OFFCURVE",
"565 85 OFFCURVE",
"565 236 CURVE SMOOTH",
"565 246 LINE SMOOTH",
"565 397 OFFCURVE",
"481 492 OFFCURVE",
"351 492 CURVE SMOOTH",
"308 492 OFFCURVE",
"273 481 OFFCURVE",
"244 464 CURVE",
"254 497 OFFCURVE",
"269 524 OFFCURVE",
"288 547 CURVE SMOOTH",
"337 605 OFFCURVE",
"406 629 OFFCURVE",
"525 630 CURVE"
);
},
{
closed = 1;
nodes = (
"221 280 OFFCURVE",
"222 297 OFFCURVE",
"224 313 CURVE",
"211 266 LINE",
"228 313 OFFCURVE",
"270 331 OFFCURVE",
"302 331 CURVE SMOOTH",
"307 331 LINE SMOOTH",
"347 331 OFFCURVE",
"379 310 OFFCURVE",
"379 251 CURVE SMOOTH",
"379 231 LINE SMOOTH",
"379 177 OFFCURVE",
"342 148 OFFCURVE",
"303 148 CURVE SMOOTH",
"297 148 LINE SMOOTH",
"255 148 OFFCURVE",
"221 185 OFFCURVE",
"221 260 CURVE SMOOTH",
"221 265 LINE SMOOTH"
);
}
);
width = 600;
}
);
unicode = 0036;
},
{
glyphname = seven;
lastChange = "2015-06-21 20:09:14 +0000";
layers = (
{
layerId = "7E0ECC91-5B8E-4D6E-BF07-DE660E899F7B";
name = Light;
paths = (
{
closed = 1;
nodes = (
"70 500 LINE",
"90 500 LINE",
"90 760 LINE",
"400 760 LINE",
"517 761 LINE",
"201 0 LINE",
"223 0 LINE",
"540 765 LINE",
"540 780 LINE",
"70 780 LINE"
);
}
);
width = 600;
},
{
layerId = "8A6A1EBA-5B98-4308-8E77-A32B8A512EB8";
name = Bold;
paths = (
{
closed = 1;
nodes = (
"30 500 LINE",
"192 500 LINE",
"192 618 LINE",
"273 618 LINE",
"363 620 LINE",
"101 0 LINE",
"300 0 LINE",
"570 665 LINE",
"570 780 LINE",
"30 780 LINE"
);
}
);
width = 600;
}
);
unicode = 0037;
},
{
glyphname = eight;
lastChange = "2015-06-21 20:09:14 +0000";
layers = (
{
layerId = "7E0ECC91-5B8E-4D6E-BF07-DE660E899F7B";
name = Light;
paths = (
{
closed = 1;
nodes = (
"535 592 LINE SMOOTH",
"535 714 OFFCURVE",
"430 786 OFFCURVE",
"300 786 CURVE SMOOTH",
"170 786 OFFCURVE",
"65 714 OFFCURVE",
"65 592 CURVE SMOOTH",
"65 582 LINE SMOOTH",
"65 483 OFFCURVE",
"120 418 OFFCURVE",
"210 398 CURVE",
"116 378 OFFCURVE",
"60 315 OFFCURVE",
"60 205 CURVE SMOOTH",
"60 195 LINE SMOOTH",
"60 60 OFFCURVE",
"165 -6 OFFCURVE",
"300 -6 CURVE SMOOTH",
"435 -6 OFFCURVE",
"540 60 OFFCURVE",
"540 195 CURVE SMOOTH",
"540 205 LINE SMOOTH",
"540 315 OFFCURVE",
"483 378 OFFCURVE",
"389 398 CURVE",
"479 418 OFFCURVE",
"535 483 OFFCURVE",
"535 582 CURVE SMOOTH"
);
},
{
closed = 1;
nodes = (
"277 388 CURVE SMOOTH",
"323 388 LINE SMOOTH",
"447 388 OFFCURVE",
"520 323 OFFCURVE",
"520 207 CURVE SMOOTH",
"520 192 LINE SMOOTH",
"520 76 OFFCURVE",
"427 14 OFFCURVE",
"303 14 CURVE SMOOTH",
"297 14 LINE SMOOTH",
"173 14 OFFCURVE",
"80 76 OFFCURVE",
"80 192 CURVE SMOOTH",
"80 207 LINE SMOOTH",
"80 323 OFFCURVE",
"153 388 OFFCURVE"
);
},
{
closed = 1;
nodes = (
"303 766 LINE SMOOTH",
"416 766 OFFCURVE",
"513 700 OFFCURVE",
"513 597 CURVE SMOOTH",
"513 577 LINE SMOOTH",
"513 474 OFFCURVE",
"436 408 OFFCURVE",
"323 408 CURVE SMOOTH",
"277 408 LINE SMOOTH",
"164 408 OFFCURVE",
"87 474 OFFCURVE",
"87 577 CURVE SMOOTH",
"87 597 LINE SMOOTH",
"87 700 OFFCURVE",
"184 766 OFFCURVE",
"297 766 CURVE SMOOTH"
);
}
);
width = 600;
},
{
layerId = "8A6A1EBA-5B98-4308-8E77-A32B8A512EB8";
name = Bold;
paths = (
{
closed = 1;
nodes = (
"560 585 LINE SMOOTH",
"560 671 OFFCURVE",
"499 794 OFFCURVE",
"300 794 CURVE SMOOTH",
"101 794 OFFCURVE",
"40 671 OFFCURVE",
"40 585 CURVE SMOOTH",
"40 565 LINE SMOOTH",
"40 484 OFFCURVE",
"77 431 OFFCURVE",
"124 399 CURVE",
"74 368 OFFCURVE",
"35 314 OFFCURVE",
"35 231 CURVE SMOOTH",
"35 211 LINE SMOOTH",
"35 120 OFFCURVE",
"101 -14 OFFCURVE",
"300 -14 CURVE SMOOTH",
"499 -14 OFFCURVE",
"565 120 OFFCURVE",
"565 211 CURVE SMOOTH",
"565 231 LINE SMOOTH",
"565 314 OFFCURVE",
"525 368 OFFCURVE",
"476 399 CURVE",
"523 431 OFFCURVE",
"560 484 OFFCURVE",
"560 565 CURVE SMOOTH"
);
},
{
closed = 1;
nodes = (
"295 317 CURVE SMOOTH",
"305 317 LINE SMOOTH",
"353 317 OFFCURVE",
"379 292 OFFCURVE",
"379 243 CURVE SMOOTH",
"379 233 LINE SMOOTH",
"379 173 OFFCURVE",
"344 148 OFFCURVE",
"305 148 CURVE SMOOTH",
"295 148 LINE SMOOTH",
"256 148 OFFCURVE",
"221 173 OFFCURVE",
"221 233 CURVE SMOOTH",
"221 243 LINE SMOOTH",
"221 292 OFFCURVE",
"247 317 OFFCURVE"
);
},
{
closed = 1;
nodes = (
"305 632 LINE SMOOTH",
"344 632 OFFCURVE",
"374 604 OFFCURVE",
"374 563 CURVE SMOOTH",
"374 553 LINE SMOOTH",
"374 504 OFFCURVE",
"350 479 OFFCURVE",
"302 479 CURVE SMOOTH",
"298 479 LINE SMOOTH",
"250 479 OFFCURVE",
"226 504 OFFCURVE",
"226 553 CURVE SMOOTH",
"226 563 LINE SMOOTH",
"226 604 OFFCURVE",
"256 632 OFFCURVE",
"295 632 CURVE SMOOTH"
);
}
);
width = 600;
}
);
unicode = 0038;
},
{
glyphname = nine;
lastChange = "2015-06-21 20:09:14 +0000";
layers = (
{
layerId = "7E0ECC91-5B8E-4D6E-BF07-DE660E899F7B";
name = Light;
paths = (
{
closed = 1;
nodes = (
"100 -6 LINE",
"223 -6 OFFCURVE",
"347 53 OFFCURVE",
"433 168 CURVE SMOOTH",
"516 279 OFFCURVE",
"545 398 OFFCURVE",
"545 515 CURVE SMOOTH",
"545 525 LINE SMOOTH",
"545 690 OFFCURVE",
"440 786 OFFCURVE",
"305 786 CURVE SMOOTH",
"170 786 OFFCURVE",
"65 695 OFFCURVE",
"65 545 CURVE SMOOTH",
"65 535 LINE SMOOTH",
"65 385 OFFCURVE",
"165 294 OFFCURVE",
"300 294 CURVE SMOOTH",
"403 294 OFFCURVE",
"478 350 OFFCURVE",
"518 422 CURVE",
"506 342 OFFCURVE",
"475 259 OFFCURVE",
"419 181 CURVE SMOOTH",
"337 67 OFFCURVE",
"212 13 OFFCURVE",
"100 13 CURVE"
);
},
{
closed = 1;
nodes = (
"525 495 OFFCURVE",
"524 479 OFFCURVE",
"523 460 CURVE",
"525 472 LINE",
"495 385 OFFCURVE",
"407 314 OFFCURVE",
"303 314 CURVE SMOOTH",
"297 314 LINE SMOOTH",
"173 314 OFFCURVE",
"85 400 OFFCURVE",
"85 532 CURVE SMOOTH",
"85 548 LINE SMOOTH",
"85 680 OFFCURVE",
"178 766 OFFCURVE",
"302 766 CURVE SMOOTH",
"308 766 LINE SMOOTH",
"432 766 OFFCURVE",
"525 675 OFFCURVE",
"525 528 CURVE SMOOTH",
"525 512 LINE SMOOTH"
);
}
);
width = 600;
},
{
layerId = "8A6A1EBA-5B98-4308-8E77-A32B8A512EB8";
name = Bold;
paths = (
{
closed = 1;
nodes = (
"75 -14 LINE",
"242 -14 OFFCURVE",
"369 15 OFFCURVE",
"455 130 CURVE SMOOTH",
"538 241 OFFCURVE",
"565 366 OFFCURVE",
"565 490 CURVE SMOOTH",
"565 504 LINE SMOOTH",
"565 675 OFFCURVE",
"476 794 OFFCURVE",
"300 794 CURVE SMOOTH",
"121 794 OFFCURVE",
"35 695 OFFCURVE",
"35 544 CURVE SMOOTH",
"35 534 LINE SMOOTH",
"35 383 OFFCURVE",
"119 288 OFFCURVE",
"249 288 CURVE SMOOTH",
"292 288 OFFCURVE",
"327 299 OFFCURVE",
"356 316 CURVE",
"346 283 OFFCURVE",
"331 256 OFFCURVE",
"312 233 CURVE SMOOTH",
"263 175 OFFCURVE",
"194 151 OFFCURVE",
"75 150 CURVE"
);
},
{
closed = 1;
nodes = (
"379 500 OFFCURVE",
"378 483 OFFCURVE",
"376 467 CURVE",
"389 514 LINE",
"372 467 OFFCURVE",
"330 449 OFFCURVE",
"298 449 CURVE SMOOTH",
"293 449 LINE SMOOTH",
"253 449 OFFCURVE",
"221 470 OFFCURVE",
"221 529 CURVE SMOOTH",
"221 549 LINE SMOOTH",
"221 603 OFFCURVE",
"258 632 OFFCURVE",
"297 632 CURVE SMOOTH",
"303 632 LINE SMOOTH",
"345 632 OFFCURVE",
"379 595 OFFCURVE",
"379 520 CURVE SMOOTH",
"379 515 LINE SMOOTH"
);
}
);
width = 600;
}
);
unicode = 0039;
},
{
glyphname = twosuperior;
lastChange = "2015-06-21 20:09:14 +0000";
layers = (
{
layerId = "7E0ECC91-5B8E-4D6E-BF07-DE660E899F7B";
name = Light;
paths = (
{
closed = 1;
nodes = (
"265 410 LINE",
"102 410 LINE",
"55 409 LINE",
"58 402 LINE",
"224 577 LINE SMOOTH",
"261 616 OFFCURVE",
"270 639 OFFCURVE",
"270 677 CURVE SMOOTH",
"270 682 LINE SMOOTH",
"270 747 OFFCURVE",
"223 785 OFFCURVE",
"150 785 CURVE SMOOTH",
"66 785 OFFCURVE",
"30 739 OFFCURVE",
"30 662 CURVE SMOOTH",
"30 650 LINE",
"50 650 LINE",
"50 652 LINE SMOOTH",
"50 733 OFFCURVE",
"82 766 OFFCURVE",
"148 766 CURVE SMOOTH",
"151 766 LINE SMOOTH",
"210 766 OFFCURVE",
"249 732 OFFCURVE",
"249 680 CURVE SMOOTH",
"249 675 LINE SMOOTH",
"249 644 OFFCURVE",
"239 622 OFFCURVE",
"205 586 CURVE SMOOTH",
"30 402 LINE",
"30 390 LINE",
"265 390 LINE"
);
}
);
width = 300;
},
{
layerId = "8A6A1EBA-5B98-4308-8E77-A32B8A512EB8";
name = Bold;
paths = (
{
closed = 1;
nodes = (
"285 503 LINE",
"158 503 LINE",
"110 503 LINE",
"138 441 LINE",
"243 560 LINE SMOOTH",
"272 593 OFFCURVE",
"285 618 OFFCURVE",
"285 662 CURVE SMOOTH",
"285 674 LINE SMOOTH",
"285 714 OFFCURVE",
"264 788 OFFCURVE",
"150 788 CURVE SMOOTH",
"60 788 OFFCURVE",
"15 748 OFFCURVE",
"15 658 CURVE SMOOTH",
"15 650 LINE",
"140 650 LINE",
"140 674 LINE SMOOTH",
"140 679 OFFCURVE",
"144 681 OFFCURVE",
"146 681 CURVE SMOOTH",
"148 681 LINE SMOOTH",
"151 681 OFFCURVE",
"154 679 OFFCURVE",
"154 674 CURVE SMOOTH",
"154 646 LINE SMOOTH",
"154 635 OFFCURVE",
"150 630 OFFCURVE",
"144 623 CURVE SMOOTH",
"15 473 LINE",
"15 390 LINE",
"285 390 LINE"
);
}
);
width = 300;
}
);
unicode = 00B2;
},
{
glyphname = threesuperior;
lastChange = "2015-06-21 20:09:14 +0000";
layers = (
{
layerId = "7E0ECC91-5B8E-4D6E-BF07-DE660E899F7B";
name = Light;
paths = (
{
closed = 1;
nodes = (
"50 650 LINE",
"50 654 LINE SMOOTH",
"51 733 OFFCURVE",
"82 766 OFFCURVE",
"147 766 CURVE SMOOTH",
"152 766 LINE SMOOTH",
"211 766 OFFCURVE",
"249 732 OFFCURVE",
"249 680 CURVE SMOOTH",
"249 676 LINE SMOOTH",
"249 622 OFFCURVE",
"207 598 OFFCURVE",
"156 598 CURVE SMOOTH",
"100 598 LINE",
"100 579 LINE",
"158 579 LINE SMOOTH",
"210 579 OFFCURVE",
"251 552 OFFCURVE",
"251 495 CURVE SMOOTH",
"251 487 LINE SMOOTH",
"251 430 OFFCURVE",
"204 404 OFFCURVE",
"152 404 CURVE SMOOTH",
"147 404 LINE SMOOTH",
"85 404 OFFCURVE",
"48 438 OFFCURVE",
"47 512 CURVE SMOOTH",
"47 515 LINE",
"27 515 LINE",
"27 510 LINE SMOOTH",
"27 434 OFFCURVE",
"65 385 OFFCURVE",
"150 385 CURVE SMOOTH",
"216 385 OFFCURVE",
"272 422 OFFCURVE",
"272 488 CURVE SMOOTH",
"272 496 LINE SMOOTH",
"272 546 OFFCURVE",
"243 577 OFFCURVE",
"199 588 CURVE",
"242 599 OFFCURVE",
"270 627 OFFCURVE",
"270 675 CURVE SMOOTH",
"270 682 LINE SMOOTH",
"270 747 OFFCURVE",
"223 785 OFFCURVE",
"150 785 CURVE SMOOTH",
"66 785 OFFCURVE",
"30 739 OFFCURVE",
"30 662 CURVE SMOOTH",
"30 650 LINE"
);
}
);
width = 300;
},
{
layerId = "8A6A1EBA-5B98-4308-8E77-A32B8A512EB8";
name = Bold;
paths = (
{
closed = 1;
nodes = (
"140 650 LINE",
"140 674 LINE SMOOTH",
"140 679 OFFCURVE",
"143 681 OFFCURVE",
"146 681 CURVE",
"148 681 LINE",
"152 681 OFFCURVE",
"154 679 OFFCURVE",
"154 674 CURVE SMOOTH",
"154 648 LINE SMOOTH",
"154 641 OFFCURVE",
"149 638 OFFCURVE",
"142 638 CURVE SMOOTH",
"100 638 LINE",
"100 532 LINE",
"145 532 LINE SMOOTH",
"153 532 OFFCURVE",
"158 529 OFFCURVE",
"158 518 CURVE SMOOTH",
"158 496 LINE SMOOTH",
"158 492 OFFCURVE",
"155 489 OFFCURVE",
"152 489 CURVE SMOOTH",
"150 489 LINE SMOOTH",
"147 489 OFFCURVE",
"144 492 OFFCURVE",
"144 496 CURVE SMOOTH",
"144 515 LINE",
"12 515 LINE",
"12 506 LINE SMOOTH",
"12 424 OFFCURVE",
"60 381 OFFCURVE",
"150 381 CURVE SMOOTH",
"267 381 OFFCURVE",
"287 460 OFFCURVE",
"287 494 CURVE SMOOTH",
"287 505 LINE SMOOTH",
"287 547 OFFCURVE",
"268 577 OFFCURVE",
"243 590 CURVE",
"269 603 OFFCURVE",
"285 634 OFFCURVE",
"285 673 CURVE SMOOTH",
"285 684 LINE SMOOTH",
"285 716 OFFCURVE",
"264 788 OFFCURVE",
"150 788 CURVE SMOOTH",
"60 788 OFFCURVE",
"15 748 OFFCURVE",
"15 658 CURVE SMOOTH",
"15 650 LINE"
);
}
);
width = 300;
}
);
unicode = 00B3;
},
{
glyphname = onesuperior;
lastChange = "2015-06-21 20:09:14 +0000";
layers = (
{
layerId = "7E0ECC91-5B8E-4D6E-BF07-DE660E899F7B";
name = Light;
paths = (
{
closed = 1;
nodes = (
"272 390 LINE",
"272 410 LINE",
"165 410 LINE",
"165 782 LINE",
"155 782 LINE",
"32 699 LINE",
"43 682 LINE",
"145 752 LINE",
"145 410 LINE",
"37 410 LINE",
"37 390 LINE"
);
}
);
width = 300;
},
{
layerId = "8A6A1EBA-5B98-4308-8E77-A32B8A512EB8";
name = Bold;
paths = (
{
closed = 1;
nodes = (
"287 390 LINE",
"287 503 LINE",
"221 503 LINE",
"221 778 LINE",
"118 778 LINE",
"-2 696 LINE",
"62 603 LINE",
"89 621 LINE",
"89 503 LINE",
"22 503 LINE",
"22 390 LINE"
);
}
);
width = 300;
}
);
unicode = 00B9;
},
{
glyphname = onequarter;
lastChange = "2015-06-21 20:09:14 +0000";
layers = (
{
layerId = "7E0ECC91-5B8E-4D6E-BF07-DE660E899F7B";
name = Light;
paths = (
{
closed = 1;
nodes = (
"710 0 LINE",
"710 110 LINE",
"782 110 LINE",
"782 130 LINE",
"710 130 LINE",
"710 390 LINE",
"690 390 LINE",
"517 122 LINE",
"517 110 LINE",
"690 110 LINE",
"690 0 LINE"
);
},
{
closed = 1;
nodes = (
"124 0 LINE",
"700 780 LINE",
"676 780 LINE",
"100 0 LINE"
);
},
{
closed = 1;
nodes = (
"690 354 LINE",
"690 130 LINE",
"595 130 LINE",
"546 129 LINE"
);
},
{
closed = 1;
nodes = (
"272 390 LINE",
"272 410 LINE",
"165 410 LINE",
"165 782 LINE",
"155 782 LINE",
"32 699 LINE",
"43 682 LINE",
"145 752 LINE",
"145 410 LINE",
"37 410 LINE",
"37 390 LINE"
);
}
);
width = 800;
},
{
layerId = "8A6A1EBA-5B98-4308-8E77-A32B8A512EB8";
name = Bold;
paths = (
{
closed = 1;
nodes = (
"287 390 LINE",
"287 503 LINE",
"221 503 LINE",
"221 778 LINE",
"118 778 LINE",
"-2 696 LINE",
"62 603 LINE",
"89 621 LINE",
"89 503 LINE",
"22 503 LINE",
"22 390 LINE"
);
},
{
closed = 1;
nodes = (
"187 0 LINE",
"763 780 LINE",
"613 780 LINE",
"37 0 LINE"
);
},
{
closed = 1;
nodes = (
"774 0 LINE",
"774 63 LINE",
"790 63 LINE",
"790 177 LINE",
"774 177 LINE",
"774 390 LINE",
"649 390 LINE",
"510 156 LINE",
"510 63 LINE",
"642 63 LINE",
"642 0 LINE"
);
},
{
closed = 1;
nodes = (
"620 175 LINE",
"644 215 LINE",
"642 175 LINE"
);
}
);
width = 800;
}
);
unicode = 00BC;
},
{
glyphname = onehalf;
lastChange = "2015-06-21 20:09:14 +0000";
layers = (
{
layerId = "7E0ECC91-5B8E-4D6E-BF07-DE660E899F7B";
name = Light;
paths = (
{
closed = 1;
nodes = (
"602 20 LINE",
"564 19 LINE",
"724 187 LINE SMOOTH",
"761 226 OFFCURVE",
"770 249 OFFCURVE",
"770 287 CURVE SMOOTH",
"770 292 LINE SMOOTH",
"770 357 OFFCURVE",
"723 395 OFFCURVE",
"650 395 CURVE SMOOTH",
"566 395 OFFCURVE",
"530 349 OFFCURVE",
"530 272 CURVE SMOOTH",
"530 260 LINE",
"550 260 LINE",
"550 342 OFFCURVE",
"582 376 OFFCURVE",
"648 376 CURVE SMOOTH",
"651 376 LINE SMOOTH",
"710 376 OFFCURVE",
"749 342 OFFCURVE",
"749 290 CURVE SMOOTH",
"749 285 LINE SMOOTH",
"749 254 OFFCURVE",
"739 232 OFFCURVE",
"705 196 CURVE SMOOTH",
"530 12 LINE",
"530 0 LINE",
"765 0 LINE",
"765 20 LINE"
);
},
{
closed = 1;
nodes = (
"124 0 LINE",
"700 780 LINE",
"676 780 LINE",
"100 0 LINE"
);
},
{
closed = 1;
nodes = (
"272 390 LINE",
"272 410 LINE",
"165 410 LINE",
"165 782 LINE",
"155 782 LINE",
"32 699 LINE",
"43 682 LINE",
"145 752 LINE",
"145 410 LINE",
"37 410 LINE",
"37 390 LINE"
);
}
);
width = 800;
},
{
layerId = "8A6A1EBA-5B98-4308-8E77-A32B8A512EB8";
name = Bold;
paths = (
{
closed = 1;
nodes = (
"287 390 LINE",
"287 503 LINE",
"221 503 LINE",
"221 778 LINE",
"118 778 LINE",
"-2 696 LINE",
"62 603 LINE",
"89 621 LINE",
"89 503 LINE",
"22 503 LINE",
"22 390 LINE"
);
},
{
closed = 1;
nodes = (
"187 0 LINE",
"763 780 LINE",
"613 780 LINE",
"37 0 LINE"
);
},
{
closed = 1;
nodes = (
"785 113 LINE",
"693 113 LINE",
"743 170 LINE SMOOTH",
"772 203 OFFCURVE",
"785 228 OFFCURVE",
"785 272 CURVE SMOOTH",
"785 284 LINE SMOOTH",
"785 324 OFFCURVE",
"764 398 OFFCURVE",
"650 398 CURVE SMOOTH",
"560 398 OFFCURVE",
"515 358 OFFCURVE",
"515 268 CURVE SMOOTH",
"515 260 LINE",
"640 260 LINE",
"640 284 LINE SMOOTH",
"640 293 OFFCURVE",
"654 293 OFFCURVE",
"654 284 CURVE SMOOTH",
"654 256 LINE SMOOTH",
"654 245 OFFCURVE",
"650 240 OFFCURVE",
"644 233 CURVE SMOOTH",
"515 83 LINE",
"515 0 LINE",
"785 0 LINE"
);
}
);
width = 800;
}
);
unicode = 00BD;
},
{
glyphname = threequarters;
lastChange = "2015-06-21 20:09:14 +0000";
layers = (
{
layerId = "7E0ECC91-5B8E-4D6E-BF07-DE660E899F7B";
name = Light;
paths = (
{
closed = 1;
nodes = (
"710 0 LINE",
"710 110 LINE",
"782 110 LINE",
"782 130 LINE",
"710 130 LINE",
"710 390 LINE",
"690 390 LINE",
"517 122 LINE",
"517 110 LINE",
"690 110 LINE",
"690 0 LINE"
);
},
{
closed = 1;
nodes = (
"147 404 LINE SMOOTH",
"84 404 OFFCURVE",
"47 439 OFFCURVE",
"47 515 CURVE",
"27 515 LINE",
"27 510 LINE SMOOTH",
"27 434 OFFCURVE",
"65 385 OFFCURVE",
"150 385 CURVE SMOOTH",
"216 385 OFFCURVE",
"272 422 OFFCURVE",
"272 488 CURVE SMOOTH",
"272 496 LINE SMOOTH",
"272 546 OFFCURVE",
"243 577 OFFCURVE",
"199 588 CURVE",
"242 599 OFFCURVE",
"270 627 OFFCURVE",
"270 675 CURVE SMOOTH",
"270 682 LINE SMOOTH",
"270 747 OFFCURVE",
"223 785 OFFCURVE",
"150 785 CURVE SMOOTH",
"66 785 OFFCURVE",
"30 739 OFFCURVE",
"30 662 CURVE SMOOTH",
"30 650 LINE",
"50 650 LINE",
"50 732 OFFCURVE",
"81 766 OFFCURVE",
"147 766 CURVE SMOOTH",
"152 766 LINE SMOOTH",
"211 766 OFFCURVE",
"249 732 OFFCURVE",
"249 680 CURVE SMOOTH",
"249 676 LINE SMOOTH",
"249 622 OFFCURVE",
"207 598 OFFCURVE",
"156 598 CURVE SMOOTH",
"100 598 LINE",
"100 579 LINE",
"158 579 LINE SMOOTH",
"210 579 OFFCURVE",
"251 552 OFFCURVE",
"251 495 CURVE SMOOTH",
"251 487 LINE SMOOTH",
"251 430 OFFCURVE",
"204 404 OFFCURVE",
"152 404 CURVE SMOOTH"
);
},
{
closed = 1;
nodes = (
"124 0 LINE",
"700 780 LINE",
"676 780 LINE",
"100 0 LINE"
);
},
{
closed = 1;
nodes = (
"690 354 LINE",
"690 130 LINE",
"595 130 LINE",
"546 129 LINE"
);
}
);
width = 800;
},
{
layerId = "8A6A1EBA-5B98-4308-8E77-A32B8A512EB8";
name = Bold;
paths = (
{
closed = 1;
nodes = (
"144 515 LINE",
"12 515 LINE",
"12 506 LINE SMOOTH",
"12 424 OFFCURVE",
"60 381 OFFCURVE",
"150 381 CURVE SMOOTH",
"267 381 OFFCURVE",
"287 460 OFFCURVE",
"287 494 CURVE SMOOTH",
"287 505 LINE SMOOTH",
"287 547 OFFCURVE",
"268 577 OFFCURVE",
"243 590 CURVE",
"269 603 OFFCURVE",
"285 634 OFFCURVE",
"285 673 CURVE SMOOTH",
"285 684 LINE SMOOTH",
"285 716 OFFCURVE",
"264 788 OFFCURVE",
"150 788 CURVE SMOOTH",
"60 788 OFFCURVE",
"15 748 OFFCURVE",
"15 658 CURVE SMOOTH",
"15 650 LINE",
"140 650 LINE",
"140 674 LINE SMOOTH",
"140 683 OFFCURVE",
"154 683 OFFCURVE",
"154 674 CURVE SMOOTH",
"154 648 LINE SMOOTH",
"154 641 OFFCURVE",
"149 638 OFFCURVE",
"142 638 CURVE SMOOTH",
"100 638 LINE",
"100 532 LINE",
"145 532 LINE SMOOTH",
"153 532 OFFCURVE",
"158 529 OFFCURVE",
"158 518 CURVE SMOOTH",
"158 496 LINE SMOOTH",
"158 487 OFFCURVE",
"144 487 OFFCURVE",
"144 496 CURVE SMOOTH"
);
},
{
closed = 1;
nodes = (
"187 0 LINE",
"763 780 LINE",
"613 780 LINE",
"37 0 LINE"
);
},
{
closed = 1;
nodes = (
"774 0 LINE",
"774 63 LINE",
"790 63 LINE",
"790 177 LINE",
"774 177 LINE",
"774 390 LINE",
"649 390 LINE",
"510 156 LINE",
"510 63 LINE",
"642 63 LINE",
"642 0 LINE"
);
},
{
closed = 1;
nodes = (
"620 175 LINE",
"644 215 LINE",
"642 175 LINE"
);
}
);
width = 800;
}
);
unicode = 00BE;
},
{
glyphname = uni2070;
lastChange = "2015-06-21 20:09:14 +0000";
layers = (
{
layerId = "7E0ECC91-5B8E-4D6E-BF07-DE660E899F7B";
name = Light;
paths = (
{
closed = 1;
nodes = (
"266 502 CURVE SMOOTH",
"266 667 LINE SMOOTH",
"266 735 OFFCURVE",
"235 785 OFFCURVE",
"150 785 CURVE SMOOTH",
"65 785 OFFCURVE",
"34 735 OFFCURVE",
"34 667 CURVE SMOOTH",
"34 502 LINE SMOOTH",
"34 435 OFFCURVE",
"65 385 OFFCURVE",
"150 385 CURVE SMOOTH",
"235 385 OFFCURVE",
"266 435 OFFCURVE"
);
},
{
closed = 1;
nodes = (
"245 662 CURVE SMOOTH",
"245 507 LINE SMOOTH",
"245 445 OFFCURVE",
"222 404 OFFCURVE",
"151 404 CURVE SMOOTH",
"148 404 LINE SMOOTH",
"77 404 OFFCURVE",
"55 445 OFFCURVE",
"55 507 CURVE SMOOTH",
"55 662 LINE SMOOTH",
"55 725 OFFCURVE",
"77 766 OFFCURVE",
"148 766 CURVE SMOOTH",
"151 766 LINE SMOOTH",
"222 766 OFFCURVE",
"245 725 OFFCURVE"
);
}
);
width = 300;
},
{
layerId = "8A6A1EBA-5B98-4308-8E77-A32B8A512EB8";
name = Bold;
paths = (
{
closed = 1;
nodes = (
"288 498 CURVE SMOOTH",
"288 671 LINE SMOOTH",
"288 739 OFFCURVE",
"235 788 OFFCURVE",
"150 788 CURVE SMOOTH",
"65 788 OFFCURVE",
"12 739 OFFCURVE",
"12 671 CURVE SMOOTH",
"12 498 LINE SMOOTH",
"12 431 OFFCURVE",
"65 381 OFFCURVE",
"150 381 CURVE SMOOTH",
"235 381 OFFCURVE",
"288 431 OFFCURVE"
);
},
{
closed = 1;
nodes = (
"160 502 LINE SMOOTH",
"160 487 OFFCURVE",
"140 487 OFFCURVE",
"140 502 CURVE SMOOTH",
"140 667 LINE SMOOTH",
"140 682 OFFCURVE",
"160 682 OFFCURVE",
"160 667 CURVE SMOOTH"
);
}
);
width = 300;
}
);
unicode = 2070;
},
{
glyphname = uni2074;
lastChange = "2015-06-21 20:09:14 +0000";
layers = (
{
layerId = "7E0ECC91-5B8E-4D6E-BF07-DE660E899F7B";
name = Light;
paths = (
{
closed = 1;
nodes = (
"190 500 LINE",
"190 390 LINE",
"210 390 LINE",
"210 500 LINE",
"282 500 LINE",
"282 520 LINE",
"210 520 LINE",
"210 780 LINE",
"190 780 LINE",
"17 512 LINE",
"17 500 LINE"
);
},
{
closed = 1;
nodes = (
"190 744 LINE",
"190 520 LINE",
"95 520 LINE",
"37 519 LINE",
"41 511 LINE"
);
}
);
width = 300;
},
{
layerId = "8A6A1EBA-5B98-4308-8E77-A32B8A512EB8";
name = Bold;
paths = (
{
closed = 1;
nodes = (
"142 453 LINE",
"142 390 LINE",
"274 390 LINE",
"274 453 LINE",
"290 453 LINE",
"290 567 LINE",
"274 567 LINE",
"274 780 LINE",
"149 780 LINE",
"10 546 LINE",
"10 453 LINE"
);
},
{
closed = 1;
nodes = (
"110 565 LINE",
"91 565 LINE",
"112 552 LINE",
"144 605 LINE",
"142 565 LINE"
);
}
);
width = 300;
}
);
unicode = 2074;
},
{
glyphname = uni2075;
lastChange = "2015-06-21 20:09:14 +0000";
layers = (
{
layerId = "7E0ECC91-5B8E-4D6E-BF07-DE660E899F7B";
name = Light;
paths = (
{
closed = 1;
nodes = (
"27 515 LINE",
"27 510 LINE SMOOTH",
"27 434 OFFCURVE",
"65 385 OFFCURVE",
"150 385 CURVE SMOOTH",
"216 385 OFFCURVE",
"272 426 OFFCURVE",
"272 507 CURVE SMOOTH",
"272 512 LINE SMOOTH",
"272 594 OFFCURVE",
"216 635 OFFCURVE",
"150 635 CURVE SMOOTH",
"108 635 OFFCURVE",
"73 620 OFFCURVE",
"52 593 CURVE",
"59 760 LINE",
"267 760 LINE",
"267 780 LINE",
"40 780 LINE",
"30 559 LINE",
"47 555 LINE",
"63 596 OFFCURVE",
"106 616 OFFCURVE",
"147 616 CURVE SMOOTH",
"152 616 LINE SMOOTH",
"204 616 OFFCURVE",
"251 585 OFFCURVE",
"251 515 CURVE SMOOTH",
"251 505 LINE SMOOTH",
"251 434 OFFCURVE",
"204 404 OFFCURVE",
"152 404 CURVE SMOOTH",
"147 404 LINE SMOOTH",
"85 404 OFFCURVE",
"48 438 OFFCURVE",
"47 512 CURVE SMOOTH",
"47 515 LINE"
);
}
);
width = 300;
},
{
layerId = "8A6A1EBA-5B98-4308-8E77-A32B8A512EB8";
name = Bold;
paths = (
{
closed = 1;
nodes = (
"12 515 LINE",
"12 506 LINE SMOOTH",
"12 424 OFFCURVE",
"60 381 OFFCURVE",
"150 381 CURVE SMOOTH",
"252 381 OFFCURVE",
"287 438 OFFCURVE",
"287 509 CURVE SMOOTH",
"287 522 LINE SMOOTH",
"287 598 OFFCURVE",
"254 650 OFFCURVE",
"180 650 CURVE SMOOTH",
"158 650 OFFCURVE",
"138 645 OFFCURVE",
"130 639 CURVE",
"132 666 LINE",
"282 666 LINE",
"282 780 LINE",
"23 780 LINE",
"15 572 LINE",
"129 532 LINE",
"134 535 OFFCURVE",
"139 536 OFFCURVE",
"142 536 CURVE SMOOTH",
"143 536 LINE SMOOTH",
"153 536 OFFCURVE",
"158 531 OFFCURVE",
"158 523 CURVE SMOOTH",
"158 496 LINE SMOOTH",
"158 492 OFFCURVE",
"155 489 OFFCURVE",
"152 489 CURVE SMOOTH",
"150 489 LINE SMOOTH",
"147 489 OFFCURVE",
"144 492 OFFCURVE",
"144 496 CURVE SMOOTH",
"144 515 LINE"
);
}
);
width = 300;
}
);
unicode = 2075;
},
{
glyphname = uni2076;
lastChange = "2015-06-21 20:09:14 +0000";
layers = (
{
layerId = "7E0ECC91-5B8E-4D6E-BF07-DE660E899F7B";
name = Light;
paths = (
{
closed = 1;
nodes = (
"257 785 LINE",
"200 785 OFFCURVE",
"128 760 OFFCURVE",
"85 703 CURVE SMOOTH",
"43 647 OFFCURVE",
"30 587 OFFCURVE",
"30 525 CURVE SMOOTH",
"30 520 LINE SMOOTH",
"30 431 OFFCURVE",
"85 385 OFFCURVE",
"152 385 CURVE SMOOTH",
"223 385 OFFCURVE",
"275 423 OFFCURVE",
"275 507 CURVE SMOOTH",
"275 512 LINE SMOOTH",
"275 596 OFFCURVE",
"223 635 OFFCURVE",
"155 635 CURVE SMOOTH",
"112 635 OFFCURVE",
"78 616 OFFCURVE",
"56 588 CURVE",
"63 622 OFFCURVE",
"77 658 OFFCURVE",
"102 690 CURVE SMOOTH",
"143 744 OFFCURVE",
"207 765 OFFCURVE",
"257 765 CURVE"
);
},
{
closed = 1;
nodes = (
"254 506 LINE SMOOTH",
"254 441 OFFCURVE",
"216 405 OFFCURVE",
"154 405 CURVE SMOOTH",
"151 405 LINE SMOOTH",
"95 405 OFFCURVE",
"50 448 OFFCURVE",
"50 520 CURVE SMOOTH",
"50 525 LINE SMOOTH",
"50 535 OFFCURVE",
"50 548 OFFCURVE",
"52 558 CURVE",
"49 547 LINE",
"66 586 OFFCURVE",
"104 615 OFFCURVE",
"153 615 CURVE SMOOTH",
"156 615 LINE SMOOTH",
"216 615 OFFCURVE",
"254 578 OFFCURVE",
"254 514 CURVE SMOOTH"
);
}
);
width = 300;
},
{
layerId = "8A6A1EBA-5B98-4308-8E77-A32B8A512EB8";
name = Bold;
paths = (
{
closed = 1;
nodes = (
"265 788 LINE",
"186 788 OFFCURVE",
"118 780 OFFCURVE",
"67 722 CURVE SMOOTH",
"25 674 OFFCURVE",
"11 602 OFFCURVE",
"11 540 CURVE SMOOTH",
"11 532 LINE SMOOTH",
"11 449 OFFCURVE",
"49 381 OFFCURVE",
"148 381 CURVE SMOOTH",
"249 381 OFFCURVE",
"287 437 OFFCURVE",
"287 508 CURVE SMOOTH",
"287 518 LINE SMOOTH",
"287 589 OFFCURVE",
"254 636 OFFCURVE",
"194 636 CURVE SMOOTH",
"181 636 OFFCURVE",
"157 632 OFFCURVE",
"146 623 CURVE",
"150 635 OFFCURVE",
"158 645 OFFCURVE",
"167 652 CURVE SMOOTH",
"186 667 OFFCURVE",
"221 672 OFFCURVE",
"265 672 CURVE"
);
},
{
closed = 1;
nodes = (
"156 496 LINE SMOOTH",
"156 492 OFFCURVE",
"153 489 OFFCURVE",
"150 489 CURVE SMOOTH",
"148 489 LINE SMOOTH",
"145 489 OFFCURVE",
"142 492 OFFCURVE",
"142 496 CURVE SMOOTH",
"142 521 LINE SMOOTH",
"142 526 OFFCURVE",
"145 528 OFFCURVE",
"148 528 CURVE SMOOTH",
"150 528 LINE SMOOTH",
"153 528 OFFCURVE",
"156 525 OFFCURVE",
"156 521 CURVE SMOOTH"
);
}
);
width = 300;
}
);
unicode = 2076;
},
{
glyphname = uni2077;
lastChange = "2015-06-21 20:09:14 +0000";
layers = (
{
layerId = "7E0ECC91-5B8E-4D6E-BF07-DE660E899F7B";
name = Light;
paths = (
{
closed = 1;
nodes = (
"32 640 LINE",
"52 640 LINE",
"52 760 LINE",
"248 760 LINE",
"97 390 LINE",
"119 390 LINE",
"272 767 LINE",
"272 780 LINE",
"32 780 LINE"
);
}
);
width = 300;
},
{
layerId = "8A6A1EBA-5B98-4308-8E77-A32B8A512EB8";
name = Bold;
paths = (
{
closed = 1;
nodes = (
"7 640 LINE",
"121 640 LINE",
"121 666 LINE",
"167 667 LINE",
"28 390 LINE",
"172 390 LINE",
"292 698 LINE",
"292 780 LINE",
"7 780 LINE"
);
}
);
width = 300;
}
);
unicode = 2077;
},
{
glyphname = uni2078;
lastChange = "2015-06-21 20:09:14 +0000";
layers = (
{
layerId = "7E0ECC91-5B8E-4D6E-BF07-DE660E899F7B";
name = Light;
paths = (
{
closed = 1;
nodes = (
"150 385 CURVE SMOOTH",
"216 385 OFFCURVE",
"272 420 OFFCURVE",
"272 487 CURVE SMOOTH",
"272 494 LINE SMOOTH",
"272 545 OFFCURVE",
"243 576 OFFCURVE",
"199 588 CURVE",
"242 600 OFFCURVE",
"270 629 OFFCURVE",
"270 677 CURVE SMOOTH",
"270 684 LINE SMOOTH",
"270 749 OFFCURVE",
"223 785 OFFCURVE",
"150 785 CURVE SMOOTH",
"76 785 OFFCURVE",
"30 749 OFFCURVE",
"30 684 CURVE SMOOTH",
"30 677 LINE SMOOTH",
"30 629 OFFCURVE",
"58 600 OFFCURVE",
"100 588 CURVE",
"56 576 OFFCURVE",
"27 545 OFFCURVE",
"27 494 CURVE SMOOTH",
"27 487 LINE SMOOTH",
"27 420 OFFCURVE",
"83 385 OFFCURVE"
);
},
{
closed = 1;
nodes = (
"141 579 CURVE SMOOTH",
"158 579 LINE SMOOTH",
"210 579 OFFCURVE",
"251 550 OFFCURVE",
"251 493 CURVE SMOOTH",
"251 486 LINE SMOOTH",
"251 429 OFFCURVE",
"204 404 OFFCURVE",
"152 404 CURVE SMOOTH",
"147 404 LINE SMOOTH",
"96 404 OFFCURVE",
"48 429 OFFCURVE",
"48 486 CURVE SMOOTH",
"48 493 LINE SMOOTH",
"48 550 OFFCURVE",
"90 579 OFFCURVE"
);
},
{
closed = 1;
nodes = (
"152 766 LINE SMOOTH",
"211 766 OFFCURVE",
"249 734 OFFCURVE",
"249 681 CURVE SMOOTH",
"249 678 LINE SMOOTH",
"249 623 OFFCURVE",
"207 598 OFFCURVE",
"156 598 CURVE SMOOTH",
"144 598 LINE SMOOTH",
"92 598 OFFCURVE",
"51 623 OFFCURVE",
"51 678 CURVE SMOOTH",
"51 681 LINE SMOOTH",
"51 734 OFFCURVE",
"89 766 OFFCURVE",
"147 766 CURVE SMOOTH"
);
}
);
width = 300;
},
{
layerId = "8A6A1EBA-5B98-4308-8E77-A32B8A512EB8";
name = Bold;
paths = (
{
closed = 1;
nodes = (
"157 496 LINE SMOOTH",
"157 487 OFFCURVE",
"143 487 OFFCURVE",
"143 496 CURVE SMOOTH",
"143 525 LINE SMOOTH",
"143 534 OFFCURVE",
"157 534 OFFCURVE",
"157 525 CURVE SMOOTH"
);
},
{
closed = 1;
nodes = (
"157 645 LINE SMOOTH",
"157 636 OFFCURVE",
"143 636 OFFCURVE",
"143 645 CURVE SMOOTH",
"143 674 LINE SMOOTH",
"143 683 OFFCURVE",
"157 683 OFFCURVE",
"157 674 CURVE SMOOTH"
);
},
{
closed = 1;
nodes = (
"150 381 CURVE SMOOTH",
"267 381 OFFCURVE",
"287 460 OFFCURVE",
"287 494 CURVE SMOOTH",
"287 505 LINE SMOOTH",
"287 547 OFFCURVE",
"268 577 OFFCURVE",
"243 590 CURVE",
"269 603 OFFCURVE",
"285 634 OFFCURVE",
"285 673 CURVE SMOOTH",
"285 684 LINE SMOOTH",
"285 716 OFFCURVE",
"264 788 OFFCURVE",
"150 788 CURVE SMOOTH",
"36 788 OFFCURVE",
"15 716 OFFCURVE",
"15 684 CURVE SMOOTH",
"15 673 LINE SMOOTH",
"15 634 OFFCURVE",
"31 603 OFFCURVE",
"57 590 CURVE",
"32 577 OFFCURVE",
"13 547 OFFCURVE",
"13 505 CURVE SMOOTH",
"13 494 LINE SMOOTH",
"13 460 OFFCURVE",
"33 381 OFFCURVE"
);
}
);
width = 300;
}
);
unicode = 2078;
},
{
glyphname = uni2079;
lastChange = "2015-06-21 20:09:14 +0000";
layers = (
{
layerId = "7E0ECC91-5B8E-4D6E-BF07-DE660E899F7B";
name = Light;
paths = (
{
closed = 1;
nodes = (
"42 385 LINE",
"100 385 OFFCURVE",
"172 409 OFFCURVE",
"215 467 CURVE SMOOTH",
"256 522 OFFCURVE",
"270 583 OFFCURVE",
"270 645 CURVE SMOOTH",
"270 650 LINE SMOOTH",
"270 738 OFFCURVE",
"215 785 OFFCURVE",
"147 785 CURVE SMOOTH",
"77 785 OFFCURVE",
"25 746 OFFCURVE",
"25 662 CURVE SMOOTH",
"25 657 LINE SMOOTH",
"25 573 OFFCURVE",
"77 535 OFFCURVE",
"145 535 CURVE SMOOTH",
"188 535 OFFCURVE",
"221 553 OFFCURVE",
"243 582 CURVE",
"236 547 OFFCURVE",
"222 511 OFFCURVE",
"198 480 CURVE SMOOTH",
"157 425 OFFCURVE",
"92 405 OFFCURVE",
"42 405 CURVE"
);
},
{
closed = 1;
nodes = (
"143 555 LINE SMOOTH",
"84 555 OFFCURVE",
"46 591 OFFCURVE",
"46 656 CURVE SMOOTH",
"46 664 LINE SMOOTH",
"46 728 OFFCURVE",
"84 765 OFFCURVE",
"146 765 CURVE SMOOTH",
"149 765 LINE SMOOTH",
"205 765 OFFCURVE",
"250 722 OFFCURVE",
"250 650 CURVE SMOOTH",
"250 645 LINE SMOOTH",
"250 637 OFFCURVE",
"249 628 OFFCURVE",
"249 619 CURVE",
"231 581 OFFCURVE",
"193 555 OFFCURVE",
"146 555 CURVE SMOOTH"
);
}
);
width = 300;
},
{
layerId = "8A6A1EBA-5B98-4308-8E77-A32B8A512EB8";
name = Bold;
paths = (
{
closed = 1;
nodes = (
"33 381 LINE",
"112 381 OFFCURVE",
"182 389 OFFCURVE",
"233 447 CURVE SMOOTH",
"275 495 OFFCURVE",
"289 567 OFFCURVE",
"289 629 CURVE SMOOTH",
"289 637 LINE SMOOTH",
"289 720 OFFCURVE",
"251 788 OFFCURVE",
"152 788 CURVE SMOOTH",
"51 788 OFFCURVE",
"13 732 OFFCURVE",
"13 661 CURVE SMOOTH",
"13 651 LINE SMOOTH",
"13 580 OFFCURVE",
"46 533 OFFCURVE",
"106 533 CURVE SMOOTH",
"119 533 OFFCURVE",
"143 537 OFFCURVE",
"154 546 CURVE",
"150 534 OFFCURVE",
"142 524 OFFCURVE",
"133 517 CURVE SMOOTH",
"114 502 OFFCURVE",
"77 497 OFFCURVE",
"33 497 CURVE"
);
},
{
closed = 1;
nodes = (
"144 673 LINE SMOOTH",
"144 682 OFFCURVE",
"158 682 OFFCURVE",
"158 673 CURVE SMOOTH",
"158 648 LINE SMOOTH",
"158 639 OFFCURVE",
"144 639 OFFCURVE",
"144 648 CURVE SMOOTH"
);
}
);
width = 300;
}
);
unicode = 2079;
},
{
glyphname = uni2080;
lastChange = "2015-06-21 20:09:14 +0000";
layers = (
{
layerId = "7E0ECC91-5B8E-4D6E-BF07-DE660E899F7B";
name = Light;
paths = (
{
closed = 1;
nodes = (
"266 112 CURVE SMOOTH",
"266 277 LINE SMOOTH",
"266 345 OFFCURVE",
"235 395 OFFCURVE",
"150 395 CURVE SMOOTH",
"65 395 OFFCURVE",
"34 345 OFFCURVE",
"34 277 CURVE SMOOTH",
"34 112 LINE SMOOTH",
"34 45 OFFCURVE",
"65 -5 OFFCURVE",
"150 -5 CURVE SMOOTH",
"235 -5 OFFCURVE",
"266 45 OFFCURVE"
);
},
{
closed = 1;
nodes = (
"245 272 CURVE SMOOTH",
"245 117 LINE SMOOTH",
"245 55 OFFCURVE",
"222 14 OFFCURVE",
"151 14 CURVE SMOOTH",
"148 14 LINE SMOOTH",
"77 14 OFFCURVE",
"55 55 OFFCURVE",
"55 117 CURVE SMOOTH",
"55 272 LINE SMOOTH",
"55 335 OFFCURVE",
"77 376 OFFCURVE",
"148 376 CURVE SMOOTH",
"151 376 LINE SMOOTH",
"222 376 OFFCURVE",
"245 335 OFFCURVE"
);
}
);
width = 300;
},
{
layerId = "8A6A1EBA-5B98-4308-8E77-A32B8A512EB8";
name = Bold;
paths = (
{
closed = 1;
nodes = (
"288 108 CURVE SMOOTH",
"288 281 LINE SMOOTH",
"288 349 OFFCURVE",
"235 398 OFFCURVE",
"150 398 CURVE SMOOTH",
"65 398 OFFCURVE",
"12 349 OFFCURVE",
"12 281 CURVE SMOOTH",
"12 108 LINE SMOOTH",
"12 41 OFFCURVE",
"65 -9 OFFCURVE",
"150 -9 CURVE SMOOTH",
"235 -9 OFFCURVE",
"288 41 OFFCURVE"
);
},
{
closed = 1;
nodes = (
"160 112 LINE SMOOTH",
"160 97 OFFCURVE",
"140 97 OFFCURVE",
"140 112 CURVE SMOOTH",
"140 277 LINE SMOOTH",
"140 292 OFFCURVE",
"160 292 OFFCURVE",
"160 277 CURVE SMOOTH"
);
}
);
width = 300;
}
);
unicode = 2080;
},
{
glyphname = uni2081;
lastChange = "2015-06-21 20:09:14 +0000";
layers = (
{
layerId = "7E0ECC91-5B8E-4D6E-BF07-DE660E899F7B";
name = Light;
paths = (
{
closed = 1;
nodes = (
"272 0 LINE",
"272 20 LINE",
"165 20 LINE",
"165 392 LINE",
"155 392 LINE",
"32 309 LINE",
"43 292 LINE",
"145 362 LINE",
"145 20 LINE",
"37 20 LINE",
"37 0 LINE"
);
}
);
width = 300;
},
{
layerId = "8A6A1EBA-5B98-4308-8E77-A32B8A512EB8";
name = Bold;
paths = (
{
closed = 1;
nodes = (
"287 0 LINE",
"287 113 LINE",
"221 113 LINE",
"221 388 LINE",
"118 388 LINE",
"-2 306 LINE",
"62 213 LINE",
"89 231 LINE",
"89 113 LINE",
"22 113 LINE",
"22 0 LINE"
);
}
);
width = 300;
}
);
unicode = 2081;
},
{
glyphname = uni2082;
lastChange = "2015-06-21 20:09:14 +0000";
layers = (
{
layerId = "7E0ECC91-5B8E-4D6E-BF07-DE660E899F7B";
name = Light;
paths = (
{
closed = 1;
nodes = (
"102 20 LINE",
"64 19 LINE",
"224 187 LINE SMOOTH",
"261 226 OFFCURVE",
"270 249 OFFCURVE",
"270 287 CURVE SMOOTH",
"270 292 LINE SMOOTH",
"270 357 OFFCURVE",
"223 395 OFFCURVE",
"150 395 CURVE SMOOTH",
"66 395 OFFCURVE",
"30 349 OFFCURVE",
"30 272 CURVE SMOOTH",
"30 260 LINE",
"50 260 LINE",
"50 342 OFFCURVE",
"82 376 OFFCURVE",
"148 376 CURVE SMOOTH",
"151 376 LINE SMOOTH",
"210 376 OFFCURVE",
"249 342 OFFCURVE",
"249 290 CURVE SMOOTH",
"249 285 LINE SMOOTH",
"249 254 OFFCURVE",
"239 232 OFFCURVE",
"205 196 CURVE SMOOTH",
"30 12 LINE",
"30 0 LINE",
"265 0 LINE",
"265 20 LINE"
);
}
);
width = 300;
},
{
layerId = "8A6A1EBA-5B98-4308-8E77-A32B8A512EB8";
name = Bold;
paths = (
{
closed = 1;
nodes = (
"285 113 LINE",
"193 113 LINE",
"243 170 LINE SMOOTH",
"272 203 OFFCURVE",
"285 228 OFFCURVE",
"285 272 CURVE SMOOTH",
"285 284 LINE SMOOTH",
"285 324 OFFCURVE",
"264 398 OFFCURVE",
"150 398 CURVE SMOOTH",
"60 398 OFFCURVE",
"15 358 OFFCURVE",
"15 268 CURVE SMOOTH",
"15 260 LINE",
"140 260 LINE",
"140 284 LINE SMOOTH",
"140 293 OFFCURVE",
"154 293 OFFCURVE",
"154 284 CURVE SMOOTH",
"154 256 LINE SMOOTH",
"154 245 OFFCURVE",
"150 240 OFFCURVE",
"144 233 CURVE SMOOTH",
"15 83 LINE",
"15 0 LINE",
"285 0 LINE"
);
}
);
width = 300;
}
);
unicode = 2082;
},
{
glyphname = uni2083;
lastChange = "2015-06-21 20:09:14 +0000";
layers = (
{
layerId = "7E0ECC91-5B8E-4D6E-BF07-DE660E899F7B";
name = Light;
paths = (
{
closed = 1;
nodes = (
"147 14 LINE SMOOTH",
"84 14 OFFCURVE",
"47 49 OFFCURVE",
"47 125 CURVE",
"27 125 LINE",
"27 120 LINE SMOOTH",
"27 44 OFFCURVE",
"65 -5 OFFCURVE",
"150 -5 CURVE SMOOTH",
"216 -5 OFFCURVE",
"272 32 OFFCURVE",
"272 98 CURVE SMOOTH",
"272 106 LINE SMOOTH",
"272 156 OFFCURVE",
"243 187 OFFCURVE",
"199 198 CURVE",
"242 209 OFFCURVE",
"270 237 OFFCURVE",
"270 285 CURVE SMOOTH",
"270 292 LINE SMOOTH",
"270 357 OFFCURVE",
"223 395 OFFCURVE",
"150 395 CURVE SMOOTH",
"66 395 OFFCURVE",
"30 349 OFFCURVE",
"30 272 CURVE SMOOTH",
"30 260 LINE",
"50 260 LINE",
"50 342 OFFCURVE",
"81 376 OFFCURVE",
"147 376 CURVE SMOOTH",
"152 376 LINE SMOOTH",
"211 376 OFFCURVE",
"249 342 OFFCURVE",
"249 290 CURVE SMOOTH",
"249 286 LINE SMOOTH",
"249 232 OFFCURVE",
"207 208 OFFCURVE",
"156 208 CURVE SMOOTH",
"100 208 LINE",
"100 189 LINE",
"158 189 LINE SMOOTH",
"210 189 OFFCURVE",
"251 162 OFFCURVE",
"251 105 CURVE SMOOTH",
"251 97 LINE SMOOTH",
"251 40 OFFCURVE",
"204 14 OFFCURVE",
"152 14 CURVE SMOOTH"
);
}
);
width = 300;
},
{
layerId = "8A6A1EBA-5B98-4308-8E77-A32B8A512EB8";
name = Bold;
paths = (
{
closed = 1;
nodes = (
"144 125 LINE",
"12 125 LINE",
"12 116 LINE SMOOTH",
"12 34 OFFCURVE",
"60 -9 OFFCURVE",
"150 -9 CURVE SMOOTH",
"267 -9 OFFCURVE",
"287 70 OFFCURVE",
"287 104 CURVE SMOOTH",
"287 115 LINE SMOOTH",
"287 157 OFFCURVE",
"268 187 OFFCURVE",
"243 200 CURVE",
"269 213 OFFCURVE",
"285 244 OFFCURVE",
"285 283 CURVE SMOOTH",
"285 294 LINE SMOOTH",
"285 326 OFFCURVE",
"264 398 OFFCURVE",
"150 398 CURVE SMOOTH",
"60 398 OFFCURVE",
"15 358 OFFCURVE",
"15 268 CURVE SMOOTH",
"15 260 LINE",
"140 260 LINE",
"140 284 LINE SMOOTH",
"140 293 OFFCURVE",
"154 293 OFFCURVE",
"154 284 CURVE SMOOTH",
"154 258 LINE SMOOTH",
"154 251 OFFCURVE",
"149 248 OFFCURVE",
"142 248 CURVE SMOOTH",
"100 248 LINE",
"100 142 LINE",
"145 142 LINE SMOOTH",
"153 142 OFFCURVE",
"158 139 OFFCURVE",
"158 128 CURVE SMOOTH",
"158 106 LINE SMOOTH",
"158 97 OFFCURVE",
"144 97 OFFCURVE",
"144 106 CURVE SMOOTH"
);
}
);
width = 300;
}
);
unicode = 2083;
},
{
glyphname = uni2084;
lastChange = "2015-06-21 20:09:14 +0000";
layers = (
{
layerId = "7E0ECC91-5B8E-4D6E-BF07-DE660E899F7B";
name = Light;
paths = (
{
closed = 1;
nodes = (
"210 0 LINE",
"210 110 LINE",
"282 110 LINE",
"282 130 LINE",
"210 130 LINE",
"210 390 LINE",
"190 390 LINE",
"17 122 LINE",
"17 110 LINE",
"190 110 LINE",
"190 0 LINE"
);
},
{
closed = 1;
nodes = (
"190 354 LINE",
"190 130 LINE",
"95 130 LINE",
"46 129 LINE"
);
}
);
width = 300;
},
{
layerId = "8A6A1EBA-5B98-4308-8E77-A32B8A512EB8";
name = Bold;
paths = (
{
closed = 1;
nodes = (
"274 0 LINE",
"274 63 LINE",
"290 63 LINE",
"290 177 LINE",
"274 177 LINE",
"274 390 LINE",
"149 390 LINE",
"10 156 LINE",
"10 63 LINE",
"142 63 LINE",
"142 0 LINE"
);
},
{
closed = 1;
nodes = (
"120 175 LINE",
"144 215 LINE",
"142 175 LINE"
);
}
);
width = 300;
}
);
unicode = 2084;
},
{
glyphname = uni2085;
lastChange = "2015-06-21 20:09:14 +0000";
layers = (
{
layerId = "7E0ECC91-5B8E-4D6E-BF07-DE660E899F7B";
name = Light;
paths = (
{
closed = 1;
nodes = (
"47 165 LINE",
"63 206 OFFCURVE",
"106 226 OFFCURVE",
"147 226 CURVE SMOOTH",
"152 226 LINE SMOOTH",
"204 226 OFFCURVE",
"251 195 OFFCURVE",
"251 125 CURVE SMOOTH",
"251 115 LINE SMOOTH",
"251 44 OFFCURVE",
"204 14 OFFCURVE",
"152 14 CURVE SMOOTH",
"147 14 LINE SMOOTH",
"84 14 OFFCURVE",
"47 49 OFFCURVE",
"47 125 CURVE",
"27 125 LINE",
"27 120 LINE SMOOTH",
"27 44 OFFCURVE",
"65 -5 OFFCURVE",
"150 -5 CURVE SMOOTH",
"216 -5 OFFCURVE",
"272 36 OFFCURVE",
"272 117 CURVE SMOOTH",
"272 122 LINE SMOOTH",
"272 204 OFFCURVE",
"216 245 OFFCURVE",
"150 245 CURVE SMOOTH",
"108 245 OFFCURVE",
"73 230 OFFCURVE",
"52 203 CURVE",
"59 370 LINE",
"267 370 LINE",
"267 390 LINE",
"40 390 LINE",
"30 169 LINE"
);
}
);
width = 300;
},
{
layerId = "8A6A1EBA-5B98-4308-8E77-A32B8A512EB8";
name = Bold;
paths = (
{
closed = 1;
nodes = (
"12 125 LINE",
"12 116 LINE SMOOTH",
"12 34 OFFCURVE",
"60 -9 OFFCURVE",
"150 -9 CURVE SMOOTH",
"252 -9 OFFCURVE",
"287 48 OFFCURVE",
"287 119 CURVE SMOOTH",
"287 132 LINE SMOOTH",
"287 208 OFFCURVE",
"254 260 OFFCURVE",
"180 260 CURVE SMOOTH",
"158 260 OFFCURVE",
"138 255 OFFCURVE",
"130 249 CURVE",
"132 276 LINE",
"282 276 LINE",
"282 390 LINE",
"23 390 LINE",
"15 182 LINE",
"129 142 LINE",
"134 145 OFFCURVE",
"139 146 OFFCURVE",
"142 146 CURVE SMOOTH",
"143 146 LINE SMOOTH",
"153 146 OFFCURVE",
"158 141 OFFCURVE",
"158 133 CURVE SMOOTH",
"158 106 LINE SMOOTH",
"158 97 OFFCURVE",
"144 97 OFFCURVE",
"144 106 CURVE SMOOTH",
"144 125 LINE"
);
}
);
width = 300;
}
);
unicode = 2085;
},
{
glyphname = uni2086;
lastChange = "2015-06-21 20:09:14 +0000";
layers = (
{
layerId = "7E0ECC91-5B8E-4D6E-BF07-DE660E899F7B";
name = Light;
paths = (
{
closed = 1;
nodes = (
"257 395 LINE",
"200 395 OFFCURVE",
"128 370 OFFCURVE",
"85 313 CURVE SMOOTH",
"43 257 OFFCURVE",
"30 197 OFFCURVE",
"30 135 CURVE SMOOTH",
"30 130 LINE SMOOTH",
"30 41 OFFCURVE",
"85 -5 OFFCURVE",
"152 -5 CURVE SMOOTH",
"223 -5 OFFCURVE",
"275 33 OFFCURVE",
"275 117 CURVE SMOOTH",
"275 122 LINE SMOOTH",
"275 206 OFFCURVE",
"223 245 OFFCURVE",
"155 245 CURVE SMOOTH",
"112 245 OFFCURVE",
"78 226 OFFCURVE",
"56 198 CURVE",
"63 232 OFFCURVE",
"77 268 OFFCURVE",
"102 300 CURVE SMOOTH",
"143 354 OFFCURVE",
"207 375 OFFCURVE",
"257 375 CURVE"
);
},
{
closed = 1;
nodes = (
"153 225 CURVE SMOOTH",
"156 225 LINE SMOOTH",
"216 225 OFFCURVE",
"254 188 OFFCURVE",
"254 124 CURVE SMOOTH",
"254 116 LINE SMOOTH",
"254 51 OFFCURVE",
"216 15 OFFCURVE",
"154 15 CURVE SMOOTH",
"151 15 LINE SMOOTH",
"95 15 OFFCURVE",
"50 58 OFFCURVE",
"50 130 CURVE SMOOTH",
"50 135 LINE SMOOTH",
"50 143 OFFCURVE",
"50 153 OFFCURVE",
"51 162 CURVE",
"69 199 OFFCURVE",
"106 225 OFFCURVE"
);
}
);
width = 300;
},
{
layerId = "8A6A1EBA-5B98-4308-8E77-A32B8A512EB8";
name = Bold;
paths = (
{
closed = 1;
nodes = (
"265 398 LINE",
"186 398 OFFCURVE",
"118 390 OFFCURVE",
"67 332 CURVE SMOOTH",
"25 284 OFFCURVE",
"11 212 OFFCURVE",
"11 150 CURVE SMOOTH",
"11 142 LINE SMOOTH",
"11 59 OFFCURVE",
"49 -9 OFFCURVE",
"148 -9 CURVE SMOOTH",
"249 -9 OFFCURVE",
"287 47 OFFCURVE",
"287 118 CURVE SMOOTH",
"287 128 LINE SMOOTH",
"287 199 OFFCURVE",
"254 246 OFFCURVE",
"194 246 CURVE SMOOTH",
"181 246 OFFCURVE",
"157 242 OFFCURVE",
"146 233 CURVE",
"150 245 OFFCURVE",
"158 255 OFFCURVE",
"167 262 CURVE SMOOTH",
"186 277 OFFCURVE",
"221 282 OFFCURVE",
"265 282 CURVE"
);
},
{
closed = 1;
nodes = (
"156 106 LINE SMOOTH",
"156 97 OFFCURVE",
"142 97 OFFCURVE",
"142 106 CURVE SMOOTH",
"142 131 LINE SMOOTH",
"142 140 OFFCURVE",
"156 140 OFFCURVE",
"156 131 CURVE SMOOTH"
);
}
);
width = 300;
}
);
unicode = 2086;
},
{
glyphname = uni2087;
lastChange = "2015-06-21 20:09:14 +0000";
layers = (
{
layerId = "7E0ECC91-5B8E-4D6E-BF07-DE660E899F7B";
name = Light;
paths = (
{
closed = 1;
nodes = (
"32 250 LINE",
"52 250 LINE",
"52 370 LINE",
"248 370 LINE",
"97 0 LINE",
"119 0 LINE",
"272 377 LINE",
"272 390 LINE",
"32 390 LINE"
);
}
);
width = 300;
},
{
layerId = "8A6A1EBA-5B98-4308-8E77-A32B8A512EB8";
name = Bold;
paths = (
{
closed = 1;
nodes = (
"7 250 LINE",
"121 250 LINE",
"121 276 LINE",
"167 277 LINE",
"28 0 LINE",
"172 0 LINE",
"292 308 LINE",
"292 390 LINE",
"7 390 LINE"
);
}
);
width = 300;
}
);
unicode = 2087;
},
{
glyphname = uni2088;
lastChange = "2015-06-21 20:09:14 +0000";
layers = (
{
layerId = "7E0ECC91-5B8E-4D6E-BF07-DE660E899F7B";
name = Light;
paths = (
{
closed = 1;
nodes = (
"150 -5 CURVE SMOOTH",
"216 -5 OFFCURVE",
"272 30 OFFCURVE",
"272 97 CURVE SMOOTH",
"272 104 LINE SMOOTH",
"272 155 OFFCURVE",
"243 186 OFFCURVE",
"199 198 CURVE",
"242 210 OFFCURVE",
"270 239 OFFCURVE",
"270 287 CURVE SMOOTH",
"270 294 LINE SMOOTH",
"270 359 OFFCURVE",
"223 395 OFFCURVE",
"150 395 CURVE SMOOTH",
"76 395 OFFCURVE",
"30 359 OFFCURVE",
"30 294 CURVE SMOOTH",
"30 287 LINE SMOOTH",
"30 239 OFFCURVE",
"58 210 OFFCURVE",
"100 198 CURVE",
"56 186 OFFCURVE",
"27 155 OFFCURVE",
"27 104 CURVE SMOOTH",
"27 97 LINE SMOOTH",
"27 30 OFFCURVE",
"83 -5 OFFCURVE"
);
},
{
closed = 1;
nodes = (
"141 189 CURVE SMOOTH",
"158 189 LINE SMOOTH",
"210 189 OFFCURVE",
"251 160 OFFCURVE",
"251 103 CURVE SMOOTH",
"251 96 LINE SMOOTH",
"251 39 OFFCURVE",
"204 14 OFFCURVE",
"152 14 CURVE SMOOTH",
"147 14 LINE SMOOTH",
"96 14 OFFCURVE",
"48 39 OFFCURVE",
"48 96 CURVE SMOOTH",
"48 103 LINE SMOOTH",
"48 160 OFFCURVE",
"90 189 OFFCURVE"
);
},
{
closed = 1;
nodes = (
"152 376 LINE SMOOTH",
"211 376 OFFCURVE",
"249 344 OFFCURVE",
"249 291 CURVE SMOOTH",
"249 288 LINE SMOOTH",
"249 233 OFFCURVE",
"207 208 OFFCURVE",
"156 208 CURVE SMOOTH",
"144 208 LINE SMOOTH",
"92 208 OFFCURVE",
"51 233 OFFCURVE",
"51 288 CURVE SMOOTH",
"51 291 LINE SMOOTH",
"51 344 OFFCURVE",
"89 376 OFFCURVE",
"147 376 CURVE SMOOTH"
);
}
);
width = 300;
},
{
layerId = "8A6A1EBA-5B98-4308-8E77-A32B8A512EB8";
name = Bold;
paths = (
{
closed = 1;
nodes = (
"157 106 LINE SMOOTH",
"157 97 OFFCURVE",
"143 97 OFFCURVE",
"143 106 CURVE SMOOTH",
"143 135 LINE SMOOTH",
"143 144 OFFCURVE",
"157 144 OFFCURVE",
"157 135 CURVE SMOOTH"
);
},
{
closed = 1;
nodes = (
"157 255 LINE SMOOTH",
"157 246 OFFCURVE",
"143 246 OFFCURVE",
"143 255 CURVE SMOOTH",
"143 284 LINE SMOOTH",
"143 293 OFFCURVE",
"157 293 OFFCURVE",
"157 284 CURVE SMOOTH"
);
},
{
closed = 1;
nodes = (
"150 -9 CURVE SMOOTH",
"267 -9 OFFCURVE",
"287 70 OFFCURVE",
"287 104 CURVE SMOOTH",
"287 115 LINE SMOOTH",
"287 157 OFFCURVE",
"268 187 OFFCURVE",
"243 200 CURVE",
"269 213 OFFCURVE",
"285 244 OFFCURVE",
"285 283 CURVE SMOOTH",
"285 294 LINE SMOOTH",
"285 326 OFFCURVE",
"264 398 OFFCURVE",
"150 398 CURVE SMOOTH",
"36 398 OFFCURVE",
"15 326 OFFCURVE",
"15 294 CURVE SMOOTH",
"15 283 LINE SMOOTH",
"15 244 OFFCURVE",
"31 213 OFFCURVE",
"57 200 CURVE",
"32 187 OFFCURVE",
"13 157 OFFCURVE",
"13 115 CURVE SMOOTH",
"13 104 LINE SMOOTH",
"13 70 OFFCURVE",
"33 -9 OFFCURVE"
);
}
);
width = 300;
}
);
unicode = 2088;
},
{
glyphname = uni2089;
lastChange = "2015-06-21 20:09:14 +0000";
layers = (
{
layerId = "7E0ECC91-5B8E-4D6E-BF07-DE660E899F7B";
name = Light;
paths = (
{
closed = 1;
nodes = (
"42 -5 LINE",
"100 -5 OFFCURVE",
"172 19 OFFCURVE",
"215 77 CURVE SMOOTH",
"256 132 OFFCURVE",
"270 193 OFFCURVE",
"270 255 CURVE SMOOTH",
"270 260 LINE SMOOTH",
"270 348 OFFCURVE",
"215 395 OFFCURVE",
"147 395 CURVE SMOOTH",
"77 395 OFFCURVE",
"25 356 OFFCURVE",
"25 272 CURVE SMOOTH",
"25 267 LINE SMOOTH",
"25 183 OFFCURVE",
"77 145 OFFCURVE",
"145 145 CURVE SMOOTH",
"188 145 OFFCURVE",
"221 163 OFFCURVE",
"243 192 CURVE",
"236 157 OFFCURVE",
"222 121 OFFCURVE",
"198 90 CURVE SMOOTH",
"157 35 OFFCURVE",
"92 15 OFFCURVE",
"42 15 CURVE"
);
},
{
closed = 1;
nodes = (
"143 165 LINE SMOOTH",
"84 165 OFFCURVE",
"46 201 OFFCURVE",
"46 266 CURVE SMOOTH",
"46 274 LINE SMOOTH",
"46 338 OFFCURVE",
"84 375 OFFCURVE",
"146 375 CURVE SMOOTH",
"149 375 LINE SMOOTH",
"205 375 OFFCURVE",
"250 332 OFFCURVE",
"250 260 CURVE SMOOTH",
"250 255 LINE SMOOTH",
"250 247 OFFCURVE",
"249 238 OFFCURVE",
"249 229 CURVE",
"231 191 OFFCURVE",
"193 165 OFFCURVE",
"146 165 CURVE SMOOTH"
);
}
);
width = 300;
},
{
layerId = "8A6A1EBA-5B98-4308-8E77-A32B8A512EB8";
name = Bold;
paths = (
{
closed = 1;
nodes = (
"33 -9 LINE",
"112 -9 OFFCURVE",
"182 -1 OFFCURVE",
"233 57 CURVE SMOOTH",
"275 105 OFFCURVE",
"289 177 OFFCURVE",
"289 239 CURVE SMOOTH",
"289 247 LINE SMOOTH",
"289 330 OFFCURVE",
"251 398 OFFCURVE",
"152 398 CURVE SMOOTH",
"51 398 OFFCURVE",
"13 342 OFFCURVE",
"13 271 CURVE SMOOTH",
"13 261 LINE SMOOTH",
"13 190 OFFCURVE",
"46 143 OFFCURVE",
"106 143 CURVE SMOOTH",
"119 143 OFFCURVE",
"143 147 OFFCURVE",
"154 156 CURVE",
"150 144 OFFCURVE",
"142 134 OFFCURVE",
"133 127 CURVE SMOOTH",
"114 112 OFFCURVE",
"77 107 OFFCURVE",
"33 107 CURVE"
);
},
{
closed = 1;
nodes = (
"144 283 LINE SMOOTH",
"144 292 OFFCURVE",
"158 292 OFFCURVE",
"158 283 CURVE SMOOTH",
"158 258 LINE SMOOTH",
"158 249 OFFCURVE",
"144 249 OFFCURVE",
"144 258 CURVE SMOOTH"
);
}
);
width = 300;
}
);
unicode = 2089;
},
{
glyphname = uni2153;
lastChange = "2015-06-21 20:09:14 +0000";
layers = (
{
layerId = "7E0ECC91-5B8E-4D6E-BF07-DE660E899F7B";
name = Light;
paths = (
{
closed = 1;
nodes = (
"647 14 LINE SMOOTH",
"584 14 OFFCURVE",
"547 49 OFFCURVE",
"547 125 CURVE",
"527 125 LINE",
"527 120 LINE SMOOTH",
"527 44 OFFCURVE",
"565 -5 OFFCURVE",
"650 -5 CURVE SMOOTH",
"716 -5 OFFCURVE",
"772 32 OFFCURVE",
"772 98 CURVE SMOOTH",
"772 106 LINE SMOOTH",
"772 156 OFFCURVE",
"743 187 OFFCURVE",
"699 198 CURVE",
"742 209 OFFCURVE",
"770 237 OFFCURVE",
"770 285 CURVE SMOOTH",
"770 292 LINE SMOOTH",
"770 357 OFFCURVE",
"723 395 OFFCURVE",
"650 395 CURVE SMOOTH",
"566 395 OFFCURVE",
"530 349 OFFCURVE",
"530 272 CURVE SMOOTH",
"530 260 LINE",
"550 260 LINE",
"550 342 OFFCURVE",
"581 376 OFFCURVE",
"647 376 CURVE SMOOTH",
"652 376 LINE SMOOTH",
"711 376 OFFCURVE",
"749 342 OFFCURVE",
"749 290 CURVE SMOOTH",
"749 286 LINE SMOOTH",
"749 232 OFFCURVE",
"707 208 OFFCURVE",
"656 208 CURVE SMOOTH",
"600 208 LINE",
"600 189 LINE",
"658 189 LINE SMOOTH",
"710 189 OFFCURVE",
"751 162 OFFCURVE",
"751 105 CURVE SMOOTH",
"751 97 LINE SMOOTH",
"751 40 OFFCURVE",
"704 14 OFFCURVE",
"652 14 CURVE SMOOTH"
);
},
{
closed = 1;
nodes = (
"124 0 LINE",
"700 780 LINE",
"676 780 LINE",
"100 0 LINE"
);
},
{
closed = 1;
nodes = (
"272 390 LINE",
"272 410 LINE",
"165 410 LINE",
"165 782 LINE",
"155 782 LINE",
"32 699 LINE",
"43 682 LINE",
"145 752 LINE",
"145 410 LINE",
"37 410 LINE",
"37 390 LINE"
);
}
);
width = 800;
},
{
layerId = "8A6A1EBA-5B98-4308-8E77-A32B8A512EB8";
name = Bold;
paths = (
{
closed = 1;
nodes = (
"287 390 LINE",
"287 503 LINE",
"221 503 LINE",
"221 778 LINE",
"118 778 LINE",
"-2 696 LINE",
"62 603 LINE",
"89 621 LINE",
"89 503 LINE",
"22 503 LINE",
"22 390 LINE"
);
},
{
closed = 1;
nodes = (
"187 0 LINE",
"763 780 LINE",
"613 780 LINE",
"37 0 LINE"
);
},
{
closed = 1;
nodes = (
"644 125 LINE",
"512 125 LINE",
"512 116 LINE SMOOTH",
"512 34 OFFCURVE",
"560 -9 OFFCURVE",
"650 -9 CURVE SMOOTH",
"767 -9 OFFCURVE",
"787 70 OFFCURVE",
"787 104 CURVE SMOOTH",
"787 115 LINE SMOOTH",
"787 157 OFFCURVE",
"768 187 OFFCURVE",
"743 200 CURVE",
"769 213 OFFCURVE",
"785 244 OFFCURVE",
"785 283 CURVE SMOOTH",
"785 294 LINE SMOOTH",
"785 326 OFFCURVE",
"764 398 OFFCURVE",
"650 398 CURVE SMOOTH",
"560 398 OFFCURVE",
"515 358 OFFCURVE",
"515 268 CURVE SMOOTH",
"515 260 LINE",
"640 260 LINE",
"640 284 LINE SMOOTH",
"640 293 OFFCURVE",
"654 293 OFFCURVE",
"654 284 CURVE SMOOTH",
"654 258 LINE SMOOTH",
"654 251 OFFCURVE",
"649 248 OFFCURVE",
"642 248 CURVE SMOOTH",
"600 248 LINE",
"600 142 LINE",
"645 142 LINE SMOOTH",
"653 142 OFFCURVE",
"658 139 OFFCURVE",
"658 128 CURVE SMOOTH",
"658 106 LINE SMOOTH",
"658 97 OFFCURVE",
"644 97 OFFCURVE",
"644 106 CURVE SMOOTH"
);
}
);
width = 800;
}
);
unicode = 2153;
},
